<svg version="1.1" id="Layer_1" xmlns="http://www.w3.org/2000/svg" xmlns:xlink="http://www.w3.org/1999/xlink" x="0px" y="0px"
	 viewBox="0 0 353.7 72.2" style="enable-background:new 0 0 353.7 72.2;" xml:space="preserve" fill='#000'>
	<path class="st0" d="M84.8,65.8h18.6c1.3,0,2.8,0,4.4-0.1s3.1-0.3,4.8-0.7c1.6-0.3,3.2-0.8,4.8-1.5s3-1.6,4.4-2.7
		c1.2-1,2.3-2.3,3.3-3.7c0.9-1.4,1.7-3,2.2-4.7s0.8-3.5,0.8-5.3c0-2.1-0.4-4.3-1.1-6.2c-0.5-1.3-1.2-2.7-2.2-4.1s-2.4-2.6-4.1-3.8
		c-1.5-1-3-1.7-4.6-2.3c-1.6-0.5-3.2-0.9-4.8-1.2c-1.6-0.2-3.2-0.4-4.7-0.4s-2.9-0.1-4.2-0.1h-4.3V16.6h24.6V6H84.8L84.8,65.8
		L84.8,65.8z M98,39.3h6.6c0.7,0,1.4,0,2.1,0.1s1.4,0.2,2.2,0.5c0.7,0.3,1.4,0.7,2.2,1.3c1,0.8,1.7,1.7,2.2,2.7
		c0.4,1,0.7,2.1,0.6,3.3c0,1.1-0.2,2.2-0.5,3.1c-0.3,1-0.8,1.8-1.3,2.4c-0.4,0.5-0.9,0.9-1.5,1.3s-1.3,0.8-2.1,1.1
		c-0.8,0.3-1.7,0.4-2.7,0.4H98L98,39.3L98,39.3z"/>
	<path class="st0" d="M174.1,56.9c1.5-0.3,3.5-0.9,4.5-1.8c2.5-2.1,2.4-6.7,2.5-10.1V21.9h32.2v43.9h-11.1v-34h-10.3
		c-0.1,6.1,0.1,12.4-0.5,18.5c-0.5,5.1-1.8,10.7-7,14.1c-2.2,1.4-5.4,2.3-8.4,2.5l-2,0.1L174.1,56.9L174.1,56.9z"/>
	<path class="st0" d="M143.6,39.5c0-0.5,0.1-1.3,0.1-1.9c0.1-1,0.3-2,0.6-3c0.4-1,1-2,1.8-2.8s1.8-1.3,2.8-1.7
		c1.1-0.4,2.1-0.6,3.1-0.6s2.1,0.2,3.1,0.6c1.1,0.4,2,0.9,2.8,1.7c0.9,0.9,1.5,1.8,1.8,2.8c0.4,1,0.6,2,0.6,3c0,0.6,0,1.4,0,1.9
		H143.6z M152.2,21.2c-1.7,0-3.4,0.1-5.2,0.4c-1.8,0.3-3.5,0.8-5.1,1.6c-1.7,0.7-3.2,1.8-4.7,3.1c-1.9,1.7-3.3,3.6-4.2,5.7
		c-0.9,2-1.6,4.1-1.9,6.1c-0.3,2.1-0.5,4-0.4,5.9c0,1.9,0.1,3.8,0.4,5.9S132,54,133,56c0.9,2,2.4,3.9,4.2,5.7c1.5,1.3,3,2.4,4.7,3.1
		s3.4,1.3,5.1,1.6c1.7,0.3,3.5,0.4,5.2,0.4s3.4-0.1,5.2-0.4c1.7-0.3,3.4-0.8,5.1-1.6c1.7-0.8,3.2-1.8,4.7-3.1
		c1.9-1.7,3.3-3.6,4.2-5.7c0.3-0.6,0.6-1.3,0.8-1.9h-12.5c-0.4,0.8-0.9,1.5-1.6,2.2c-0.8,0.8-1.8,1.3-2.8,1.7
		c-1.1,0.4-2.1,0.6-3.1,0.6s-2-0.2-3.1-0.6s-2-0.9-2.8-1.7c-0.9-0.9-1.5-1.8-1.8-2.8c-0.4-1-0.6-2-0.6-3c-0.1-1.2-0.1-2.4-0.1-3.5
		h29.9c0-1,0-1.8,0-2.7c0-1.9-0.1-4.1-0.4-6.2s-0.9-4.1-1.9-6.1c-0.9-2-2.4-3.9-4.2-5.7c-1.5-1.3-3-2.4-4.7-3.1s-3.4-1.3-5.1-1.6
		C155.6,21.3,153.9,21.2,152.2,21.2L152.2,21.2z"/>
	<path class="st1" d="M43.7,31.6c-0.4-0.6-0.8-1.2-1.3-1.7c-1.7,1.2-3.8,1.9-6.1,1.9c-2.3,0-4.4-0.7-6.2-1.9c-0.5,0.5-1,1.1-1.3,1.7
		c2.1,1.5,4.7,2.4,7.5,2.4C39,34,41.6,33.1,43.7,31.6z"/>
	<path class="st1" d="M44.9,36.1c0-0.4,0-1-0.1-1H27.6c0,0-0.1,0.7-0.1,1c0,0.4,0,0.5,0.1,1h17.2C44.9,36.6,44.9,36.5,44.9,36.1z"/>
	<path class="st1" d="M28.8,40.5c0.4,0.6,0.8,1.2,1.3,1.7c1.8-1.2,3.9-1.9,6.2-1.9c2.3,0,4.4,0.7,6.1,1.9c0.5-0.5,1-1.1,1.3-1.7
		c-2.1-1.5-4.7-2.3-7.4-2.3C33.5,38.1,30.9,39,28.8,40.5z"/>
	<path class="st1" d="M69.1,69H3.2V3.1h4.5v33.3c0,15.7,13,28.6,28.6,28.6c15.9,0,28.8-12.9,28.8-28.8c0-15.6-12.8-28.5-28.4-28.8
		h-0.5v12.7h0.5c8.8,0.3,15.7,7.3,15.7,16.1c0,8.9-7.2,16.1-16.1,16.1c-8.7,0-16-7.2-16.1-15.9V3.3h49V69H69.1z M0,0v72.2h72.2V0H0z
		"/>
	<path class="st1" d="M36.2,25.2c6,0,10.8,4.9,10.8,10.8c0,6-4.9,10.8-10.8,10.8c-6,0-10.8-4.9-10.8-10.8S30.2,25.2,36.2,25.2z
		 M36.2,49.1c7.2,0,13-5.8,13-13s-5.8-13-13-13s-13,5.8-13,13C23.2,43.2,29,49.1,36.2,49.1z"/>
	<path class="st1" d="M307.5,65.9h18.6c1.3,0,2.8,0,4.4-0.1c1.6-0.1,3.1-0.3,4.8-0.7c1.6-0.3,3.2-0.8,4.8-1.5s3-1.6,4.4-2.7
		c1.2-1,2.3-2.3,3.3-3.7c0.9-1.4,1.7-3,2.2-4.7s0.8-3.4,0.8-5.3c0-0.6,0-1.5-0.2-2.6c-0.1-1.1-0.4-2.3-0.9-3.6
		c-0.5-1.3-1.2-2.7-2.2-4.1s-2.4-2.6-4.1-3.8c-1.5-1-3-1.7-4.6-2.3c-1.6-0.5-3.2-0.9-4.8-1.2c-1.6-0.2-3.2-0.4-4.7-0.4
		s-2.9-0.1-4.2-0.1h-4.3V16.8h24.6V6.2h-37.9L307.5,65.9L307.5,65.9z M320.7,39.4h6.6c0.7,0,1.4,0,2.1,0.1c0.7,0.1,1.4,0.2,2.2,0.5
		c0.7,0.3,1.4,0.7,2.2,1.3c1,0.8,1.7,1.7,2.2,2.7c0.4,1,0.7,2.1,0.6,3.3c0,1.1-0.2,2.2-0.5,3.1c-0.3,1-0.8,1.8-1.3,2.4
		c-0.4,0.5-0.9,0.9-1.5,1.3s-1.3,0.8-2.1,1.1c-0.8,0.3-1.7,0.4-2.7,0.4h-7.8V39.4z"/>
	<path class="st1" d="M216.5,6.2v59.6h20.6c1.3,0,2.8,0,4.3-0.1s3.1-0.3,4.6-0.6c1.6-0.3,3.1-0.8,4.5-1.4c1.5-0.6,2.8-1.4,4-2.5
		c1-0.9,1.9-1.9,2.7-3.3c0.8-1.3,1.5-2.8,2-4.5s0.7-3.5,0.8-5.4c0-1.5-0.2-3-0.6-4.4c-0.4-1.4-1.1-2.8-2.1-4.2
		c-0.7-1-1.5-1.8-2.3-2.5c-0.8-0.6-1.6-1.1-2.4-1.5c-0.8-0.3-1.5-0.6-2.2-0.8v-0.1c1-0.3,1.9-0.9,3-1.6c1-0.7,1.9-1.8,2.8-3.2
		c0.5-0.9,0.9-1.9,1.2-2.8c0.3-1,0.5-1.8,0.6-2.7c0.1-0.8,0.1-1.5,0.1-2.1c0-2.9-0.5-5.3-1.4-7.3c-0.9-2-2.2-3.6-4-4.9
		c-1.2-0.9-2.5-1.5-3.9-2.1c-1.4-0.5-2.8-0.9-4.3-1.1c-1.4-0.2-2.9-0.4-4.2-0.5c-1.3-0.1-2.6-0.1-3.7-0.1L216.5,6.2z M229.8,16.5
		h7.7c0.8,0,1.6,0.1,2.6,0.3c0.9,0.2,1.8,0.7,2.6,1.4c0.5,0.5,0.9,1.1,1.2,1.7c0.3,0.6,0.4,1.2,0.5,1.8c0.1,0.6,0.1,1.2,0.1,1.8
		c0,0.6-0.1,1.3-0.3,2c-0.2,0.7-0.6,1.3-1.1,2c-0.6,0.7-1.3,1.2-2,1.5s-1.5,0.5-2.2,0.6c-0.8,0.1-1.5,0.1-2.2,0.1H230V16.5H229.8z
		 M229.8,40h6.6c0.8,0,1.6,0,2.4,0.1s1.6,0.2,2.4,0.5s1.5,0.6,2.2,1.2c0.4,0.3,0.8,0.7,1.2,1.2c0.4,0.5,0.7,1.2,1,1.9
		c0.3,0.8,0.4,1.7,0.4,2.8c0,1.2-0.2,2.4-0.5,3.3c-0.4,1-0.9,1.8-1.5,2.5c-0.6,0.6-1.3,1.1-2,1.4s-1.5,0.5-2.2,0.6s-1.4,0.2-1.9,0.1
		h-8.1V40z"/>
	<path class="st1" d="M274.3,41h16.1v0.6c0,0.9,0,1.9-0.2,3c-0.1,1.1-0.4,2.3-0.8,3.6c-0.4,1.2-1,2.5-1.9,3.7
		c-1.2,1.7-2.6,2.9-4.2,3.7c-1.6,0.8-3.4,1.1-5.5,1.1c-1.9,0-3.7-0.3-5.5-0.9s-3.5-1.3-5.1-2.3c-1.6-0.9-3-2-4.3-3.1L259.5,61
		c1.5,1,3,1.9,4.5,2.6c2.4,1.2,4.8,2,7.1,2.5s4.6,0.7,6.9,0.7c2.6,0,5.2-0.2,7.6-0.8c2.4-0.5,4.7-1.4,6.9-2.7
		c2.1-1.2,4.1-2.9,5.9-5.1c1.4-1.8,2.6-3.7,3.4-5.6c0.8-1.9,1.4-3.9,1.8-5.8c0.4-1.9,0.6-3.8,0.7-5.7c0.1-1.8,0.1-3.6,0.1-5.2
		s0-3.4-0.1-5.2c-0.1-1.8-0.3-3.7-0.7-5.7c-0.4-1.9-1-3.9-1.8-5.8s-1.9-3.8-3.4-5.6c-1.8-2.1-3.7-3.8-5.9-5.1
		c-2.2-1.2-4.5-2.1-6.9-2.7c-2.4-0.5-5-0.8-7.6-0.8c-2.3,0-4.6,0.2-6.9,0.7c-2.3,0.5-4.7,1.3-7.1,2.5c-1.5,0.7-3,1.6-4.5,2.6
		l3.4,10.6c1.3-1.1,2.7-2.1,4.3-3.1c1.6-0.9,3.3-1.7,5.1-2.3c1.8-0.6,3.7-0.9,5.5-0.9c2,0,3.8,0.4,5.5,1.1c1.6,0.8,3.1,2,4.2,3.7
		c0.8,1.2,1.5,2.4,1.9,3.7c0.4,1.3,0.7,2.5,0.8,3.6s0.2,2.1,0.2,3v0.7h-16.1V41z"/>
</svg>
