<svg id="cdr_layer2" xmlns="http://www.w3.org/2000/svg" viewBox="0 0 866.272 200.378" fill='#000'><path class="cls-1" d="M154.328,156.5h29.854c2.17,0.023,4.519-.069,7.006-0.228a54.292,54.292,0,0,0,7.67-1.051,37.912,37.912,0,0,0,7.692-2.419,29.837,29.837,0,0,0,7.077-4.383,28.376,28.376,0,0,0,5.248-5.888,30.08,30.08,0,0,0,3.561-7.487,28.517,28.517,0,0,0,1.324-8.537,28.879,28.879,0,0,0-1.735-10.042,25.79,25.79,0,0,0-3.515-6.528,27.426,27.426,0,0,0-6.527-6.163,32.651,32.651,0,0,0-7.442-3.652,45.73,45.73,0,0,0-7.783-1.871,74.1,74.1,0,0,0-7.532-.685c-2.419-.068-4.657-0.113-6.686-0.091h-6.848V77.612h39.577V60.632H154.328V156.5Zm21.364-42.591h10.683a28.394,28.394,0,0,1,3.422.136,13.9,13.9,0,0,1,3.469.823,13.163,13.163,0,0,1,3.517,2.053,11.511,11.511,0,0,1,3.49,4.407,12.765,12.765,0,0,1,1.028,5.317,14.954,14.954,0,0,1-.845,5.022,11.575,11.575,0,0,1-2.169,3.879,10.826,10.826,0,0,1-2.35,2.146,12.924,12.924,0,0,1-3.378,1.688,13.9,13.9,0,0,1-4.269.686h-12.6V113.905Z" transform="translate(-18.138 -8.55)"/><path class="cls-1" d="M297.929,142.234c2.435-.422,5.576-1.444,7.244-2.842,4.064-3.405,3.928-10.693,4.095-16.263V86.015H361.08v70.543H343.287V101.865h-16.6c-0.191,9.866.169,19.929-.81,29.741-0.845,8.174-2.842,17.246-11.249,22.588a30.619,30.619,0,0,1-13.536,4.061l-3.159.146V142.234Z" transform="translate(-18.138 -8.55)"/><path class="cls-1" d="M248.94,114.183c0.014-.821.16-2.1,0.234-3.048a17.814,17.814,0,0,1,1.012-4.845,12.149,12.149,0,0,1,2.952-4.543,13.487,13.487,0,0,1,4.543-2.726,14.955,14.955,0,0,1,5-.907,14.729,14.729,0,0,1,5,.907,13.05,13.05,0,0,1,4.544,2.726,12.2,12.2,0,0,1,2.953,4.543,17.8,17.8,0,0,1,1.008,4.845c0.076,0.944.007,2.228,0.022,3.048H248.94Zm13.739-29.337a47.082,47.082,0,0,0-8.321.687,33.177,33.177,0,0,0-8.227,2.506,29.312,29.312,0,0,0-7.567,5.035,29.953,29.953,0,0,0-6.759,9.126,36.075,36.075,0,0,0-3.029,9.883,64.117,64.117,0,0,0,0,19,36.079,36.079,0,0,0,3.029,9.882,29.9,29.9,0,0,0,6.759,9.125,29.342,29.342,0,0,0,7.567,5.036,33.175,33.175,0,0,0,8.227,2.5,50.875,50.875,0,0,0,16.665,0,33.376,33.376,0,0,0,8.2-2.5,29.349,29.349,0,0,0,7.565-5.036,29.938,29.938,0,0,0,6.76-9.125q0.723-1.554,1.292-3.116h-20.07a12.633,12.633,0,0,1-2.554,3.569,13.052,13.052,0,0,1-4.544,2.727,14.825,14.825,0,0,1-5,.908,15.012,15.012,0,0,1-5-.908,13.49,13.49,0,0,1-4.543-2.727,12.113,12.113,0,0,1-2.952-4.543,17.858,17.858,0,0,1-1.012-4.846,56.249,56.249,0,0,1-.154-5.661l48.125-.02c0.051-1.531.057-2.963,0.036-4.367a60.15,60.15,0,0,0-.6-9.9,36,36,0,0,0-3.027-9.883,29.978,29.978,0,0,0-6.76-9.126,29.319,29.319,0,0,0-7.565-5.035,33.392,33.392,0,0,0-8.2-2.506,47.551,47.551,0,0,0-8.345-.686h0Z" transform="translate(-18.138 -8.55)"/><path d="M88.312,101.61a13.787,13.787,0,0,0-2.131-2.779,17.383,17.383,0,0,1-19.707-.065,13.99,13.99,0,0,0-2.155,2.775A20.844,20.844,0,0,0,88.312,101.61Z" transform="translate(-18.138 -8.55)"/><path d="M90.231,108.788a7.876,7.876,0,0,0-.11-1.644H62.472a7.687,7.687,0,0,0-.109,1.644,16.059,16.059,0,0,0,.109,1.626H90.121C90.19,109.6,90.231,109.374,90.231,108.788Z" transform="translate(-18.138 -8.55)"/><path d="M64.319,115.838a13.749,13.749,0,0,0,2.153,2.773,17.37,17.37,0,0,1,19.709-.06,14.247,14.247,0,0,0,2.131-2.785A20.855,20.855,0,0,0,64.319,115.838Z" transform="translate(-18.138 -8.55)"/><path d="M129.115,161.653H23.221v-106H30.4v53.493c0,25.167,20.938,45.9,46,45.9a46.328,46.328,0,0,0,46.284-46.3c0-25.089-20.554-45.86-45.643-46.3l-0.872-.014V82.791l0.817,0.02a25.913,25.913,0,0,1-.666,51.816,26.127,26.127,0,0,1-25.895-25.6L50.39,55.759h78.725V161.653ZM18.138,50.749V166.813H134.2V50.749H18.138Z" transform="translate(-18.138 -8.55)"/><path d="M76.293,91.271A17.417,17.417,0,1,1,58.876,108.7,17.448,17.448,0,0,1,76.293,91.271Zm0,38.344a20.927,20.927,0,1,0-20.92-20.92A20.951,20.951,0,0,0,76.293,129.615Z" transform="translate(-18.138 -8.55)"/><path d="M512.316,156.608h29.84c2.168,0.022,4.516-.069,7-0.229a54.382,54.382,0,0,0,7.664-1.048,38.138,38.138,0,0,0,7.689-2.419,29.893,29.893,0,0,0,7.073-4.38,28.368,28.368,0,0,0,5.247-5.887,30.136,30.136,0,0,0,3.558-7.481,28.57,28.57,0,0,0,1.323-8.534,31.74,31.74,0,0,0-.274-4.174,29.588,29.588,0,0,0-1.46-5.863,25.893,25.893,0,0,0-3.513-6.525,27.431,27.431,0,0,0-6.526-6.16,32.561,32.561,0,0,0-7.436-3.65,45.789,45.789,0,0,0-7.778-1.87,73.748,73.748,0,0,0-7.53-.685c-2.418-.069-4.655-0.114-6.685-0.091h-6.843V77.764h39.559V60.791H512.316v95.817Zm21.353-42.57h10.677a28.37,28.37,0,0,1,3.421.136,13.9,13.9,0,0,1,3.467.822,13.119,13.119,0,0,1,3.514,2.053,11.5,11.5,0,0,1,3.492,4.4,12.785,12.785,0,0,1,1.025,5.314,14.971,14.971,0,0,1-.843,5.02,11.58,11.58,0,0,1-2.168,3.877,10.823,10.823,0,0,1-2.35,2.145,12.949,12.949,0,0,1-3.377,1.689,13.939,13.939,0,0,1-4.266.683H533.669V114.038Z" transform="translate(-18.138 -8.55)"/><path d="M366.083,60.791v95.817h33.124c2.145,0.022,4.449-.069,6.889-0.206a57.519,57.519,0,0,0,7.461-.981,36.264,36.264,0,0,0,7.277-2.213,24.693,24.693,0,0,0,6.433-3.992,22.616,22.616,0,0,0,4.4-5.247,28.383,28.383,0,0,0,3.148-7.255A31.291,31.291,0,0,0,436.028,128a25.613,25.613,0,0,0-.936-7.071,22.322,22.322,0,0,0-3.307-6.754,19.163,19.163,0,0,0-3.763-3.969,19.592,19.592,0,0,0-3.835-2.35,20.737,20.737,0,0,0-3.49-1.21v-0.409a18,18,0,0,0,4.745-2.555,16.807,16.807,0,0,0,4.426-5.111,21.55,21.55,0,0,0,1.871-4.494,28.007,28.007,0,0,0,.914-4.289,29.242,29.242,0,0,0,.227-3.4,28.167,28.167,0,0,0-2.258-11.75,20,20,0,0,0-6.366-7.825,24.912,24.912,0,0,0-6.2-3.307,38.577,38.577,0,0,0-6.868-1.8,60.667,60.667,0,0,0-6.752-.753c-2.166-.114-4.152-0.182-5.908-0.159h-32.44Zm21.352,16.424h12.456a14.88,14.88,0,0,1,4.107.5,9.137,9.137,0,0,1,4.106,2.236A7.862,7.862,0,0,1,410,82.645a10.594,10.594,0,0,1,.822,2.921,21.145,21.145,0,0,1,.159,2.875,10.33,10.33,0,0,1-.548,3.216,10.751,10.751,0,0,1-1.78,3.217,9.437,9.437,0,0,1-3.216,2.487,12,12,0,0,1-3.6,1,24.16,24.16,0,0,1-3.581.2H387.435V77.215Zm0,37.78h10.678a37.03,37.03,0,0,1,3.854.161,17.88,17.88,0,0,1,3.924.82,11.276,11.276,0,0,1,3.581,1.894,9.988,9.988,0,0,1,1.918,1.985,11.454,11.454,0,0,1,1.552,3.125,15.1,15.1,0,0,1,.638,4.472,15.7,15.7,0,0,1-.869,5.362,10.192,10.192,0,0,1-2.418,3.945A10.326,10.326,0,0,1,407.077,139a13.743,13.743,0,0,1-3.512.958,19.508,19.508,0,0,1-3.126.227h-13V115Z" transform="translate(-18.138 -8.55)"/><path d="M459.025,116.638H484.9V117.6a42.7,42.7,0,0,1-.25,4.838,29.007,29.007,0,0,1-1.278,5.794,22.338,22.338,0,0,1-2.989,5.932,17.185,17.185,0,0,1-6.822,5.886,20.392,20.392,0,0,1-8.783,1.78,29.829,29.829,0,0,1-8.92-1.438,41.855,41.855,0,0,1-8.259-3.65,46.239,46.239,0,0,1-6.913-4.905l-5.45,16.984a54.719,54.719,0,0,0,7.276,4.256,49.951,49.951,0,0,0,11.43,4.014,51.718,51.718,0,0,0,11.111,1.164,56.376,56.376,0,0,0,12.205-1.232,38.051,38.051,0,0,0,11.064-4.289,35.128,35.128,0,0,0,9.444-8.168,38.927,38.927,0,0,0,5.43-8.987,46.614,46.614,0,0,0,2.851-9.354,68.863,68.863,0,0,0,1.119-9.148c0.136-2.966.206-5.749,0.181-8.373,0.025-2.625-.046-5.41-0.181-8.374a68.9,68.9,0,0,0-1.119-9.149,46.566,46.566,0,0,0-2.851-9.353,38.959,38.959,0,0,0-5.43-8.989,35.159,35.159,0,0,0-9.444-8.167,38.079,38.079,0,0,0-11.064-4.289,56.383,56.383,0,0,0-12.205-1.232,51.843,51.843,0,0,0-11.111,1.163,49.96,49.96,0,0,0-11.43,4.016,54.251,54.251,0,0,0-7.277,4.256l5.451,16.982a46.183,46.183,0,0,1,6.913-4.9,41.913,41.913,0,0,1,8.259-3.65,29.77,29.77,0,0,1,8.92-1.437,20.359,20.359,0,0,1,8.783,1.779,17.184,17.184,0,0,1,6.822,5.886,22.323,22.323,0,0,1,2.989,5.932,29.022,29.022,0,0,1,1.278,5.794A42.455,42.455,0,0,1,484.9,99.8v1.1H459.025v15.741Z" transform="translate(-18.138 -8.55)"/><path d="M682.62,73.247a15.282,15.282,0,0,0,2.432.15,6.314,6.314,0,0,0,4.415-1.572,4.417,4.417,0,0,0,1.308-3.292,3.873,3.873,0,0,0-1.683-3.405,6.905,6.905,0,0,0-4.191-1.2c-0.711,0-1.533.075-2.281,0.149v9.167Zm11-21.812v3.778h-11v5.426a27.742,27.742,0,0,1,3.105-.188,11.89,11.89,0,0,1,6.81,1.909,7,7,0,0,1,3.068,6.1,7.415,7.415,0,0,1-2.246,5.575c-2.281,2.095-5.985,2.881-9.653,2.881a44.021,44.021,0,0,1-5.649-.337V51.435H693.62Z" transform="translate(-18.138 -8.55)"/><path d="M711.8,66.026l-1.984-6.21c-0.486-1.536-.9-3.255-1.272-4.714h-0.073c-0.374,1.458-.749,3.217-1.2,4.714l-1.945,6.21H711.8Zm-7.222,3.48-2.169,7.146h-4.752l8.082-25.217h5.873l8.2,25.217h-4.94l-2.282-7.146h-8.008Z" transform="translate(-18.138 -8.55)"/><polygon points="709.935 42.885 709.935 52.985 720.598 52.985 720.598 42.885 725.199 42.885 725.199 68.102 720.598 68.102 720.598 56.989 709.935 56.989 709.935 68.102 705.332 68.102 705.332 42.885 709.935 42.885"/><path d="M753.287,51.435V62.246h0.747l7.709-10.811h5.574l-9.128,11.374c3.666,0.674,5.2,3.068,6.323,6.248,0.934,2.655,1.719,5.2,2.842,7.6h-4.938a44.987,44.987,0,0,1-2.1-5.724c-1.01-3.069-2.357-5.275-5.95-5.275h-1.084v11H748.76V51.435h4.527Z" transform="translate(-18.138 -8.55)"/><path d="M685.651,104.072a31.381,31.381,0,0,1-1.2,9.2,23.726,23.726,0,0,1-1.871,4.49H692.2v-17.66h-6.547v3.966Zm11.15-7.745v21.55l2.394,0.112-0.261,9.8h-3.518l-0.262-6.248h-15.3l-0.262,6.248h-3.517l-0.224-9.8,2.02-.112A26.5,26.5,0,0,0,680.3,112.3a33.52,33.52,0,0,0,1.085-9.391V96.327H696.8Z" transform="translate(-18.138 -8.55)"/><path d="M721.49,96.327v25.218h-4.6V100.106H710v6.734c0,6.063-.562,11.524-4.266,13.807a8.827,8.827,0,0,1-4.49,1.234l-0.56-3.7a5.231,5.231,0,0,0,2.768-1.348c1.758-1.759,2.02-5.724,2.02-9.652V96.327H721.49Z" transform="translate(-18.138 -8.55)"/><path d="M738.586,99.881a12.183,12.183,0,0,0-2.694-.262c-2.768,0-5.089,1.086-5.089,4.078,0,2.657,2.357,4.117,5.387,4.117a22.2,22.2,0,0,0,2.395-.076V99.881Zm-13.881,21.664a15.143,15.143,0,0,0,1.16-2.582c1.048-2.881,1.683-6.1,3.666-8.044a5.446,5.446,0,0,1,2.1-1.272v-0.113a6.122,6.122,0,0,1-5.426-6.172,6.556,6.556,0,0,1,2.47-5.276c1.759-1.386,4.564-1.945,7.782-1.945a42.268,42.268,0,0,1,6.7.523v24.881h-4.565V111.181h-1.87a4.26,4.26,0,0,0-3.107,1.085c-1.645,1.646-2.32,5.051-3.142,7.3a10.925,10.925,0,0,1-.862,1.983h-4.9Z" transform="translate(-18.138 -8.55)"/><path d="M761.03,118.215a20.554,20.554,0,0,0,2.432.111c2.956,0,5.574-1.122,5.574-4.226,0-2.919-2.544-4.116-5.724-4.116H761.03v8.231Zm0-11.6h2.358c3.18,0,4.975-1.5,4.975-3.629,0-2.357-1.8-3.442-4.715-3.442a12.313,12.313,0,0,0-2.619.188v6.883Zm-4.564-9.952a38.406,38.406,0,0,1,6.7-.523c3.4,0,5.5.411,7.221,1.608A5.306,5.306,0,0,1,773,102.463a5.868,5.868,0,0,1-4.187,5.463V108a6.357,6.357,0,0,1,5.087,6.248,6.538,6.538,0,0,1-2.43,5.2c-1.8,1.572-4.753,2.358-9.356,2.358a44.7,44.7,0,0,1-5.649-.337V96.664Z" transform="translate(-18.138 -8.55)"/><path d="M790.44,110.919l-1.99-6.211c-0.48-1.534-.9-3.255-1.27-4.714H787.1c-0.37,1.458-.74,3.217-1.19,4.714l-1.95,6.211h6.48Zm-7.23,3.48-2.17,7.146h-4.75l8.08-25.218h5.88l8.19,25.218H793.5l-2.28-7.146h-8.01Z" transform="translate(-18.138 -8.55)"/><polygon points="788.462 87.777 788.462 109.216 795.562 109.216 795.562 87.777 800.092 87.777 800.092 109.216 807.202 109.216 807.202 87.777 811.732 87.777 811.732 112.995 783.962 112.995 783.962 87.777 788.462 87.777"/><path d="M859.79,96.327v25.218h-4.6V96.327h4.6Zm-19.9,21.813a12.171,12.171,0,0,0,2.24.149c3,0,5.69-1.608,5.69-4.863,0-3.33-2.95-4.64-5.69-4.64a15.952,15.952,0,0,0-2.24.15v9.2Zm0-21.813v9.092a17.871,17.871,0,0,1,2.92-.224c5.16,0,9.84,2.469,9.84,8.119a7.518,7.518,0,0,1-1.99,5.387c-2.24,2.32-6.17,3.106-9.72,3.106a44.613,44.613,0,0,1-5.62-.337V96.327h4.57Z" transform="translate(-18.138 -8.55)"/><path d="M879.09,121.545l-2.73-5.015c-1.08-1.944-1.79-3.292-2.5-4.751h-0.11c-0.6,1.46-1.28,2.808-2.29,4.753l-2.5,5.014h-5.28l7.48-12.759-7.18-12.459h5.28l2.73,5.2c0.82,1.572,1.42,2.806,2.09,4.228h0.08c0.67-1.572,1.19-2.694,1.98-4.228l2.69-5.2h5.28l-7.37,12.31,7.67,12.908h-5.32Z" transform="translate(-18.138 -8.55)"/><rect class="cls-3" x="659.918" y="132.669" width="4.602" height="25.218"/><polygon points="674.546 132.669 674.546 142.771 685.208 142.771 685.208 132.669 689.81 132.669 689.81 157.887 685.208 157.887 685.208 146.774 674.546 146.774 674.546 157.887 669.943 157.887 669.943 132.669 674.546 132.669"/><rect class="cls-3" x="695.232" y="132.669" width="4.603" height="25.218"/><polygon points="709.86 132.669 709.86 154.107 719.925 154.107 719.925 132.669 724.527 132.669 724.527 154.219 726.922 154.331 726.66 164.135 723.104 164.135 722.843 157.887 705.259 157.887 705.259 132.669 709.86 132.669"/><path d="M773.27,141.219v25.218h-4.605V141.219h4.605Zm-19.908,21.813a12.1,12.1,0,0,0,2.245.15c2.994,0,5.687-1.61,5.687-4.864,0-3.331-2.955-4.64-5.687-4.64a15.8,15.8,0,0,0-2.246.15v9.2Zm0-21.813v9.092a17.732,17.732,0,0,1,2.918-.225c5.164,0,9.84,2.47,9.84,8.119a7.532,7.532,0,0,1-1.983,5.388c-2.243,2.32-6.173,3.105-9.728,3.105a44.354,44.354,0,0,1-5.612-.336V141.219h4.564Z" transform="translate(-18.138 -8.55)"/><path d="M790.7,144.773a12.284,12.284,0,0,0-2.7-.261c-2.76,0-5.08,1.085-5.08,4.078,0,2.656,2.35,4.115,5.38,4.115a22.912,22.912,0,0,0,2.4-.074v-7.858Zm-13.88,21.664a15.108,15.108,0,0,0,1.16-2.582c1.04-2.881,1.68-6.1,3.66-8.044a5.429,5.429,0,0,1,2.1-1.272v-0.112a6.123,6.123,0,0,1-5.43-6.174,6.578,6.578,0,0,1,2.47-5.275c1.76-1.384,4.57-1.946,7.79-1.946a42.258,42.258,0,0,1,6.69.524v24.881H790.7V156.072h-1.87a4.27,4.27,0,0,0-3.11,1.086c-1.64,1.646-2.32,5.051-3.14,7.3a11.516,11.516,0,0,1-.86,1.984h-4.9Z" transform="translate(-18.138 -8.55)"/><polygon points="787.372 136.523 780.192 136.523 780.192 132.669 799.232 132.669 799.232 136.523 791.972 136.523 791.972 157.887 787.372 157.887 787.372 136.523"/><path d="M844.94,141.219v25.218h-4.6V141.219h4.6Zm-19.9,21.813a12.069,12.069,0,0,0,2.24.15c3,0,5.69-1.61,5.69-4.864,0-3.331-2.95-4.64-5.69-4.64a15.684,15.684,0,0,0-2.24.15v9.2Zm0-21.813v9.092a17.757,17.757,0,0,1,2.92-.225c5.16,0,9.84,2.47,9.84,8.119a7.519,7.519,0,0,1-1.99,5.388c-2.24,2.32-6.17,3.105-9.72,3.105a44.465,44.465,0,0,1-5.62-.336V141.219h4.57Z" transform="translate(-18.138 -8.55)"/><path d="M856.61,135.608c0.12,1.308.49,2.281,1.95,2.281,1.38,0,1.83-.935,1.98-2.281h3.22c-0.19,2.88-2.02,4.339-5.28,4.339-3.21,0-4.9-1.5-5.12-4.339h3.25Zm-3.21,5.611,4.26,9.727c0.67,1.647,1.2,3.144,1.8,4.64h0.11c0.37-1.159.82-2.768,1.42-4.751l3.29-9.616h4.87l-4.98,12.571c-1.46,3.667-3.07,7.484-4.86,9.841a7.688,7.688,0,0,1-6.29,3.217,6.452,6.452,0,0,1-2.36-.336l0.38-3.705a5.615,5.615,0,0,0,1.57.15c2.13,0,3.48-1.8,4.12-3.218a1.355,1.355,0,0,0-.12-1.346l-8.42-17.174h5.21Z" transform="translate(-18.138 -8.55)"/><rect class="cls-4" x="606.516" width="6.576" height="200.378"/></svg>