<svg version="1.1" id="Layer_1" xmlns="http://www.w3.org/2000/svg" xmlns:xlink="http://www.w3.org/1999/xlink" x="0px" y="0px"
	 viewBox="0 0 546.7 131.1" style="enable-background:new 0 0 546.7 131.1;" xml:space="preserve" fill='#000'>
		<path class="st0" d="M87.3,96.4h18.6c1.3,0,2.8,0,4.4-0.1s3.1-0.3,4.8-0.7c1.6-0.3,3.2-0.8,4.8-1.5s3-1.6,4.4-2.7
			c1.2-1,2.3-2.3,3.3-3.7c0.9-1.4,1.7-3,2.2-4.7s0.8-3.5,0.8-5.3c0-2.1-0.4-4.3-1.1-6.2c-0.5-1.3-1.2-2.7-2.2-4.1
			c-1-1.4-2.4-2.6-4.1-3.8c-1.5-1-3-1.7-4.6-2.3c-1.6-0.5-3.2-0.9-4.8-1.2c-1.6-0.2-3.2-0.4-4.7-0.4s-2.9-0.1-4.2-0.1h-4.3V47.2
			h24.6V36.6H87.3L87.3,96.4L87.3,96.4z M100.5,69.9h6.6c0.7,0,1.4,0,2.1,0.1c0.7,0.1,1.4,0.2,2.2,0.5c0.7,0.3,1.4,0.7,2.2,1.3
			c1,0.8,1.7,1.7,2.2,2.7c0.4,1,0.7,2.1,0.6,3.3c0,1.1-0.2,2.2-0.5,3.1c-0.3,1-0.8,1.8-1.3,2.4c-0.4,0.5-0.9,0.9-1.5,1.3
			s-1.3,0.8-2.1,1.1c-0.8,0.3-1.7,0.4-2.7,0.4h-7.8L100.5,69.9L100.5,69.9z"/>
		<path class="st0" d="M176.6,87.5c1.5-0.3,3.5-0.9,4.5-1.8c2.5-2.1,2.4-6.7,2.5-10.1V52.5h32.2v43.9h-11.1v-34h-10.3
			c-0.1,6.1,0.1,12.4-0.5,18.5c-0.5,5.1-1.8,10.7-7,14.1c-2.2,1.4-5.4,2.3-8.4,2.5l-2,0.1L176.6,87.5L176.6,87.5z"/>
		<path class="st0" d="M146.1,70.1c0-0.5,0.1-1.3,0.1-1.9c0.1-1,0.3-2,0.6-3c0.4-1,1-2,1.8-2.8s1.8-1.3,2.8-1.7
			c1.1-0.4,2.1-0.6,3.1-0.6s2.1,0.2,3.1,0.6c1.1,0.4,2,0.9,2.8,1.7c0.9,0.9,1.5,1.8,1.8,2.8c0.4,1,0.6,2,0.6,3c0,0.6,0,1.4,0,1.9
			H146.1z M154.7,51.8c-1.7,0-3.4,0.1-5.2,0.4c-1.8,0.3-3.5,0.8-5.1,1.6c-1.7,0.7-3.2,1.8-4.7,3.1c-1.9,1.7-3.3,3.6-4.2,5.7
			c-0.9,2-1.6,4.1-1.9,6.1c-0.3,2.1-0.5,4-0.4,5.9c0,1.9,0.1,3.8,0.4,5.9s0.9,4.1,1.9,6.1c0.9,2,2.4,3.9,4.2,5.7
			c1.5,1.3,3,2.4,4.7,3.1s3.4,1.3,5.1,1.6c1.7,0.3,3.5,0.4,5.2,0.4s3.4-0.1,5.2-0.4c1.7-0.3,3.4-0.8,5.1-1.6
			c1.7-0.8,3.2-1.8,4.7-3.1c1.9-1.7,3.3-3.6,4.2-5.7c0.3-0.6,0.6-1.3,0.8-1.9h-12.5c-0.4,0.8-0.9,1.5-1.6,2.2
			c-0.8,0.8-1.8,1.3-2.8,1.7c-1.1,0.4-2.1,0.6-3.1,0.6s-2-0.2-3.1-0.6s-2-0.9-2.8-1.7c-0.9-0.9-1.5-1.8-1.8-2.8c-0.4-1-0.6-2-0.6-3
			c-0.1-1.2-0.1-2.4-0.1-3.5h29.9c0-1,0-1.8,0-2.7c0-1.9-0.1-4.1-0.4-6.2s-0.9-4.1-1.9-6.1c-0.9-2-2.4-3.9-4.2-5.7
			c-1.5-1.3-3-2.4-4.7-3.1s-3.4-1.3-5.1-1.6C158.1,51.9,156.4,51.8,154.7,51.8L154.7,51.8z"/>
		<path class="st1" d="M46.2,62.2c-0.4-0.6-0.8-1.2-1.3-1.7c-1.7,1.2-3.8,1.9-6.1,1.9s-4.4-0.7-6.2-1.9c-0.5,0.5-1,1.1-1.3,1.7
			c2.1,1.5,4.7,2.4,7.5,2.4C41.5,64.6,44.1,63.7,46.2,62.2z"/>
		<path class="st1" d="M47.4,66.7c0-0.4,0-1-0.1-1H30.1c0,0-0.1,0.7-0.1,1c0,0.4,0,0.5,0.1,1h17.2C47.4,67.2,47.4,67.1,47.4,66.7z"
			/>
		<path class="st1" d="M31.3,71.1c0.4,0.6,0.8,1.2,1.3,1.7c1.8-1.2,3.9-1.9,6.2-1.9s4.4,0.7,6.1,1.9c0.5-0.5,1-1.1,1.3-1.7
			c-2.1-1.5-4.7-2.3-7.4-2.3C36,68.7,33.4,69.6,31.3,71.1z"/>
		<path class="st1" d="M71.6,99.6H5.7V33.7h4.5V67c0,15.7,13,28.6,28.6,28.6c15.9,0,28.8-12.9,28.8-28.8c0-15.6-12.8-28.5-28.4-28.8
			h-0.5v12.7h0.5C48,51,54.9,58,54.9,66.8c0,8.9-7.2,16.1-16.1,16.1c-8.7,0-16-7.2-16.1-15.9V33.9h49v65.7H71.6z M2.5,30.6v72.2
			h72.2V30.6H2.5z"/>
		<path class="st1" d="M38.7,55.8c6,0,10.8,4.9,10.8,10.8c0,6-4.9,10.8-10.8,10.8c-6,0-10.8-4.9-10.8-10.8S32.7,55.8,38.7,55.8z
			 M38.7,79.7c7.2,0,13-5.8,13-13s-5.8-13-13-13s-13,5.8-13,13C25.7,73.8,31.5,79.7,38.7,79.7z"/>
		<path class="st1" d="M310,96.5h18.6c1.3,0,2.8,0,4.4-0.1s3.1-0.3,4.8-0.7c1.6-0.3,3.2-0.8,4.8-1.5c1.6-0.7,3-1.6,4.4-2.7
			c1.2-1,2.3-2.3,3.3-3.7c0.9-1.4,1.7-3,2.2-4.7s0.8-3.4,0.8-5.3c0-0.6,0-1.5-0.2-2.6c-0.1-1.1-0.4-2.3-0.9-3.6
			c-0.5-1.3-1.2-2.7-2.2-4.1s-2.4-2.6-4.1-3.8c-1.5-1-3-1.7-4.6-2.3c-1.6-0.5-3.2-0.9-4.8-1.2c-1.6-0.2-3.2-0.4-4.7-0.4
			s-2.9-0.1-4.2-0.1h-4.3V47.4h24.6V36.8H310L310,96.5L310,96.5z M323.2,70h6.6c0.7,0,1.4,0,2.1,0.1s1.4,0.2,2.2,0.5
			c0.7,0.3,1.4,0.7,2.2,1.3c1,0.8,1.7,1.7,2.2,2.7c0.4,1,0.7,2.1,0.6,3.3c0,1.1-0.2,2.2-0.5,3.1c-0.3,1-0.8,1.8-1.3,2.4
			c-0.4,0.5-0.9,0.9-1.5,1.3s-1.3,0.8-2.1,1.1c-0.8,0.3-1.7,0.4-2.7,0.4h-7.8L323.2,70L323.2,70z"/>
		<path class="st1" d="M219,36.8v59.6h20.6c1.3,0,2.8,0,4.3-0.1s3.1-0.3,4.6-0.6c1.6-0.3,3.1-0.8,4.5-1.4c1.5-0.6,2.8-1.4,4-2.5
			c1-0.9,1.9-1.9,2.7-3.3c0.8-1.3,1.5-2.8,2-4.5s0.7-3.5,0.8-5.4c0-1.5-0.2-3-0.6-4.4s-1.1-2.8-2.1-4.2c-0.7-1-1.5-1.8-2.3-2.5
			c-0.8-0.6-1.6-1.1-2.4-1.5c-0.8-0.3-1.5-0.6-2.2-0.8v-0.1c1-0.3,1.9-0.9,3-1.6c1-0.7,1.9-1.8,2.8-3.2c0.5-0.9,0.9-1.9,1.2-2.8
			c0.3-1,0.5-1.8,0.6-2.7c0.1-0.8,0.1-1.5,0.1-2.1c0-2.9-0.5-5.3-1.4-7.3s-2.2-3.6-4-4.9c-1.2-0.9-2.5-1.5-3.9-2.1
			c-1.4-0.5-2.8-0.9-4.3-1.1c-1.4-0.2-2.9-0.4-4.2-0.5c-1.3-0.1-2.6-0.1-3.7-0.1L219,36.8z M232.3,47.1h7.7c0.8,0,1.6,0.1,2.6,0.3
			c0.9,0.2,1.8,0.7,2.6,1.4c0.5,0.5,0.9,1.1,1.2,1.7c0.3,0.6,0.4,1.2,0.5,1.8c0.1,0.6,0.1,1.2,0.1,1.8c0,0.6-0.1,1.3-0.3,2
			c-0.2,0.7-0.6,1.3-1.1,2c-0.6,0.7-1.3,1.2-2,1.5s-1.5,0.5-2.2,0.6c-0.8,0.1-1.5,0.1-2.2,0.1h-6.7V47.1H232.3z M232.3,70.6h6.6
			c0.8,0,1.6,0,2.4,0.1s1.6,0.2,2.4,0.5s1.5,0.6,2.2,1.2c0.4,0.3,0.8,0.7,1.2,1.2c0.4,0.5,0.7,1.2,1,1.9c0.3,0.8,0.4,1.7,0.4,2.8
			c0,1.2-0.2,2.4-0.5,3.3c-0.4,1-0.9,1.8-1.5,2.5c-0.6,0.6-1.3,1.1-2,1.4s-1.5,0.5-2.2,0.6s-1.4,0.2-1.9,0.1h-8.1V70.6z"/>
		<path class="st1" d="M276.8,71.6h16.1v0.6c0,0.9,0,1.9-0.2,3c-0.1,1.1-0.4,2.3-0.8,3.6c-0.4,1.2-1,2.5-1.9,3.7
			c-1.2,1.7-2.6,2.9-4.2,3.7c-1.6,0.8-3.4,1.1-5.5,1.1c-1.9,0-3.7-0.3-5.5-0.9s-3.5-1.3-5.1-2.3c-1.6-0.9-3-2-4.3-3.1L262,91.6
			c1.5,1,3,1.9,4.5,2.6c2.4,1.2,4.8,2,7.1,2.5c2.3,0.5,4.6,0.7,6.9,0.7c2.6,0,5.2-0.2,7.6-0.8c2.4-0.5,4.7-1.4,6.9-2.7
			c2.1-1.2,4.1-2.9,5.9-5.1c1.4-1.8,2.6-3.7,3.4-5.6s1.4-3.9,1.8-5.8s0.6-3.8,0.7-5.7c0.1-1.8,0.1-3.6,0.1-5.2s0-3.4-0.1-5.2
			c-0.1-1.8-0.3-3.7-0.7-5.7c-0.4-1.9-1-3.9-1.8-5.8s-1.9-3.8-3.4-5.6c-1.8-2.1-3.7-3.8-5.9-5.1c-2.2-1.2-4.5-2.1-6.9-2.7
			c-2.4-0.5-5-0.8-7.6-0.8c-2.3,0-4.6,0.2-6.9,0.7s-4.7,1.3-7.1,2.5c-1.5,0.7-3,1.6-4.5,2.6l3.4,10.6c1.3-1.1,2.7-2.1,4.3-3.1
			c1.6-0.9,3.3-1.7,5.1-2.3c1.8-0.6,3.7-0.9,5.5-0.9c2,0,3.8,0.4,5.5,1.1c1.6,0.8,3.1,2,4.2,3.7c0.8,1.2,1.5,2.4,1.9,3.7
			c0.4,1.3,0.7,2.5,0.8,3.6c0.1,1.1,0.2,2.1,0.2,3v0.7h-16.1V71.6z"/>
		<path class="st1" d="M414.1,44.6c0.4,0.1,0.9,0.1,1.5,0.1c1,0,2.1-0.3,2.7-1c0.5-0.5,0.8-1.2,0.8-2c0-1-0.4-1.7-1-2.1
			c-0.7-0.5-1.7-0.7-2.6-0.7c-0.4,0-1,0-1.4,0.1V44.6z M421,31v2.4h-6.8v3.4c0.5-0.1,1.3-0.1,1.9-0.1c1.5,0,3.1,0.4,4.2,1.2
			c1.1,0.8,1.9,2,1.9,3.8c0,1.5-0.5,2.7-1.4,3.5c-1.4,1.3-3.7,1.8-6,1.8c-1.6,0-2.8-0.1-3.5-0.2V31.2h9.7V31z"/>
		<path class="st1" d="M432.3,40.1l-1.2-3.9c-0.3-1-0.6-2-0.8-2.9l0,0c-0.2,0.9-0.5,2-0.7,2.9l-1.2,3.9H432.3z M427.8,42.3l-1.3,4.4
			h-3l5-15.7h3.7l5.1,15.7h-3.1l-1.4-4.4H427.8z"/>
		<polygon class="st1" points="442.4,31 442.4,37.3 449.1,37.3 449.1,31 451.9,31 451.9,46.7 449.1,46.7 449.1,39.8 442.4,39.8 
			442.4,46.7 439.6,46.7 439.6,31 		"/>
		<path class="st1" d="M458.1,31v6.7h0.5l4.8-6.7h3.5l-5.7,7.1c2.3,0.4,3.2,1.9,3.9,3.9c0.6,1.7,1.1,3.2,1.8,4.7h-3.1
			c-0.5-1.1-0.9-2.4-1.3-3.6c-0.6-1.9-1.5-3.3-3.7-3.3h-0.7v6.8h-2.8V30.9h2.8V31z"/>
		<path class="st1" d="M416,63.8c0,2.1-0.2,4.1-0.7,5.7c-0.3,1-0.7,2-1.2,2.8h6v-11H416V63.8z M423,59v13.4l1.5,0.1l-0.2,6.1h-2.2
			l-0.2-3.9h-9.5l-0.2,3.9H410l-0.1-6.1l1.3-0.1c0.6-1.1,1.2-2.2,1.5-3.5c0.5-1.7,0.7-3.6,0.7-5.8V59H423z"/>
		<path class="st1" d="M438.3,59v15.7h-2.9V61.4h-4.3v4.2c0,3.8-0.3,7.2-2.7,8.6c-0.7,0.4-1.7,0.8-2.8,0.8l-0.3-2.3
			c0.7-0.1,1.3-0.4,1.7-0.8c1.1-1.1,1.3-3.6,1.3-6v-6.8h10V59z"/>
		<path class="st1" d="M449,61.2c-0.3-0.1-0.9-0.2-1.7-0.2c-1.7,0-3.2,0.7-3.2,2.5c0,1.7,1.5,2.6,3.4,2.6c0.6,0,1.1,0,1.5,0V61.2z
			 M440.3,74.6c0.3-0.5,0.5-1,0.7-1.6c0.7-1.8,1-3.8,2.3-5c0.3-0.3,0.8-0.6,1.3-0.8v-0.1c-1.8-0.3-3.4-1.6-3.4-3.8
			c0-1.4,0.6-2.5,1.5-3.3c1.1-0.9,2.8-1.2,4.8-1.2c1.5,0,3.1,0.1,4.2,0.3v15.5h-2.8v-6.4h-1.2c-0.8,0-1.4,0.2-1.9,0.7
			c-1,1-1.4,3.1-2,4.5c-0.1,0.4-0.3,0.8-0.5,1.2L440.3,74.6L440.3,74.6z"/>
		<path class="st1" d="M462.9,72.6c0.4,0,0.9,0.1,1.5,0.1c1.8,0,3.5-0.7,3.5-2.6c0-1.8-1.6-2.6-3.6-2.6h-1.4V72.6z M462.9,65.4h1.5
			c2,0,3.1-0.9,3.1-2.3c0-1.5-1.1-2.1-2.9-2.1c-0.8,0-1.3,0-1.6,0.1L462.9,65.4z M460.1,59.2c0.9-0.2,2.6-0.3,4.2-0.3
			c2.1,0,3.4,0.3,4.5,1c1,0.6,1.6,1.6,1.6,2.9c0,1.4-0.9,2.8-2.6,3.4l0,0c1.7,0.4,3.2,1.7,3.2,3.9c0,1.4-0.6,2.5-1.5,3.2
			c-1.1,1-3,1.5-5.8,1.5c-1.6,0-2.8-0.1-3.5-0.2V59.2H460.1z"/>
		<path class="st1" d="M481.2,68l-1.2-3.9c-0.3-1-0.6-2-0.8-2.9l0,0c-0.2,0.9-0.5,2-0.7,2.9l-1.2,3.9H481.2z M476.7,70.2l-1.3,4.4
			h-3l5-15.7h3.7l5.1,15.7h-3.1l-1.4-4.4H476.7z"/>
		<polygon class="st1" points="491.3,59 491.3,72.3 495.7,72.3 495.7,59 498.5,59 498.5,72.3 502.9,72.3 502.9,59 505.7,59 
			505.7,74.6 488.5,74.6 488.5,59 		"/>
		<path class="st1" d="M511.8,59v5.5c0,2.5-0.1,4.8-0.2,6.9l0,0c0.8-1.8,1.8-3.7,2.9-5.4l4.1-7h2.9v15.7h-2.7v-5.6
			c0-2.5,0-4.5,0.2-6.5l0,0c-0.7,1.8-1.8,3.7-2.8,5.4l-4,6.6H509V58.9h2.8V59z"/>
		<path class="st1" d="M533.3,74.6l-1.7-3.1c-0.7-1.2-1.1-2-1.6-3h-0.1c-0.4,0.9-0.8,1.7-1.4,3l-1.6,3.1h-3.3l4.7-7.9l-4.5-7.8h3.3
			l1.7,3.2c0.5,1,0.9,1.7,1.3,2.6l0,0c0.4-1,0.7-1.7,1.2-2.6l1.7-3.2h3.3l-4.6,7.7l4.8,8L533.3,74.6L533.3,74.6z"/>
		<path class="st1" d="M414,86.9v5.5c0,2.5-0.1,4.8-0.2,6.9l0,0c0.8-1.8,1.8-3.7,2.9-5.4l4.1-7h2.9v15.7H421V97c0-2.5,0-4.5,0.2-6.5
			l0,0c-0.7,1.8-1.8,3.7-2.8,5.4l-4,6.6h-3.2V86.8h2.8V86.9z"/>
		<polygon class="st1" points="430,86.9 430,93.2 436.6,93.2 436.6,86.9 439.5,86.9 439.5,102.6 436.6,102.6 436.6,95.7 430,95.7 
			430,102.6 427.1,102.6 427.1,86.9 		"/>
		<path class="st1" d="M445.5,86.9v5.5c0,2.5-0.1,4.8-0.2,6.9l0,0c0.8-1.8,1.8-3.7,2.9-5.4l4.1-7h2.9v15.7h-2.7V97
			c0-2.5,0-4.5,0.2-6.5l0,0c-0.7,1.8-1.8,3.7-2.8,5.4l-4,6.6h-3.2V86.8h2.8V86.9z"/>
		<polygon class="st1" points="461.5,86.9 461.5,100.2 467.8,100.2 467.8,86.9 470.6,86.9 470.6,100.3 472.1,100.4 472,106.5 
			469.7,106.5 469.6,102.6 458.6,102.6 458.6,86.9 		"/>
		<path class="st1" d="M477.1,86.9v5.5c0,2.5-0.1,4.8-0.2,6.9l0,0c0.8-1.8,1.8-3.7,2.9-5.4l4.1-7h2.9v15.7h-2.7V97
			c0-2.5,0-4.5,0.2-6.5l0,0c-0.7,1.8-1.8,3.7-2.8,5.4l-4,6.6h-3.2V86.8h2.8V86.9z"/>
		<path class="st1" d="M497.9,96l-1.2-3.9c-0.3-1-0.6-2-0.8-2.9l0,0c-0.2,0.9-0.5,2-0.7,2.9L494,96H497.9z M493.4,98.1l-1.3,4.4h-3
			l5-15.7h3.7l5.1,15.7h-3.1l-1.4-4.4H493.4z"/>
		<polygon class="st1" points="506.8,89.3 502.4,89.3 502.4,86.9 514.2,86.9 514.2,89.3 509.7,89.3 509.7,102.6 506.8,102.6 		"/>
		<path class="st1" d="M518.8,86.9v5.5c0,2.5-0.1,4.8-0.2,6.9l0,0c0.8-1.8,1.8-3.7,2.9-5.4l4.1-7h2.9v15.7h-2.7V97
			c0-2.5,0-4.5,0.2-6.5l0,0c-0.7,1.8-1.8,3.7-2.8,5.4l-4,6.6H516V86.8h2.8V86.9z"/>
		<path class="st1" d="M534.8,100.5c0.4,0,0.9,0.1,1.5,0.1c1.8,0,3.5-0.7,3.5-2.6c0-1.8-1.6-2.6-3.6-2.6h-1.4V100.5z M534.8,93.3
			h1.5c2,0,3.1-0.9,3.1-2.3c0-1.5-1.1-2.1-2.9-2.1c-0.8,0-1.3,0-1.6,0.1L534.8,93.3L534.8,93.3z M532,87.1c0.9-0.2,2.6-0.3,4.2-0.3
			c2.1,0,3.4,0.3,4.5,1c1,0.6,1.6,1.6,1.6,2.9c0,1.4-0.9,2.8-2.6,3.4l0,0c1.7,0.4,3.2,1.7,3.2,3.9c0,1.4-0.6,2.5-1.5,3.2
			c-1.1,1-3,1.5-5.8,1.5c-1.6,0-2.8-0.1-3.5-0.2V87.1H532z"/>
		<rect x="379.8" y="4.4" class="st0" width="4.1" height="124.7"/>
</svg>
