<svg xmlns="http://www.w3.org/2000/svg" viewBox="0 0 50 50"><circle class="cls-1" cx="25" cy="25" r="25"/><path fill='#fff' d="M37.1,30.52H32.4l-0.77-.77a2.44,2.44,0,0,0,.09-0.92l0.69-.18a0.39,0.39,0,0,0,.29-0.48l-0.5-2,3.48-.89A0.39,0.39,0,0,0,36,24.84l-1-4,1.3-.33A0.39,0.39,0,0,0,36.53,20l-0.74-2.93a0.4,0.4,0,0,0-.48-0.29L12.8,22.49a0.39,0.39,0,0,0,0,.75l3.36,1.34L17,28.17a0.39,0.39,0,0,0,.17.23l1.62,1.07a0.39,0.39,0,0,0,.22.07h0.1L25.31,28l0.5,2a0.4,0.4,0,0,0,.48.29L27,30a2.47,2.47,0,0,0,2.27,1.49l0.29,0,1.62,1.62a0.39,0.39,0,0,0,.28.12h5.66a0.39,0.39,0,0,0,.39-0.39V30.91A0.4,0.4,0,0,0,37.1,30.52Z"/></svg>