<svg xmlns="http://www.w3.org/2000/svg" viewBox="0 0 50 50"><circle class="cls-1" cx="25" cy="25" r="25"/><path fill='#fff' d="M37.25,13a0.85,0.85,0,0,0-.67-0.25l-3.9.29a0.85,0.85,0,1,0,.12,1.7l1.62-.12-5.71,5.72-6.64-5.63a0.85,0.85,0,0,0-1.15,0l-8.18,8.18a0.85,0.85,0,1,0,1.2,1.2l7.62-7.62,6.64,5.63a0.85,0.85,0,0,0,1.15,0l6.24-6.25L35.48,17.4a0.85,0.85,0,0,0,.78.92h0.07a0.85,0.85,0,0,0,.85-0.78l0.32-3.87A0.85,0.85,0,0,0,37.25,13Z"/><path fill='#fff' d="M20.08,22.75a0.85,0.85,0,0,0-.93.18l-3.53,3.53a0.85,0.85,0,0,0-.25.6V36.4a0.85,0.85,0,0,0,.85.85h3.53a0.85,0.85,0,0,0,.85-0.85V23.53A0.85,0.85,0,0,0,20.08,22.75Z"/><path fill='#fff' d="M23.89,22.93a0.85,0.85,0,0,0-1.45.6V36.4a0.85,0.85,0,0,0,.85.85h3.53a0.85,0.85,0,0,0,.85-0.85V27.07a0.85,0.85,0,0,0-.25-0.6Z"/><path fill='#fff' d="M34.22,22.75a0.85,0.85,0,0,0-.93.18l-3.53,3.53a0.85,0.85,0,0,0-.25.6V36.4a0.85,0.85,0,0,0,.85.85h3.53a0.85,0.85,0,0,0,.85-0.85V23.53A0.85,0.85,0,0,0,34.22,22.75Z"/></svg>