<svg xmlns="http://www.w3.org/2000/svg" viewBox="0 0 50 50"><circle class="cls-1" cx="25" cy="25" r="25"/><path fill='#fff' d="M34.54,25a1.26,1.26,0,0,1-1.21,1,0.41,0.41,0,0,0-.16.78,1.26,1.26,0,0,1,.73,1.38l-0.11.53a1.33,1.33,0,0,1-1.6,1l-0.58-.12-0.85-.17-1.13-.23-1.34-.27-1.5-.3-1.6-.32-1.64-.33-1.63-.33-1.55-.31L19,27l-1.23-.25-1-.2-0.68-.14-0.31-.06h0a1.29,1.29,0,0,1-.09.81,1.3,1.3,0,0,1-1.43.73,0.38,0.38,0,0,0-.43.19l-0.23.49a0.38,0.38,0,0,0,.13.45L32,37.49a0.38,0.38,0,0,0,.43-0.19l0.23-.49a0.38,0.38,0,0,0-.13-0.45,1.3,1.3,0,0,1,1.06-2.29,0.38,0.38,0,0,0,.43-0.19l0.23-.49a0.38,0.38,0,0,0-.13-0.45,1.3,1.3,0,0,1,1.06-2.29,0.38,0.38,0,0,0,.43-0.19L35.86,30a0.38,0.38,0,0,0-.13-0.45,1.3,1.3,0,0,1,1.06-2.29A0.38,0.38,0,0,0,37.21,27l0.25-.55a0.31,0.31,0,0,0-.15-0.42l-2.73-1.26Z"/><path fill='#fff' d="M12.75,24.83l19.81,4a0.38,0.38,0,0,0,.37-0.28L33,28a0.38,0.38,0,0,0-.24-0.41,1.3,1.3,0,0,1,.5-2.47,0.38,0.38,0,0,0,.37-0.28l0.08-.39,0-.14a0.38,0.38,0,0,0-.24-0.41,1.3,1.3,0,0,1,.5-2.47,0.38,0.38,0,0,0,.37-0.28l0.11-.53a0.38,0.38,0,0,0-.24-0.41,1.3,1.3,0,0,1,.5-2.47,0.38,0.38,0,0,0,.37-0.28l0.12-.59A0.31,0.31,0,0,0,35,16.48l-19.86-4a0.31,0.31,0,0,0-.31.25l-0.12.59a0.38,0.38,0,0,0,.24.41,1.3,1.3,0,0,1-.5,2.47,0.38,0.38,0,0,0-.37.28L14,17a0.38,0.38,0,0,0,.24.41,1.3,1.3,0,0,1-.5,2.47,0.38,0.38,0,0,0-.37.28l-0.11.53a0.38,0.38,0,0,0,.24.41,1.3,1.3,0,0,1-.5,2.47,0.38,0.38,0,0,0-.37.28l-0.11.53A0.38,0.38,0,0,0,12.75,24.83Zm16.91-6.5a0.63,0.63,0,1,1,1.24.25l-0.84,4.17-0.52,2.57a0.63,0.63,0,0,1-.62.51H28.8a0.63,0.63,0,0,1-.5-0.75l0.58-2.86ZM18.22,16a0.63,0.63,0,1,1,1.24.25l-0.29,1.44-0.33,1.63-0.26,1.31L18.11,23a0.63,0.63,0,0,1-.62.51H17.31a0.63,0.63,0,0,1-.44-0.73L17,22.29l0.25-1.23Z"/></svg>