<svg  xmlns="http://www.w3.org/2000/svg" viewBox="0 0 50 50"><circle class="cls-1" cx="25" cy="25" r="25"/><path fill='#fff' d="M14.9,20.47h3.39a1.3,1.3,0,0,0,1.3-1.3,0.94,0.94,0,0,1,.94-0.94h8.94a0.94,0.94,0,0,1,.94.94,1.3,1.3,0,0,0,1.3,1.3H35.1a1.3,1.3,0,0,0,1.3-1.3V16.65A3.67,3.67,0,0,0,32.72,13H17.28a3.67,3.67,0,0,0-3.67,3.67v2.52A1.3,1.3,0,0,0,14.9,20.47Z"/><path fill='#fff' d="M37.4,33.66l-1.65-5.8A6.66,6.66,0,0,0,30,23.07V21.53a1.77,1.77,0,0,0-3.53,0V23h-3V21.53a1.77,1.77,0,1,0-3.53,0v1.54a6.66,6.66,0,0,0-5.74,4.79l-1.65,5.8A2.64,2.64,0,0,0,15.14,37H34.86A2.64,2.64,0,0,0,37.4,33.66Zm-13.06,0a0.46,0.46,0,0,1-.46.46H21.54a0.46,0.46,0,0,1-.46-0.46V31.35a0.46,0.46,0,0,1,.46-0.46h2.34a0.46,0.46,0,0,1,.46.46v2.34Zm0-4.59a0.46,0.46,0,0,1-.46.46H21.54a0.46,0.46,0,0,1-.46-0.46V26.77a0.46,0.46,0,0,1,.46-0.46h2.34a0.46,0.46,0,0,1,.46.46v2.34Zm4.58,4.58a0.46,0.46,0,0,1-.46.46H26.12a0.46,0.46,0,0,1-.46-0.46V31.35a0.46,0.46,0,0,1,.46-0.46h2.34a0.46,0.46,0,0,1,.46.46v2.34Zm0-4.58a0.46,0.46,0,0,1-.46.46H26.12a0.46,0.46,0,0,1-.46-0.46V26.77a0.46,0.46,0,0,1,.46-0.46h2.34a0.46,0.46,0,0,1,.46.46v2.34Z"/></svg>