<svg xmlns="http://www.w3.org/2000/svg" viewBox="0 0 50 50"><circle class="cls-1" cx="25" cy="25" r="25"/><path fill='#fff' d="M27.93,23.1c1.92-1.29,4.32-2.9,4.32-6.11a4.49,4.49,0,0,0-4.49-4.49,4.44,4.44,0,0,0-2.76.95,4.44,4.44,0,0,0-2.76-.95A4.49,4.49,0,0,0,17.75,17c0,3.23,2.38,4.83,4.29,6.11,1.07,0.72,2.09,1.4,2.34,2.17a0.65,0.65,0,0,0,.62.45h0a0.65,0.65,0,0,0,.62-0.47C25.84,24.5,26.85,23.82,27.93,23.1Zm-5.6-8.63a2.9,2.9,0,0,0-2.18,2.76,2.72,2.72,0,0,0,.3,1.25,0.25,0.25,0,0,1-.36.32,2.65,2.65,0,0,1-1.21-2.2,2.76,2.76,0,0,1,2.83-2.68,3,3,0,0,1,.59.06A0.25,0.25,0,0,1,22.33,14.47Z"/><path fill='#fff' d="M23.07,33.72c-0.09-.23-0.2-0.46-0.31-0.68A12.18,12.18,0,0,0,20,29.72c-0.28-.26-0.63-0.67-1-1.1a10.22,10.22,0,0,0-1.5-1.53,0.61,0.61,0,0,0-.84,0c-0.31.31-.22,0.89,0.29,1.88,0.34,0.66.84,1.44,1.36,2.26l0.26,0.4a13.48,13.48,0,0,1-2-2.76c-0.48-.93-0.58-1.65-0.28-2a1.06,1.06,0,0,1,1.15-.19l0.08,0,0-.08s-1-4.11-1.19-4.88a2.41,2.41,0,0,0-.19-0.49A1.16,1.16,0,0,0,15,20.43c-0.16,0-.43.23-0.39,1l0.51,6.42c0,0.21,0,.43.06,0.66a5.5,5.5,0,0,0,.41,2,3.52,3.52,0,0,0,.43.65c0.3,0.36,1.14,1.23,2,2.16s1.76,1.83,2.08,2.22a5.51,5.51,0,0,1,.68,1,8.34,8.34,0,0,1,.42,1h3.12l0-.16A37.32,37.32,0,0,0,23.07,33.72Z"/><path fill='#fff' d="M35,20.43a1.16,1.16,0,0,0-1.07.79,2.42,2.42,0,0,0-.19.49c-0.21.77-1.18,4.84-1.19,4.88l0,0.08,0.08,0a1.06,1.06,0,0,1,1.15.19c0.3,0.38.21,1.1-.28,2a13.48,13.48,0,0,1-2,2.76l0.26-.4c0.53-.82,1-1.6,1.36-2.26,0.51-1,.6-1.57.29-1.88a0.61,0.61,0,0,0-.84,0A10.22,10.22,0,0,0,31,28.62c-0.38.43-.73,0.84-1,1.1A12.18,12.18,0,0,0,27.24,33c-0.11.22-.22,0.45-0.31,0.68a37.33,37.33,0,0,0-1.26,3.62l0,0.16h3.12a8.34,8.34,0,0,1,.42-1,5.51,5.51,0,0,1,.68-1c0.33-.39,1.22-1.32,2.08-2.22s1.73-1.8,2-2.16a3.52,3.52,0,0,0,.43-0.65,5.5,5.5,0,0,0,.41-2c0-.23,0-0.45.06-0.66l0.51-6.42C35.4,20.66,35.13,20.47,35,20.43Z"/></svg>