<svg xmlns="http://www.w3.org/2000/svg" viewBox="0 0 50 50"><circle class="cls-1" cx="25" cy="25" r="25"/><path fill='#fff' d="M22.79,17.66H22.45a0.69,0.69,0,0,0-.72.66v2.79h1.78V18.32A0.69,0.69,0,0,0,22.79,17.66Z"/><path fill='#fff' d="M27.55,17.66H27.21a0.69,0.69,0,0,0-.72.66v2.79h1.78V18.32A0.69,0.69,0,0,0,27.55,17.66Z"/><path fill='#fff' d="M25,12.78a12.5,12.5,0,0,0-3.89,24.38,1.2,1.2,0,1,0,.75-2.29,10.13,10.13,0,0,1-4-2.48,10.09,10.09,0,1,1,14.29,0c-0.73.66-2.55,2-3.64,2a1.65,1.65,0,0,1-1.32-.55c-0.86-1-1.05-2.9-1-4.26a4,4,0,0,0,3.75-3.94V21.89H20.1v3.75a4,4,0,0,0,3.63,3.94c0,1.61.21,4.26,1.66,5.87A4.06,4.06,0,0,0,28.5,36.8c2.33,0,5-2.35,5.27-2.62l0,0A12.5,12.5,0,0,0,25,12.78Z"/></svg>