<svg xmlns="http://www.w3.org/2000/svg" viewBox="0 0 50 50"><circle class="cls-1" cx="25" cy="25" r="25"/><path fill='#fff' d="M37,21.3H35.13a0.54,0.54,0,0,0-.37.15l-0.39.37a19.51,19.51,0,0,0-2.88-4.6,3.61,3.61,0,0,0-2.8-1.33H21.33a3.61,3.61,0,0,0-2.8,1.33,19.06,19.06,0,0,0-2.89,4.59l-0.39-.37a0.54,0.54,0,0,0-.37-0.15H13a0.54,0.54,0,0,0-.54.54v1.25a0.54,0.54,0,0,0,.51.54l1.88,0.12a12,12,0,0,0-.51,3.82,4.88,4.88,0,0,0,.83,3.16v2.92a0.45,0.45,0,0,0,.45.45h2.09a0.45,0.45,0,0,0,.45-0.45V31.84H31.79v1.81a0.45,0.45,0,0,0,.45.45h2.09a0.45,0.45,0,0,0,.45-0.45V30.73a4.88,4.88,0,0,0,.83-3.16,12,12,0,0,0-.51-3.82L37,23.63a0.54,0.54,0,0,0,.51-0.54V21.84A0.54,0.54,0,0,0,37,21.3ZM20.07,18.49a1.62,1.62,0,0,1,1.26-.6h7.34a1.62,1.62,0,0,1,1.26.6,18.87,18.87,0,0,1,2.15,3.18H17.91A19,19,0,0,1,20.07,18.49ZM18.53,29.62c-1,0-1.88-.34-1.88-1.16A1.26,1.26,0,0,1,18,27c1,0,2.42.67,2.42,1.49S19.57,29.62,18.53,29.62ZM27,29.45H23A1.08,1.08,0,0,1,22,28.37a0.3,0.3,0,0,1,.3-0.3h5.49a0.3,0.3,0,0,1,.3.3A1.08,1.08,0,0,1,27,29.45Zm4.5,0.17c-1,0-1.88-.34-1.88-1.16S31,27,32,27a1.26,1.26,0,0,1,1.34,1.49C33.35,29.28,32.51,29.62,31.47,29.62Z"/></svg>