<svg xmlns="http://www.w3.org/2000/svg" viewBox="0 0 50 50"><g id="Layer_44" data-name="Layer 44"><circle class="cls-1" cx="25" cy="25" r="25"/></g><g id="Layer_42" data-name="Layer 42"><path fill='#fff' d="M27.6,23.5a2.65,2.65,0,0,0-.5-0.6,3.77,3.77,0,0,1-2.1.7,3.14,3.14,0,0,1-2.1-.7c-0.2.2-.3,0.4-0.5,0.6A4.63,4.63,0,0,0,27.6,23.5Z"/><path fill='#fff' d="M28,25V24.6H22v0.8h6V25Z"/><path fill='#fff' d="M22.4,26.5a2.65,2.65,0,0,0,.5.6,3.77,3.77,0,0,1,2.1-.7,3.14,3.14,0,0,1,2.1.7c0.2-.2.3-0.4,0.5-0.6a4.46,4.46,0,0,0-2.6-.8A5,5,0,0,0,22.4,26.5Z"/><path fill='#fff' d="M36.4,36.4H13.6V13.6h1.5V25.1A10,10,0,1,0,25.2,15H25v4.4h0.2A5.6,5.6,0,0,1,25,30.6a5.7,5.7,0,0,1-5.6-5.5V13.6h17V36.4ZM12.5,12.5v25h25v-25h-25Z"/><path fill='#fff' d="M25,21.2A3.8,3.8,0,0,1,28.8,25,3.71,3.71,0,0,1,25,28.7,3.78,3.78,0,0,1,21.2,25,3.93,3.93,0,0,1,25,21.2Zm0,8.3A4.5,4.5,0,1,0,20.5,25,4.48,4.48,0,0,0,25,29.5Z"/></g></svg>