<svg xmlns="http://www.w3.org/2000/svg" viewBox="0 0 50.5 50.5"><circle id="Эллипс_1" data-name="Эллипс 1" class="cls-1" cx="25.25" cy="25.25" r="25.25"/><path fill='#fff' d="M8.33,28.72a.71.71,0,0,0,.71.71h.7a.71.71,0,0,0,.71.71h2.41a3.55,3.55,0,0,0,6.52,0H33a3.56,3.56,0,0,0,6.52,0h.9a.71.71,0,0,0,.71-.64v-.08h.36a.71.71,0,0,0,0-1.42H41a6.93,6.93,0,0,0-1.66-3.47c-2.13-2.4-6.57-2.7-8.25-2.73-1.15-2.31-1.58-2.56-1.72-2.65-1.07-.63-3.12-.94-6.28-.94-4.87,0-8.74,2.15-11.82,6.14A9.87,9.87,0,0,0,10,28H9A.71.71,0,0,0,8.33,28.72Zm25.76,0a2.14,2.14,0,1,1,2.14,2.14A2.14,2.14,0,0,1,34.09,28.72ZM23.6,22.57V20.41a.36.36,0,0,1,.35-.36h.37c2.26,0,3.78.23,4.53.71a8.53,8.53,0,0,1,1,1.66.35.35,0,0,1,0,.34.36.36,0,0,1-.3.17H24a.36.36,0,0,1-.36-.36Zm-1.07.36H17.63a.36.36,0,0,1-.3-.55c.73-1.09,2.65-1.92,5.16-2.22a.35.35,0,0,1,.28.09.36.36,0,0,1,.12.27v2.06A.36.36,0,0,1,22.54,22.93ZM14,28.72a2.14,2.14,0,1,1,2.14,2.14A2.14,2.14,0,0,1,14,28.72Z"/></svg>