<svg xmlns="http://www.w3.org/2000/svg" viewBox="0 0 50 50"><circle class="cls-1" cx="25" cy="25" r="25"/><path fill='#fff' d="M37.5,22.75a0.59,0.59,0,0,0-.05-0.28l-3.8-8.23h0v0l0-.07,0,0-0.06-.06h0L33.41,14h0l-0.07,0h0l-0.1,0H33l-6.77,1.8V15.1a1.18,1.18,0,1,0-2.37,0v1.25l-7.07,1.88h0l-0.1,0h0l-0.07,0,0,0-0.07.07h0l-0.06.08v0l0,0-3.8,8.23a0.59,0.59,0,0,0-.05.26s0,0,0,.06a4.4,4.4,0,0,0,8.79,0v0a0.59,0.59,0,0,0-.05-0.28L17.73,19.2l6.09-1.62v12.8a3.53,3.53,0,0,1-3.52,3.52,1.6,1.6,0,0,0-1.6,1.6,0.59,0.59,0,0,0,.59.59H30.71a0.6,0.6,0,0,0,.59-0.6,1.6,1.6,0,0,0-1.6-1.6,3.53,3.53,0,0,1-3.52-3.52V16.95L32,15.39l-3.28,7.09a0.59,0.59,0,0,0-.05.26s0,0,0,.06a4.4,4.4,0,0,0,8.79,0v0ZM14,26.45l2.88-6.23,2.88,6.23H14ZM33.1,15.9L36,22.14H30.22Z"/></svg>