<svg xmlns="http://www.w3.org/2000/svg" viewBox="0 0 50 50"><circle class="cls-1" cx="25" cy="25" r="25"/><path fill='#fff' d="M25,15.69a21.38,21.38,0,0,1-7.91,3.55C16.52,29.18,25,34.33,25,34.32s8.48-5.14,7.91-15.09A22.4,22.4,0,0,1,25,15.69Z"/><path fill='#fff' d="M35.71,17.63A0.66,0.66,0,0,0,35.18,17a28,28,0,0,1-9.78-4.39,0.66,0.66,0,0,0-.8,0A26.55,26.55,0,0,1,14.82,17a0.66,0.66,0,0,0-.53.61,21.56,21.56,0,0,0,6.16,16.22,25.27,25.27,0,0,0,2.92,2.65c0.4,0.31.73,0.54,0.93,0.67a1.23,1.23,0,0,0,.69.33h0a1.15,1.15,0,0,0,.65-0.3c0.18-.12.46-0.32,0.82-0.58a24.92,24.92,0,0,0,2.62-2.3,23.69,23.69,0,0,0,4.65-6.55A20.67,20.67,0,0,0,35.71,17.63Zm-5.82,13.8A23.29,23.29,0,0,1,25,36a23.28,23.28,0,0,1-4.89-4.61,19.68,19.68,0,0,1-4.52-13.22A28.33,28.33,0,0,0,25,14a29.08,29.08,0,0,0,9.41,4.23A19.68,19.68,0,0,1,29.89,31.43Z"/></svg>