<svg xmlns="http://www.w3.org/2000/svg" viewBox="0 0 50 50"><circle class="cls-1" cx="25" cy="25" r="25"/><path fill='#fff' d="M37.5,28.49A0.93,0.93,0,0,0,37,27.65V21.86a0.18,0.18,0,0,0,0-.33L25,17.32a0.71,0.71,0,0,0-.47,0L12.62,21.53a0.18,0.18,0,0,0,0,.33L24.53,26.5a0.72,0.72,0,0,0,.52,0l11.1-4.32v5.47a0.93,0.93,0,0,0,0,1.71,7.78,7.78,0,0,0-.57,2.42,0.94,0.94,0,0,0,1.88,0,7.8,7.8,0,0,0-.57-2.42A0.94,0.94,0,0,0,37.5,28.49Z"/><path fill='#fff' d="M16.35,24.2c0,1.33,0,2.91,0,3.15,0,2.48,3.74,4.51,8.44,4.63,4.7-.13,8.44-2.15,8.44-4.63,0-.25,0-1.82,0-3.15L25,27.39a0.71,0.71,0,0,1-.52,0Z"/></svg>