<svg xmlns="http://www.w3.org/2000/svg" viewBox="0 0 50 50"><circle class="cls-1" cx="25" cy="25" r="25"/><path fill='#fff' d="M37.48,35.78l-2.38-8.3a0.6,0.6,0,0,0-.57-0.43h-1v4.25a1.79,1.79,0,0,1-1.78,1.78H18.28a1.79,1.79,0,0,1-1.78-1.78h0V27.05h-1a0.6,0.6,0,0,0-.57.43l-2.38,8.3a0.59,0.59,0,0,0,.57.76H36.91A0.59,0.59,0,0,0,37.48,35.78Z"/><path fill='#fff' d="M16.65,22.7L25,15.53l8.34,7.17a0.89,0.89,0,1,0,1.16-1.35l-8.92-7.67a0.89,0.89,0,0,0-1.16,0l-8.92,7.67A0.89,0.89,0,1,0,16.65,22.7Z"/><path fill='#fff' d="M24.61,16.66l-6.72,5.8a0.6,0.6,0,0,0-.21.45v8.39a0.59,0.59,0,0,0,.59.59H31.72a0.59,0.59,0,0,0,.6-0.59V22.92a0.6,0.6,0,0,0-.21-0.45l-6.72-5.8A0.6,0.6,0,0,0,24.61,16.66ZM24.4,29.27a0.6,0.6,0,0,1-.59.6H21.72a0.6,0.6,0,0,1-.6-0.6V27.18a0.6,0.6,0,0,1,.6-0.59H23.8a0.59,0.59,0,0,1,.59.59v2.08Zm0-4.46a0.59,0.59,0,0,1-.59.6H21.72a0.6,0.6,0,0,1-.6-0.6V22.72a0.6,0.6,0,0,1,.6-0.6H23.8a0.59,0.59,0,0,1,.59.6V24.8Zm1.19-2.08a0.59,0.59,0,0,1,.6-0.6h2.08a0.59,0.59,0,0,1,.59.6V24.8a0.59,0.59,0,0,1-.59.6H26.18a0.59,0.59,0,0,1-.6-0.6V22.72Zm0,4.46a0.59,0.59,0,0,1,.6-0.59h2.08a0.59,0.59,0,0,1,.59.59v2.08a0.6,0.6,0,0,1-.59.6H26.18a0.59,0.59,0,0,1-.6-0.6V27.18Z"/></svg>