<svg xmlns="http://www.w3.org/2000/svg" viewBox="0 0 50 50"><circle class="cls-1" cx="25" cy="25" r="25"/><path fill='#fff' d="M28.32,26.77A3.32,3.32,0,1,1,25,23.45,3.31,3.31,0,0,1,28.32,26.77Zm6.79-8.31a2.4,2.4,0,0,1,2.4,2.4V32.47A2.56,2.56,0,0,1,34.94,35H15.06a2.56,2.56,0,0,1-2.56-2.56V20.85h0a2.4,2.4,0,0,1,2.4-2.4h4.79l0.23-1A3.27,3.27,0,0,1,23.1,15h3.8a3.27,3.27,0,0,1,3.18,2.53l0.22,1H35.1ZM17.5,21.92a1.2,1.2,0,1,0-1.21,1.2A1.2,1.2,0,0,0,17.5,21.92Zm13.41,4.85A5.91,5.91,0,1,0,25,32.68,5.92,5.92,0,0,0,30.91,26.77Z"/></svg>