<svg xmlns="http://www.w3.org/2000/svg" viewBox="0 0 50 50"><circle class="cls-1" cx="25" cy="25" r="25"/><path fill='#fff' d="M29.18,16.9a5.93,5.93,0,0,0-3-1.25,2.89,2.89,0,0,1,.38-1.21,3.56,3.56,0,0,1,2.69-1.89l0.16,0h0.73c0.25,0.06.5,0.11,0.75,0.2a3.65,3.65,0,0,1,.19,6.84l-0.9-1.67"/><path fill='#fff' d="M15.56,36.48l-3-6.57,0.65-.3c1.29-.54,2.57-1.11,3.87-1.62a3.31,3.31,0,0,1,2.34-.18,7.4,7.4,0,0,1,1.54.78c0.85,0.56,1.67,1.17,2.5,1.76a5.2,5.2,0,0,0,2.53.89c0.59,0.06,1.19,0,1.78.1a2.92,2.92,0,0,1,1,.25A0.77,0.77,0,0,1,28.83,33a2.74,2.74,0,0,1-1.54.41c-1.21,0-2.41,0-3.62,0a8.35,8.35,0,0,1-2.38-.51l-0.83-.27,0,0.06c0.32,0.27.63,0.55,1,.8a5,5,0,0,0,2.13,1,2.59,2.59,0,0,0,.44,0c1.22,0,2.45,0,3.67,0A3.45,3.45,0,0,0,29.26,34a1.85,1.85,0,0,0,1-2.08,1.69,1.69,0,0,0-1.57-1.45c-0.8-.12-1.62-0.12-2.43-0.18l-0.7,0a0.26,0.26,0,0,1,0-.08c0.94-.55,1.88-1.11,2.84-1.63a3.06,3.06,0,0,1,1-.3,1.29,1.29,0,0,1,1.11.45L30.83,29a2.47,2.47,0,0,1,1.45-.72,3.25,3.25,0,0,1,1,0,0.9,0.9,0,0,1,.72,1s0,0.09,0,.14c0.38-.17.74-0.35,1.11-0.48a2,2,0,0,1,1.53,0,1.1,1.1,0,0,1,.45,1.82,4.58,4.58,0,0,1-1,.91c-3,1.8-6,3.57-8.94,5.38a3.1,3.1,0,0,1-2.73.31,48.15,48.15,0,0,1-4.93-1.79,2.48,2.48,0,0,0-1.71-.22,4,4,0,0,0-.84.37C16.44,35.93,16,36.2,15.56,36.48Z"/><path fill='#fff' d="M30.25,21.38a4.69,4.69,0,1,1-4.67-4.7A4.68,4.68,0,0,1,30.25,21.38Z"/></svg>