<svg xmlns="http://www.w3.org/2000/svg" viewBox="0 0 50 50"><circle class="cls-1" cx="25" cy="25" r="25"/><path fill='#fff' d="M13.29,25.11h8l1.26-5.95a0.64,0.64,0,0,1,1.26,0l1.05,6.7,0.66-2.09a0.64,0.64,0,0,1,1.17-.12l0.92,1.63,9-.07a7.56,7.56,0,0,0,.76-2.32,8,8,0,0,0-1.63-6.35,6.42,6.42,0,0,0-5.05-2.19A6.93,6.93,0,0,0,25,17.53a6.93,6.93,0,0,0-5.71-3.14,6.42,6.42,0,0,0-5.05,2.19,8,8,0,0,0-1.63,6.35A7.55,7.55,0,0,0,13.29,25.11Z"/><path fill='#fff' d="M27.27,26.6a0.65,0.65,0,0,1-.56-0.33l-0.38-.68-1,3.29a0.64,0.64,0,0,1-.61.45h0A0.64,0.64,0,0,1,24,28.8l-0.94-6-0.65,3.06a0.64,0.64,0,0,1-.63.51H14.07A18.7,18.7,0,0,0,19.83,31a21.21,21.21,0,0,1,2.4,1.56c2.24,1.83,2.44,2.75,2.45,2.79a0.32,0.32,0,0,0,.32.29,0.31,0.31,0,0,0,.32-0.29s0.18-.93,2.45-2.79A21.21,21.21,0,0,1,30.17,31a19.15,19.15,0,0,0,5.65-4.45Z"/></svg>