<svg xmlns="http://www.w3.org/2000/svg" viewBox="0 0 50 50"><circle class="cls-1" cx="25" cy="25" r="25"/><path fill='#fff' d="M34.43,14.69H33.73V13.3a0.8,0.8,0,0,0-.8-0.8H20.68a0.8,0.8,0,0,0-.8.8v4.38a0.8,0.8,0,0,0,.8.8H32.94a0.8,0.8,0,0,0,.8-0.8v-1.4h0.69A0.8,0.8,0,0,0,34.43,14.69Z"/><path fill='#fff' d="M29,35.25L28.8,28.12a0.8,0.8,0,0,0-.8-0.77H27.6V26.09a0.8,0.8,0,0,0-.39-0.68l-10-6a1.67,1.67,0,0,1,.86-3.1h0.15V14.69H18a3.26,3.26,0,0,0-1.68,6.06L26,26.54v0.8h-0.4a0.8,0.8,0,0,0-.8.77l-0.22,7.13a2.19,2.19,0,0,0,2.18,2.25h0.07A2.19,2.19,0,0,0,29,35.25Z"/></svg>