<svg xmlns="http://www.w3.org/2000/svg" viewBox="0 0 50 50"><circle class="cls-1" cx="25" cy="25" r="25"/><path fill='#fff' d="M30.19,34.8l-0.35,1.43q-1.57.62-2.51,0.94a6.62,6.62,0,0,1-2.18.33,4.34,4.34,0,0,1-3-.93,3,3,0,0,1-1.06-2.36,8.34,8.34,0,0,1,.08-1.13q0.08-.58.26-1.31l1.31-4.64q0.17-.67.29-1.26a5.48,5.48,0,0,0,.12-1.09,1.68,1.68,0,0,0-.37-1.24,2.07,2.07,0,0,0-1.4-.35,3.67,3.67,0,0,0-1,.16c-0.36.11-.66,0.21-0.92,0.3l0.35-1.43q1.29-.52,2.46-0.9A7.36,7.36,0,0,1,24.52,21a4.24,4.24,0,0,1,2.91.91,3,3,0,0,1,1,2.37c0,0.2,0,.56-0.07,1.06a7.11,7.11,0,0,1-.26,1.4l-1.3,4.62a12.26,12.26,0,0,0-.29,1.27,6.55,6.55,0,0,0-.13,1.08,1.55,1.55,0,0,0,.41,1.25,2.32,2.32,0,0,0,1.43.33,4.12,4.12,0,0,0,1.08-.17A6,6,0,0,0,30.19,34.8Zm0.33-19.38a2.7,2.7,0,0,1-.91,2.06,3.11,3.11,0,0,1-2.2.85,3.14,3.14,0,0,1-2.21-.85,2.76,2.76,0,0,1,0-4.12,3.26,3.26,0,0,1,4.4,0A2.73,2.73,0,0,1,30.52,15.42Z"/></svg>