<svg xmlns="http://www.w3.org/2000/svg" viewBox="0 0 50 50"><circle class="cls-1" cx="25" cy="25" r="25"/><path fill='#fff' d="M23.28,32.11L25,33.83l1.72-1.72A2.51,2.51,0,0,0,25,31.33,2.24,2.24,0,0,0,23.28,32.11Z"/><path fill='#fff' d="M25,18.67A15.65,15.65,0,0,1,35.78,23l1.72-1.72a17.73,17.73,0,0,0-25,0L14.22,23A15.65,15.65,0,0,1,25,18.67Z"/><path fill='#fff' d="M16.09,24.92l1.72,1.72A10.58,10.58,0,0,1,25,23.83a10,10,0,0,1,7.19,3l1.72-1.72A11.82,11.82,0,0,0,25,21.17,12.26,12.26,0,0,0,16.09,24.92Z"/><path fill='#fff' d="M19.69,28.52l1.72,1.72A5,5,0,0,1,25,28.83a5.69,5.69,0,0,1,3.59,1.41l1.72-1.72A7.18,7.18,0,0,0,25,26.33,7.18,7.18,0,0,0,19.69,28.52Z"/></svg>