<svg xmlns="http://www.w3.org/2000/svg" viewBox="0 0 50 50"><circle class="cls-1" cx="25" cy="25" r="25"/><path fill='#fff' d="M36.89,14.78a2,2,0,0,0-1.47-.61H14.58a2.09,2.09,0,0,0-2.08,2.08V30.42a2.09,2.09,0,0,0,2.08,2.08h7.08a2.72,2.72,0,0,1-.21,1,9.21,9.21,0,0,1-.42.91,1.44,1.44,0,0,0-.21.57,0.85,0.85,0,0,0,.83.83h6.67A0.85,0.85,0,0,0,29.17,35,1.49,1.49,0,0,0,29,34.43a9.55,9.55,0,0,1-.42-0.92,2.74,2.74,0,0,1-.21-1h7.08a2.09,2.09,0,0,0,2.08-2.08V16.25A2,2,0,0,0,36.89,14.78Zm-1.05,12.3a0.42,0.42,0,0,1-.42.42H14.58a0.42,0.42,0,0,1-.42-0.42V16.25a0.42,0.42,0,0,1,.42-0.42H35.42a0.42,0.42,0,0,1,.42.42V27.08h0Z"/></svg>