<svg xmlns="http://www.w3.org/2000/svg" viewBox="0 0 50 50"><circle class="cls-1" cx="25" cy="25" r="25"/><path fill='#fff' d="M22.76,16.08l-1.33-1.33L22,14.19l1.33,1.33ZM26.95,17a2,2,0,0,0-3.9,0h3.9Zm1.63-2.18L28,14.28l-1.33,1.33,0.56,0.56ZM25.4,13H24.6v1.88h0.8V13ZM37.5,27.92A5.25,5.25,0,0,1,36,31.8V35H32V33H18V35H14V31.8a5.25,5.25,0,0,1-1.49-3.87A4.9,4.9,0,0,1,15,23.33c0.46-3.38,2.32-5.85,4.62-5.85H30.37c2.3,0,4.16,2.46,4.62,5.85A4.9,4.9,0,0,1,37.5,27.92Zm-21.19-5a6.1,6.1,0,0,1,1.11-.1h10.4a2.55,2.55,0,1,1,5.1,0h0a6,6,0,0,1,.78.09c-0.49-2.43-1.81-4.22-3.33-4.22H19.64C18.12,18.68,16.8,20.47,16.31,22.89ZM30.37,21a1.76,1.76,0,0,0-1.76,1.76h3.51A1.76,1.76,0,0,0,30.37,21ZM18.49,27.92a1.67,1.67,0,1,0-1.67,1.67A1.67,1.67,0,0,0,18.49,27.92Zm11.75,1a0.4,0.4,0,0,0-.4-0.4H20.16a0.4,0.4,0,0,0,0,.8h9.68A0.4,0.4,0,0,0,30.24,28.89Zm0-1.46a0.4,0.4,0,0,0-.4-0.4H20.16a0.4,0.4,0,0,0,0,.8h9.68A0.4,0.4,0,0,0,30.24,27.43Zm4.61,0.49a1.67,1.67,0,1,0-1.67,1.67A1.67,1.67,0,0,0,34.85,27.92Z"/></svg>