<svg xmlns="http://www.w3.org/2000/svg" viewBox="0 0 50 50"><circle class="cls-1" cx="25" cy="25" r="25"/><path fill='#fff' d="M34.72,12.5H15.28a2.79,2.79,0,0,0-2.78,2.78V34.72a2.79,2.79,0,0,0,2.78,2.78H34.72a2.79,2.79,0,0,0,2.78-2.78V15.28A2.79,2.79,0,0,0,34.72,12.5ZM21.94,26.94v5h-2.5V18.06h6c2.08,0,3.06.42,3.89,1.25a3.91,3.91,0,0,1,1.25,3.19,4,4,0,0,1-1.25,3.19,5.41,5.41,0,0,1-3.89,1.11H21.94v0.14Z"/><path fill='#fff' d="M21.94,25V20h3.19a2.44,2.44,0,0,1,2.08.83,2.56,2.56,0,0,1,.69,1.67,2.64,2.64,0,0,1-.69,1.81,2.52,2.52,0,0,1-1.94.69H21.94Z"/></svg>