<svg xmlns="http://www.w3.org/2000/svg" viewBox="0 0 50 50"><circle class="cls-1" cx="25" cy="25" r="25"/><path fill='#fff' d="M35.76,29.24V34a3.52,3.52,0,0,1-3.51,3.51H17.75A3.52,3.52,0,0,1,14.24,34V16a3.52,3.52,0,0,1,3.51-3.51h14.5A3.52,3.52,0,0,1,35.76,16v4.75H34V16a1.75,1.75,0,0,0-1.75-1.75H31.4A3.49,3.49,0,0,1,31.87,16v4.74H28.72a4.24,4.24,0,1,0,0,8.48h3.15V34a3.49,3.49,0,0,1-.47,1.75h0.85A1.75,1.75,0,0,0,34,34V29.24h1.77ZM34,27.47H28.72a2.47,2.47,0,1,1,0-4.95h7v4.95H34ZM30,25a1.2,1.2,0,1,0-1.2,1.2A1.2,1.2,0,0,0,30,25Z"/></svg>