<svg xmlns="http://www.w3.org/2000/svg" viewBox="0 0 50 50"><circle class="cls-1" cx="25" cy="25" r="25"/><path fill='#fff' d="M33.65,15.45a4.91,4.91,0,0,0-5.55,2.73l4.61,6.9a4.89,4.89,0,0,0,4.68-3.84A5,5,0,0,0,33.65,15.45Z"/><path fill='#fff' d="M19.49,25.94c-2.06,1.74-4.14,3.46-6.18,5.24a1.87,1.87,0,0,0-.5,2.57,1.74,1.74,0,0,0,2.5.65c2.42-1.35,4.84-2.72,7.28-4.1l-3-4.46Z"/><polygon fill='#fff' points="31.18 24.88 27.7 19.68 25.69 16.67 18.21 21.63 20.51 25.08 23.61 29.71 25.66 32.77 33.14 27.81 31.18 24.88"/></svg>