<svg xmlns="http://www.w3.org/2000/svg" viewBox="0 0 50 50"><circle class="cls-1" cx="25" cy="25" r="25"/><path fill='#fff' d="M37.37,31.49a0.84,0.84,0,0,0-.71-0.39H13.34a0.84,0.84,0,0,0-.76,1.2l1.09,2.36a4,4,0,0,0,3.6,2.3H32.72a4,4,0,0,0,3.6-2.3l1.09-2.36A0.84,0.84,0,0,0,37.37,31.49Z"/><path fill='#fff' d="M13.89,30h12.5a0.84,0.84,0,0,0,.84-0.84V13.89a0.84,0.84,0,0,0-1.49-.53L13.24,28.63A0.84,0.84,0,0,0,13.89,30Z"/><path fill='#fff' d="M29.17,30h6.94a0.84,0.84,0,0,0,.77-1.19L29.93,13.54a0.84,0.84,0,0,0-1.61.35V29.17A0.84,0.84,0,0,0,29.17,30Z"/></svg>