<svg xmlns="http://www.w3.org/2000/svg" viewBox="0 0 50 50"><circle class="cls-1" cx="25" cy="25" r="25"/><path fill='#fff' d="M25,25c2.19,0,3.9-2.27,3.9-4.63V19.65a3.9,3.9,0,1,0-7.79,0v0.74C21.1,22.74,22.81,25,25,25Zm-7.81.76a2.67,2.67,0,0,0,2.34-2.5V22a2.35,2.35,0,1,0-4.68,0v1.25A2.7,2.7,0,0,0,17.19,25.77Zm14,3.13v0a3,3,0,0,0-.09-0.43h0a2.67,2.67,0,0,0-.43-0.87h0A5,5,0,0,0,29,26.14a1.85,1.85,0,0,0-.9-0.36,2.51,2.51,0,0,0-1.44.92h0l-0.58.53a2.28,2.28,0,0,1-1.11.9,2.28,2.28,0,0,1-1.11-.9l-0.58-.53h0a2.51,2.51,0,0,0-1.44-.92,1.69,1.69,0,0,0-.9.36,5.87,5.87,0,0,0-1.68,1.41h0a2.67,2.67,0,0,0-.42.87h0a3.1,3.1,0,0,0-.08.43v0a4.33,4.33,0,0,0,0,.48s0,3.42,0,3.44a1.32,1.32,0,0,0,1.56,1.56h9.37a1.31,1.31,0,0,0,1.56-1.56s0-3.42,0-3.44A4.39,4.39,0,0,0,31.22,28.9Zm1.6-3.13a2.67,2.67,0,0,0,2.34-2.5V22a2.35,2.35,0,1,0-4.68,0v1.25A2.7,2.7,0,0,0,32.82,25.77ZM14.28,27.46a3.38,3.38,0,0,0-1.78,3s0,1.55,0,1.56a1.3,1.3,0,0,0,1.56,1.56h3.12V28.91l-0.78-.78C15.58,27.4,14.88,27.12,14.28,27.46Zm2.91,1.44s0-.37,0,0h0ZM37.5,30.47a3.38,3.38,0,0,0-1.78-3c-0.61-.34-1.3-0.07-2.13.66l-0.78.78v4.69h3.12A1.3,1.3,0,0,0,37.5,32S37.5,30.48,37.5,30.47Zm-4.69-1.56c0-.37,0,0,0,0h0Z"/></svg>