<svg xmlns="http://www.w3.org/2000/svg" viewBox="0 0 50 50"><circle class="cls-1" cx="25" cy="25" r="25"/><path fill='#fff' d="M30.69,22.56C28.26,19.39,26,17.25,25.75,13a0.37,0.37,0,0,0-.12-0.29,0.29,0.29,0,0,0-.45-0.21,0.43,0.43,0,0,0-.45.45c-5.19,5.6-14,19.81-2.92,23.89,5,1.85,10.63-.66,11.62-6.1C33.95,27.87,32.42,24.78,30.69,22.56Zm-8.86,11.7a5.77,5.77,0,0,1-2.31-3.34,5.7,5.7,0,0,1-.21-1.85,27.41,27.41,0,0,1,.95-3.13,5.77,5.77,0,0,0,1.19,2.47c1.32,1.44,4,2.31,4.74,4.12,0.45,1.11-1.32,2.06-2.06,2.31A2.94,2.94,0,0,1,21.84,34.26Z"/></svg>