<svg xmlns="http://www.w3.org/2000/svg" viewBox="0 0 20 20"><path d="M0,10A10,10,0,1,0,10,0,10.01134,10.01134,0,0,0,0,10Zm0.44446,0A9.55554,9.55554,0,1,1,10,19.55554,9.56632,9.56632,0,0,1,.44446,10Z" fill="#191919"/><path d="M5.01716,10.15723h9.96569a0.15751,0.15751,0,1,0,0-.315H5.01716A0.15751,0.15751,0,1,0,5.01716,10.15723Z" fill="#191919"/><path d="M8.96657,14.10634a0.15735,0.15735,0,0,0,.11152-0.26871L5.23988,9.99941l3.83822-3.837a0.15749,0.15749,0,0,0-.22272-0.22272L4.906,9.88789a0.15819,0.15819,0,0,0,0,.223L8.85537,14.06A0.156,0.156,0,0,0,8.96657,14.10634Z" fill="#191919"/></svg>