<svg xmlns="http://www.w3.org/2000/svg"
	xmlns:xlink="http://www.w3.org/1999/xlink"
	width="36px" height="36px" viewBox="0 0 36 36">
<path  d="M 18 36C 8.07 36 0 27.93 0 18 0 8.07 8.07-0 18-0 27.92-0 36 8.07 36 18 36 27.93 27.92 36 18 36ZM 18 0.8C 8.52 0.8 0.8 8.52 0.8 18 0.8 27.48 8.52 35.2 18 35.2 27.48 35.2 35.2 27.48 35.2 18 35.2 8.52 27.48 0.8 18 0.8ZM 24.71 26.06C 24.45 26.32 24.16 26.57 23.86 26.8 23.86 26.8 23.76 26.89 23.76 26.89 23.76 26.89 23.37 26.89 23.37 26.89 19.91 26.89 16.33 25.29 13.55 22.51 10.62 19.58 9.03 15.91 9.11 12.37 9.11 12.37 9.11 12.24 9.11 12.24 9.11 12.24 9.2 12.13 9.2 12.13 9.44 11.82 9.69 11.54 9.94 11.29 10.87 10.36 11.96 9.65 13.19 9.17 13.3 9.13 13.43 9.11 13.57 9.11 14 9.11 14.69 9.33 14.84 9.74 15.28 10.95 15.82 12.52 16.22 14.02 16.3 14.3 16.21 15.14 15.8 15.4 15.8 15.4 14.39 16.3 14.39 16.3 14.29 16.36 14.25 16.47 14.24 16.55 14.19 16.79 14.28 17.1 14.47 17.36 15.03 18.12 15.68 18.88 16.4 19.61 17.12 20.33 17.88 20.98 18.64 21.53 19.03 21.81 19.56 21.84 19.7 21.62 19.7 21.62 20.6 20.19 20.6 20.19 20.83 19.83 21.5 19.76 21.74 19.76 21.83 19.76 21.9 19.76 21.97 19.78 23.8 20.19 24.89 20.54 26.28 21.17 26.72 21.36 27.03 22.3 26.83 22.81 26.35 24.03 25.64 25.13 24.71 26.06ZM 25.91 21.87C 24.62 21.29 23.57 20.95 21.79 20.56 21.54 20.56 21.3 20.62 21.24 20.67 21.24 20.67 20.37 22.04 20.37 22.04 19.99 22.66 18.94 22.74 18.17 22.18 17.38 21.6 16.59 20.93 15.83 20.18 15.08 19.42 14.41 18.63 13.82 17.83 13.5 17.38 13.36 16.86 13.45 16.39 13.52 16.06 13.7 15.79 13.96 15.62 13.96 15.62 15.38 14.73 15.38 14.73 15.4 14.67 15.47 14.33 15.45 14.22 15.06 12.75 14.52 11.2 14.09 10.02 14.05 10 13.79 9.91 13.57 9.91 13.51 9.91 13.48 9.92 13.48 9.92 12.36 10.35 11.36 11.01 10.51 11.86 10.3 12.06 10.11 12.28 9.91 12.52 9.87 15.8 11.38 19.21 14.06 21.89 14.06 21.89 14.12 21.95 14.12 21.95 16.75 24.58 20.12 26.09 23.37 26.09 23.37 26.09 23.48 26.09 23.48 26.09 23.71 25.9 23.94 25.7 24.15 25.49 24.99 24.64 25.65 23.64 26.08 22.52 26.13 22.39 26.01 21.97 25.91 21.87Z" /></svg>