<svg xmlns="http://www.w3.org/2000/svg" viewBox="0 0 20 20"><path class="cls-1" d="M10,20A10,10,0,1,1,20,10,10,10,0,0,1,10,20h0ZM10,0.44A9.56,9.56,0,1,0,19.56,10,9.57,9.57,0,0,0,10,.44h0Z"/><path class="cls-1" d="M12,15.26A7.27,7.27,0,0,1,7,13l0,0A7.19,7.19,0,0,1,4.72,7.83V7.76l0-.06a4.92,4.92,0,0,1,.38-0.43A4.8,4.8,0,0,1,6.82,6.18a0.55,0.55,0,0,1,.2,0,0.76,0.76,0,0,1,.67.34c0.22,0.62.5,1.42,0.7,2.18a0.82,0.82,0,0,1-.22.73l-0.72.46a0.17,0.17,0,0,0-.07.11,0.54,0.54,0,0,0,.12.4,10.31,10.31,0,0,0,1,1.15,10.11,10.11,0,0,0,1.14,1,0.59,0.59,0,0,0,.34.12,0.21,0.21,0,0,0,.18-0.07l0.46-.73a0.83,0.83,0,0,1,.6-0.23h0.12a10.09,10.09,0,0,1,2.21.71,0.81,0.81,0,0,1,.29.86,4.74,4.74,0,0,1-1.52,2l-0.06,0H12ZM7.31,12.71A6.82,6.82,0,0,0,12,14.82h0a4.28,4.28,0,0,0,.34-0.3,4.34,4.34,0,0,0,1-1.51,0.49,0.49,0,0,0-.09-0.31A9.94,9.94,0,0,0,11.21,12a0.77,0.77,0,0,0-.27.05l-0.44.7a0.82,0.82,0,0,1-1.15.07,10.52,10.52,0,0,1-1.2-1,10.76,10.76,0,0,1-1-1.2,1,1,0,0,1-.19-0.75,0.6,0.6,0,0,1,.27-0.41L7.93,9a1.05,1.05,0,0,0,0-.24C7.77,8,7.5,7.27,7.28,6.67A0.57,0.57,0,0,0,7,6.59a4.24,4.24,0,0,0-1.55,1,4.41,4.41,0,0,0-.3.34,6.88,6.88,0,0,0,2.11,4.76l-0.14.17,0.18-.14h0Z"/><path class="cls-1" d="M9.86,9.61H11a0.41,0.41,0,0,1,.25.07,0.22,0.22,0,0,1,.09.19,0.25,0.25,0,0,1-.07.18,0.28,0.28,0,0,1-.21.07H9.46A0.34,0.34,0,0,1,9.21,10a0.28,0.28,0,0,1-.09-0.21,0.53,0.53,0,0,1,.06-0.2,0.74,0.74,0,0,1,.13-0.2l0.51-.51a3.33,3.33,0,0,1,.33-0.28,1.91,1.91,0,0,0,.29-0.25,1,1,0,0,0,.18-0.26,0.61,0.61,0,0,0,.06-0.26,0.46,0.46,0,0,0-.07-0.24,0.45,0.45,0,0,0-.18-0.17,0.51,0.51,0,0,0-.24-0.06,0.5,0.5,0,0,0-.44.25,1.1,1.1,0,0,0-.07.18A0.73,0.73,0,0,1,9.56,8a0.22,0.22,0,0,1-.18.08A0.24,0.24,0,0,1,9.2,8a0.26,0.26,0,0,1-.07-0.19,0.8,0.8,0,0,1,.07-0.31,0.88,0.88,0,0,1,.2-0.29A1,1,0,0,1,9.73,7,1.27,1.27,0,0,1,10.2,7a1.37,1.37,0,0,1,.56.1,0.84,0.84,0,0,1,.26.19,0.88,0.88,0,0,1,.24.6,0.91,0.91,0,0,1-.13.48,1.5,1.5,0,0,1-.27.34l-0.46.39a3.43,3.43,0,0,0-.44.41Z"/><path class="cls-1" d="M12.79,9.85V9.45H11.72a0.44,0.44,0,0,1-.3-0.09,0.32,0.32,0,0,1-.1-0.25,0.24,0.24,0,0,1,0-.08l0-.09,0.06-.09,0.08-.1,1.13-1.52A1.7,1.7,0,0,1,12.83,7,0.24,0.24,0,0,1,13,6.94a0.31,0.31,0,0,1,.32.37V9h0.09a0.65,0.65,0,0,1,.26,0,0.19,0.19,0,0,1,.1.2,0.21,0.21,0,0,1-.08.18,0.43,0.43,0,0,1-.24.06H13.33v0.4a0.36,0.36,0,0,1-.07.24,0.27,0.27,0,0,1-.39,0A0.35,0.35,0,0,1,12.79,9.85ZM11.87,9h0.92V7.73Z"/><path class="cls-1" d="M14.47,11.76a0.22,0.22,0,0,1-.19-0.33A4.17,4.17,0,0,0,8.54,5.76a0.22,0.22,0,1,1-.23-0.38,4.62,4.62,0,0,1,6.35,6.27,0.22,0.22,0,0,1-.19.11h0Z"/></svg>