<svg xmlns="http://www.w3.org/2000/svg" viewBox="0 0 20 20"><path d="M10,0A10,10,0,1,0,20,10,10,10,0,0,0,10,0Zm0,19.56A9.56,9.56,0,1,1,19.56,10,9.57,9.57,0,0,1,10,19.56Z"/><path d="M13.72,4.63H6.28a0.21,0.21,0,0,0-.21.21V15.16a0.21,0.21,0,0,0,.31.18l0.91-.55L8,15.33a0.21,0.21,0,0,0,.23,0l0.91-.55,0.71,0.54a0.21,0.21,0,0,0,.23,0L11,14.79l0.71,0.54a0.21,0.21,0,0,0,.23,0l0.91-.55,0.71,0.54a0.21,0.21,0,0,0,.12,0l0.09,0a0.21,0.21,0,0,0,.11-0.18V4.84A0.21,0.21,0,0,0,13.72,4.63Zm-0.93,9.73-0.91.55-0.71-.54a0.21,0.21,0,0,0-.23,0L10,14.91,9.3,14.38a0.21,0.21,0,0,0-.23,0l-0.91.55-0.71-.54a0.21,0.21,0,0,0-.23,0l-0.72.43V5h7v9.7L13,14.38A0.21,0.21,0,0,0,12.78,14.36Z"/><path d="M7.32,6.9h1a0.21,0.21,0,0,0,0-.41h-1A0.21,0.21,0,0,0,7.32,6.9Z"/><path d="M12.27,7.52h-1a0.21,0.21,0,1,0,0,.41h1A0.21,0.21,0,1,0,12.27,7.52Z"/><path d="M12.27,8.56h-1a0.21,0.21,0,1,0,0,.41h1A0.21,0.21,0,1,0,12.27,8.56Z"/><path d="M12.27,9.59h-1a0.21,0.21,0,1,0,0,.41h1A0.21,0.21,0,1,0,12.27,9.59Z"/><path d="M12.27,10.62h-1a0.21,0.21,0,1,0,0,.41h1A0.21,0.21,0,1,0,12.27,10.62Z"/><path d="M12.27,11.65h-1a0.21,0.21,0,1,0,0,.41h1A0.21,0.21,0,1,0,12.27,11.65Z"/><path d="M10.21,7.52H7.32a0.21,0.21,0,0,0,0,.41h2.89A0.21,0.21,0,1,0,10.21,7.52Z"/><path d="M10.21,8.56H7.32a0.21,0.21,0,0,0,0,.41h2.89A0.21,0.21,0,1,0,10.21,8.56Z"/><path d="M10.21,9.59H7.32a0.21,0.21,0,1,0,0,.41h2.89A0.21,0.21,0,1,0,10.21,9.59Z"/><path d="M10.21,10.62H7.32a0.21,0.21,0,1,0,0,.41h2.89A0.21,0.21,0,1,0,10.21,10.62Z"/><path d="M10.21,11.65H7.32a0.21,0.21,0,1,0,0,.41h2.89A0.21,0.21,0,1,0,10.21,11.65Z"/></svg>