<svg xmlns="http://www.w3.org/2000/svg" xmlns:xlink="http://www.w3.org/1999/xlink" x="0px" y="0px"
	 viewBox="0 0 20 20" style="enable-background:new 0 0 20 20;" xml:space="preserve">
<path class="st0" d="M10,20C4.5,20,0,15.5,0,10C0,4.5,4.5,0,10,0c5.5,0,10,4.5,10,10C20,15.5,15.5,20,10,20L10,20z M10,0.4 c-5.3,0-9.6,4.3-9.6,9.6c0,5.3,4.3,9.6,9.6,9.6s9.6-4.3,9.6-9.6C19.6,4.7,15.3,0.4,10,0.4L10,0.4z"/>
<path class="st0" d="M14.6,6.5H5.4c-0.1,0-0.2-0.1-0.2-0.2c0-0.1,0.1-0.2,0.2-0.2h9.2c0.1,0,0.2,0.1,0.2,0.2 C14.8,6.4,14.7,6.5,14.6,6.5L14.6,6.5z"/>
<path class="st0" d="M11.4,6.5c-0.1-0.6-0.7-1.1-1.4-1.1c-0.7,0-1.2,0.5-1.4,1.1L8.2,6.4C8.4,5.5,9.1,4.9,10,4.9 c0.9,0,1.6,0.6,1.8,1.5L11.4,6.5L11.4,6.5z"/>
<path class="st0" d="M13,15.1H7c-0.3,0-0.6-0.3-0.7-0.7L5.9,6.7c0-0.1,0.1-0.2,0.2-0.2c0.1,0,0.2,0.1,0.2,0.2l0.5,7.7
c0,0.1,0.1,0.2,0.2,0.2h6c0.1,0,0.2-0.1,0.2-0.2l0.5-7.7c0-0.1,0.1-0.2,0.2-0.2c0.1,0,0.2,0.1,0.2,0.2l-0.5,7.7
C13.6,14.8,13.3,15.1,13,15.1L13,15.1z"/>
<path class="st0" d="M8.3,13.5c-0.1,0-0.2-0.1-0.2-0.2L7.8,8c0-0.1,0.1-0.2,0.2-0.2c0.1,0,0.2,0.1,0.2,0.2l0.3,5.3
C8.5,13.4,8.4,13.5,8.3,13.5C8.3,13.5,8.3,13.5,8.3,13.5L8.3,13.5z"/>
<path class="st0" d="M11.7,13.5C11.7,13.5,11.7,13.5,11.7,13.5c-0.1,0-0.2-0.1-0.2-0.2l0.3-5.3c0-0.1,0.1-0.2,0.2-0.2
c0.1,0,0.2,0.1,0.2,0.2l-0.3,5.3C11.9,13.4,11.8,13.5,11.7,13.5L11.7,13.5z"/>
<path class="st0" d="M10,13.5c-0.1,0-0.2-0.1-0.2-0.2V8c0-0.1,0.1-0.2,0.2-0.2c0.1,0,0.2,0.1,0.2,0.2v5.3
C10.2,13.4,10.1,13.5,10,13.5L10,13.5z"/>
</svg>
