<svg xmlns="http://www.w3.org/2000/svg" viewBox="0 0 20 20"><path class="cls-1" d="M10,20A10,10,0,1,1,20,10,10,10,0,0,1,10,20h0ZM10,0.44A9.56,9.56,0,1,0,19.56,10,9.57,9.57,0,0,0,10,.44h0Z"/><path class="cls-1" d="M5.29,14.71a0.22,0.22,0,0,1-.22-0.24L5.2,12.22a0.22,0.22,0,0,1,.06-0.14L12,5.35a0.22,0.22,0,0,1,.16-0.07h0a0.22,0.22,0,0,1,.16.07l2.12,2.12a0.22,0.22,0,0,1,0,.31L7.7,14.51a0.22,0.22,0,0,1-.14.06l-2.26.13h0Zm0.35-2.38L5.52,14.25l1.92-.11L14,7.63,12.15,5.82,5.64,12.33h0Z"/><path class="cls-1" d="M13.07,8.83a0.22,0.22,0,0,1-.16-0.07L11,6.86a0.22,0.22,0,0,1,.31-0.31l1.91,1.91a0.22,0.22,0,0,1-.16.38h0Z"/><path class="cls-1" d="M6.83,13.16a0.22,0.22,0,0,1-.16-0.38l5.25-5.25a0.22,0.22,0,0,1,.31.31L7,13.1a0.22,0.22,0,0,1-.16.07h0Z"/><path class="cls-1" d="M5.54,13.38H5.45l-0.08,0L5.3,14.5l1.05-.06s0-.08,0-0.12a0.82,0.82,0,0,0-.84-0.93h0Z"/><path class="cls-1" d="M14.71,14.64h-5a0.22,0.22,0,1,1,0-.44h5a0.22,0.22,0,1,1,0,.44h0Z"/></svg>