<svg xmlns="http://www.w3.org/2000/svg" viewBox="0 0 20 20"><path class="cls-1" d="M10,20A10,10,0,1,1,20,10,10,10,0,0,1,10,20h0ZM10,0.44A9.56,9.56,0,1,0,19.56,10,9.57,9.57,0,0,0,10,.44h0Z"/><path class="cls-1" d="M12.48,13.15a0.22,0.22,0,0,1-.18-0.35l2-2.8-2-2.8a0.22,0.22,0,1,1,.36-0.26L14.8,9.87a0.22,0.22,0,0,1,0,.26l-2.13,2.93a0.22,0.22,0,0,1-.18.09h0Z"/><path class="cls-1" d="M14.62,10.22H9.1a0.22,0.22,0,0,1,0-.44h5.51a0.22,0.22,0,0,1,0,.44h0Z"/><path class="cls-1" d="M5.38,15a0.22,0.22,0,0,1-.22-0.22V5.27a0.22,0.22,0,0,1,.44,0v9.46a0.22,0.22,0,0,1-.22.22h0Z"/><path class="cls-1" d="M11.33,15H5.38a0.22,0.22,0,1,1,0-.44h5.95a0.22,0.22,0,1,1,0,.44h0Z"/><path class="cls-1" d="M11.33,5.49H5.38a0.22,0.22,0,1,1,0-.44h5.95a0.22,0.22,0,0,1,0,.44h0Z"/></svg>