<?xml version="1.0" encoding="utf-8"?>
<svg xmlns="http://www.w3.org/2000/svg"
	xmlns:xlink="http://www.w3.org/1999/xlink"
	width="50px" height="50px" viewBox="0 0 50 50">
<path fillRule="evenodd" d="M 25 49C 38.23 49 49 38.23 49 25 49 11.77 38.23 1 25 1 11.77 1 1 11.77 1 25 1 38.23 11.77 49 25 49M 25 50C 11.19 50-0 38.81-0 25-0 11.19 11.19-0 25-0 38.81-0 50 11.19 50 25 50 38.81 38.81 50 25 50 25 50 25 50 25 50Z" fill="rgb(0,103,143)"/><path fillRule="evenodd" d="M 35.61 31.77C 35.61 31.77 35.62 31.78 35.62 31.78 35.62 31.78 35.38 32.15 35.38 32.15 33.57 34.8 30.81 36.61 27.73 37.25 27.72 37.25 27.71 37.25 27.7 37.25 27.61 37.27 27.53 37.29 27.44 37.3 27.42 37.31 27.39 37.31 27.37 37.31 27.29 37.33 27.21 37.34 27.14 37.35 27.11 37.36 27.08 37.36 27.06 37.37 26.99 37.38 26.93 37.38 26.86 37.39 26.83 37.4 26.8 37.4 26.77 37.4 26.69 37.41 26.61 37.42 26.54 37.43 26.51 37.44 26.48 37.44 26.45 37.44 26.37 37.45 26.29 37.46 26.22 37.46 26.2 37.46 26.18 37.46 26.15 37.47 26.08 37.47 26 37.48 25.92 37.48 25.9 37.48 25.87 37.48 25.85 37.48 25.76 37.49 25.68 37.49 25.59 37.5 25.57 37.5 25.55 37.5 25.53 37.5 25.44 37.5 25.34 37.5 25.25 37.5 25.16 37.5 25.06 37.5 24.97 37.5 24.95 37.5 24.93 37.5 24.91 37.5 24.82 37.49 24.73 37.49 24.65 37.48 24.63 37.48 24.61 37.48 24.59 37.48 24.5 37.48 24.4 37.47 24.31 37.46 24.31 37.46 24.31 37.46 24.31 37.46 24.21 37.46 24.12 37.45 24.02 37.44 24.01 37.44 24 37.44 23.99 37.44 22.42 37.27 20.88 36.81 19.49 36.07 19.49 36.07 19 35.83 19 35.83 19 35.83 19.02 35.81 19.02 35.81 15.57 33.78 13.35 30.19 13.04 26.21 13.04 26.2 13.04 26.18 13.03 26.17 13.03 26.07 13.02 25.97 13.02 25.88 13.02 25.88 13.02 25.88 13.02 25.88 13.01 25.78 13.01 25.69 13.01 25.6 13 25.58 13 25.55 13 25.53 13 25.44 13 25.34 13 25.25 13 18.51 18.51 13 25.25 13 25.25 13 25.66 13 25.66 13 25.66 13 25.66 13.01 25.66 13.01 32.21 13.22 37.5 18.65 37.5 25.25 37.5 27.64 36.8 29.88 35.61 31.77ZM 24.17 36.63C 24.23 36.64 24.29 36.64 24.34 36.65 24.4 36.65 24.46 36.66 24.51 36.66 24.55 36.66 24.6 36.66 24.64 36.67 24.71 36.67 24.78 36.67 24.85 36.68 24.88 36.68 24.91 36.68 24.94 36.68 25.05 36.68 25.15 36.68 25.25 36.68 25.36 36.68 25.46 36.68 25.57 36.68 25.6 36.68 25.64 36.68 25.68 36.67 25.75 36.67 25.81 36.67 25.88 36.67 25.93 36.66 25.97 36.66 26.02 36.66 26.08 36.65 26.13 36.65 26.19 36.64 26.24 36.64 26.3 36.63 26.35 36.63 26.4 36.63 26.44 36.62 26.49 36.62 26.55 36.61 26.61 36.6 26.68 36.59 26.7 36.59 26.73 36.59 26.75 36.58 29.9 36.17 32.65 34.46 34.45 32.01 34.45 32.01 33.98 31.71 33.98 31.71 33.98 31.71 24.13 36.63 24.13 36.63 24.15 36.63 24.16 36.63 24.17 36.63ZM 22.88 36.43C 22.91 36.38 22.95 36.34 23 36.32 23 36.32 33.21 31.21 33.21 31.21 33.21 31.21 32 30.44 32 30.44 31.98 30.46 31.97 30.47 31.95 30.48 31.95 30.48 21.1 35.9 21.1 35.9 21.67 36.12 22.27 36.3 22.88 36.43ZM 31.24 29.95C 31.24 29.95 30.04 29.19 30.04 29.19 30.01 29.23 29.96 29.27 29.9 29.29 29.9 29.29 21.77 32.95 21.77 32.95 21.77 32.95 20.49 35.33 20.49 35.33 20.49 35.33 31.24 29.95 31.24 29.95ZM 29.27 28.7C 29.27 28.7 27.74 27.72 27.74 27.72 27.74 27.72 23.59 29.6 23.59 29.6 23.59 29.6 22.41 31.79 22.41 31.79 22.41 31.79 29.27 28.7 29.27 28.7ZM 24.84 23.62C 24.6 23.62 24.43 23.45 24.43 23.21 24.43 22.96 24.6 22.8 24.84 22.8 24.84 22.8 24.84 21.17 24.84 21.17 24.6 21.17 24.43 21 24.43 20.76 24.43 20.51 24.6 20.35 24.84 20.35 24.84 20.35 24.84 18.72 24.84 18.72 24.6 18.72 24.43 18.55 24.43 18.31 24.43 18.06 24.6 17.9 24.84 17.9 24.84 17.9 24.84 16.27 24.84 16.27 24.6 16.27 24.43 16.1 24.43 15.86 24.43 15.61 24.6 15.45 24.84 15.45 24.84 15.45 24.84 13.82 24.84 13.82 23.69 13.87 22.58 14.08 21.53 14.44 21.56 14.5 21.57 14.56 21.57 14.63 21.57 14.88 21.41 15.04 21.17 15.04 20.96 15.04 20.81 14.92 20.77 14.74 18.21 15.84 16.12 17.85 14.92 20.37 14.96 20.36 15 20.35 15.04 20.35 15.29 20.35 15.45 20.51 15.45 20.76 15.45 21 15.29 21.17 15.04 21.17 14.86 21.17 14.73 21.08 14.67 20.94 14.27 21.91 14 22.95 13.88 24.03 14.09 24.06 14.23 24.21 14.23 24.43 14.23 24.68 14.07 24.84 13.82 24.84 13.82 24.87 13.82 24.9 13.82 24.92 13.82 24.94 13.82 24.95 13.82 24.96 13.82 25.05 13.82 25.15 13.82 25.25 13.82 25.34 13.82 25.43 13.82 25.51 13.82 25.53 13.82 25.55 13.82 25.57 13.83 25.75 13.84 25.93 13.85 26.11 13.85 26.12 13.85 26.13 13.85 26.14 13.86 26.25 13.87 26.37 13.88 26.48 14.09 26.51 14.22 26.66 14.22 26.88 14.22 27.06 14.14 27.2 13.99 27.26 14.18 28.28 14.5 29.25 14.93 30.16 14.97 30.15 15 30.15 15.04 30.15 15.29 30.15 15.45 30.31 15.45 30.56 15.45 30.7 15.4 30.81 15.31 30.88 15.48 31.18 15.66 31.47 15.86 31.75 15.87 31.52 16.03 31.37 16.27 31.37 16.51 31.37 16.67 31.54 16.67 31.78 16.67 32.03 16.51 32.19 16.27 32.19 16.23 32.19 16.2 32.19 16.18 32.18 17.11 33.4 18.28 34.43 19.63 35.19 19.63 35.19 21.25 32.18 21.25 32.18 21.22 32.19 21.2 32.19 21.17 32.19 20.92 32.19 20.76 32.03 20.76 31.78 20.76 31.54 20.92 31.37 21.17 31.37 21.36 31.37 21.5 31.47 21.55 31.63 21.55 31.63 22.81 29.29 22.81 29.29 22.82 29.18 22.87 29.08 22.96 29.01 22.96 29.01 24.59 25.99 24.59 25.99 24.49 25.92 24.43 25.81 24.43 25.66 24.43 25.41 24.6 25.25 24.84 25.25 24.84 25.25 24.84 23.62 24.84 23.62ZM 25.41 26.23C 25.41 26.23 25.39 26.28 25.39 26.28 25.39 26.28 24.22 28.43 24.22 28.43 24.22 28.43 26.93 27.2 26.93 27.2 26.93 27.2 25.41 26.23 25.41 26.23ZM 25.66 13.82C 25.66 13.82 25.66 25.45 25.66 25.45 25.66 25.45 34.92 31.34 34.92 31.34 36.03 29.57 36.68 27.48 36.68 25.25 36.68 19.1 31.76 14.04 25.66 13.82ZM 23.62 27.29C 23.37 27.29 23.21 27.13 23.21 26.88 23.21 26.64 23.37 26.48 23.62 26.48 23.86 26.48 24.02 26.64 24.02 26.88 24.02 27.13 23.86 27.29 23.62 27.29ZM 23.62 24.84C 23.37 24.84 23.21 24.68 23.21 24.43 23.21 24.19 23.37 24.03 23.62 24.03 23.86 24.03 24.02 24.19 24.02 24.43 24.02 24.68 23.86 24.84 23.62 24.84ZM 23.62 22.39C 23.37 22.39 23.21 22.23 23.21 21.98 23.21 21.74 23.37 21.58 23.62 21.58 23.86 21.58 24.02 21.74 24.02 21.98 24.02 22.23 23.86 22.39 23.62 22.39ZM 23.62 19.94C 23.37 19.94 23.21 19.78 23.21 19.53 23.21 19.29 23.37 19.12 23.62 19.12 23.86 19.12 24.02 19.29 24.02 19.53 24.02 19.78 23.86 19.94 23.62 19.94ZM 23.62 17.49C 23.37 17.49 23.21 17.33 23.21 17.08 23.21 16.84 23.37 16.68 23.62 16.68 23.86 16.68 24.02 16.84 24.02 17.08 24.02 17.33 23.86 17.49 23.62 17.49ZM 23.62 15.04C 23.37 15.04 23.21 14.88 23.21 14.63 23.21 14.39 23.37 14.23 23.62 14.23 23.86 14.23 24.02 14.39 24.02 14.63 24.02 14.88 23.86 15.04 23.62 15.04ZM 22.39 28.52C 22.15 28.52 21.98 28.35 21.98 28.11 21.98 27.86 22.15 27.7 22.39 27.7 22.64 27.7 22.8 27.86 22.8 28.11 22.8 28.35 22.64 28.52 22.39 28.52ZM 22.39 26.07C 22.15 26.07 21.98 25.9 21.98 25.66 21.98 25.41 22.15 25.25 22.39 25.25 22.64 25.25 22.8 25.41 22.8 25.66 22.8 25.9 22.64 26.07 22.39 26.07ZM 22.39 23.62C 22.15 23.62 21.98 23.45 21.98 23.21 21.98 22.96 22.15 22.8 22.39 22.8 22.64 22.8 22.8 22.96 22.8 23.21 22.8 23.45 22.64 23.62 22.39 23.62ZM 22.39 21.17C 22.15 21.17 21.98 21 21.98 20.76 21.98 20.51 22.15 20.35 22.39 20.35 22.64 20.35 22.8 20.51 22.8 20.76 22.8 21 22.64 21.17 22.39 21.17ZM 22.39 18.72C 22.15 18.72 21.98 18.55 21.98 18.31 21.98 18.06 22.15 17.9 22.39 17.9 22.64 17.9 22.8 18.06 22.8 18.31 22.8 18.55 22.64 18.72 22.39 18.72ZM 22.39 16.27C 22.15 16.27 21.98 16.1 21.98 15.86 21.98 15.61 22.15 15.45 22.39 15.45 22.64 15.45 22.8 15.61 22.8 15.86 22.8 16.1 22.64 16.27 22.39 16.27ZM 21.17 29.74C 20.92 29.74 20.76 29.58 20.76 29.33 20.76 29.09 20.92 28.93 21.17 28.93 21.41 28.93 21.57 29.09 21.57 29.33 21.57 29.58 21.41 29.74 21.17 29.74ZM 21.17 27.29C 20.92 27.29 20.76 27.13 20.76 26.88 20.76 26.64 20.92 26.48 21.17 26.48 21.41 26.48 21.57 26.64 21.57 26.88 21.57 27.13 21.41 27.29 21.17 27.29ZM 21.17 24.84C 20.92 24.84 20.76 24.68 20.76 24.43 20.76 24.19 20.92 24.03 21.17 24.03 21.41 24.03 21.57 24.19 21.57 24.43 21.57 24.68 21.41 24.84 21.17 24.84ZM 21.17 22.39C 20.92 22.39 20.76 22.23 20.76 21.98 20.76 21.74 20.92 21.58 21.17 21.58 21.41 21.58 21.57 21.74 21.57 21.98 21.57 22.23 21.41 22.39 21.17 22.39ZM 21.17 19.94C 20.92 19.94 20.76 19.78 20.76 19.53 20.76 19.29 20.92 19.12 21.17 19.12 21.41 19.12 21.57 19.29 21.57 19.53 21.57 19.78 21.41 19.94 21.17 19.94ZM 21.17 17.49C 20.92 17.49 20.76 17.33 20.76 17.08 20.76 16.84 20.92 16.68 21.17 16.68 21.41 16.68 21.57 16.84 21.57 17.08 21.57 17.33 21.41 17.49 21.17 17.49ZM 19.94 33.42C 19.7 33.42 19.53 33.25 19.53 33.01 19.53 32.76 19.7 32.6 19.94 32.6 20.19 32.6 20.35 32.76 20.35 33.01 20.35 33.25 20.19 33.42 19.94 33.42ZM 19.94 30.97C 19.7 30.97 19.53 30.8 19.53 30.56 19.53 30.31 19.7 30.15 19.94 30.15 20.19 30.15 20.35 30.31 20.35 30.56 20.35 30.8 20.19 30.97 19.94 30.97ZM 19.94 28.52C 19.7 28.52 19.53 28.35 19.53 28.11 19.53 27.86 19.7 27.7 19.94 27.7 20.19 27.7 20.35 27.86 20.35 28.11 20.35 28.35 20.19 28.52 19.94 28.52ZM 19.94 26.07C 19.7 26.07 19.53 25.9 19.53 25.66 19.53 25.41 19.7 25.25 19.94 25.25 20.19 25.25 20.35 25.41 20.35 25.66 20.35 25.9 20.19 26.07 19.94 26.07ZM 19.94 23.62C 19.7 23.62 19.53 23.45 19.53 23.21 19.53 22.96 19.7 22.8 19.94 22.8 20.19 22.8 20.35 22.96 20.35 23.21 20.35 23.45 20.19 23.62 19.94 23.62ZM 19.94 21.17C 19.7 21.17 19.53 21 19.53 20.76 19.53 20.51 19.7 20.35 19.94 20.35 20.19 20.35 20.35 20.51 20.35 20.76 20.35 21 20.19 21.17 19.94 21.17ZM 19.94 18.72C 19.7 18.72 19.53 18.55 19.53 18.31 19.53 18.06 19.7 17.9 19.94 17.9 20.19 17.9 20.35 18.06 20.35 18.31 20.35 18.55 20.19 18.72 19.94 18.72ZM 19.94 16.27C 19.7 16.27 19.53 16.1 19.53 15.86 19.53 15.61 19.7 15.45 19.94 15.45 20.19 15.45 20.35 15.61 20.35 15.86 20.35 16.1 20.19 16.27 19.94 16.27ZM 18.72 32.19C 18.47 32.19 18.31 32.03 18.31 31.78 18.31 31.54 18.47 31.38 18.72 31.38 18.96 31.38 19.12 31.54 19.12 31.78 19.12 32.03 18.96 32.19 18.72 32.19ZM 18.72 29.74C 18.47 29.74 18.31 29.58 18.31 29.33 18.31 29.09 18.47 28.93 18.72 28.93 18.96 28.93 19.12 29.09 19.12 29.33 19.12 29.58 18.96 29.74 18.72 29.74ZM 18.72 27.29C 18.47 27.29 18.31 27.13 18.31 26.88 18.31 26.64 18.47 26.48 18.72 26.48 18.96 26.48 19.12 26.64 19.12 26.88 19.12 27.13 18.96 27.29 18.72 27.29ZM 18.72 24.84C 18.47 24.84 18.31 24.68 18.31 24.43 18.31 24.19 18.47 24.03 18.72 24.03 18.96 24.03 19.12 24.19 19.12 24.43 19.12 24.68 18.96 24.84 18.72 24.84ZM 18.72 22.39C 18.47 22.39 18.31 22.23 18.31 21.98 18.31 21.74 18.47 21.58 18.72 21.58 18.96 21.58 19.12 21.74 19.12 21.98 19.12 22.23 18.96 22.39 18.72 22.39ZM 18.72 19.94C 18.47 19.94 18.31 19.78 18.31 19.53 18.31 19.29 18.47 19.12 18.72 19.12 18.96 19.12 19.12 19.29 19.12 19.53 19.12 19.78 18.96 19.94 18.72 19.94ZM 18.72 17.49C 18.47 17.49 18.31 17.33 18.31 17.08 18.31 16.84 18.47 16.68 18.72 16.68 18.96 16.68 19.12 16.84 19.12 17.08 19.12 17.33 18.96 17.49 18.72 17.49ZM 17.49 33.42C 17.25 33.42 17.08 33.25 17.08 33.01 17.08 32.76 17.25 32.6 17.49 32.6 17.74 32.6 17.9 32.76 17.9 33.01 17.9 33.25 17.74 33.42 17.49 33.42ZM 17.49 30.97C 17.25 30.97 17.08 30.8 17.08 30.56 17.08 30.31 17.25 30.15 17.49 30.15 17.74 30.15 17.9 30.31 17.9 30.56 17.9 30.8 17.74 30.97 17.49 30.97ZM 17.49 28.52C 17.25 28.52 17.08 28.35 17.08 28.11 17.08 27.86 17.25 27.7 17.49 27.7 17.74 27.7 17.9 27.86 17.9 28.11 17.9 28.35 17.74 28.52 17.49 28.52ZM 17.49 26.07C 17.25 26.07 17.08 25.9 17.08 25.66 17.08 25.41 17.25 25.25 17.49 25.25 17.74 25.25 17.9 25.41 17.9 25.66 17.9 25.9 17.74 26.07 17.49 26.07ZM 17.49 23.62C 17.25 23.62 17.08 23.45 17.08 23.21 17.08 22.96 17.25 22.8 17.49 22.8 17.74 22.8 17.9 22.96 17.9 23.21 17.9 23.45 17.74 23.62 17.49 23.62ZM 17.49 21.17C 17.25 21.17 17.08 21 17.08 20.76 17.08 20.51 17.25 20.35 17.49 20.35 17.74 20.35 17.9 20.51 17.9 20.76 17.9 21 17.74 21.17 17.49 21.17ZM 17.49 18.72C 17.25 18.72 17.08 18.55 17.08 18.31 17.08 18.06 17.25 17.9 17.49 17.9 17.74 17.9 17.9 18.06 17.9 18.31 17.9 18.55 17.74 18.72 17.49 18.72ZM 16.27 29.74C 16.02 29.74 15.86 29.58 15.86 29.33 15.86 29.09 16.02 28.92 16.27 28.92 16.51 28.92 16.67 29.09 16.67 29.33 16.67 29.58 16.51 29.74 16.27 29.74ZM 16.27 27.29C 16.02 27.29 15.86 27.13 15.86 26.88 15.86 26.64 16.02 26.47 16.27 26.47 16.51 26.47 16.67 26.64 16.67 26.88 16.67 27.13 16.51 27.29 16.27 27.29ZM 16.27 24.84C 16.02 24.84 15.86 24.68 15.86 24.43 15.86 24.19 16.02 24.02 16.27 24.02 16.51 24.02 16.67 24.19 16.67 24.43 16.67 24.68 16.51 24.84 16.27 24.84ZM 16.27 22.39C 16.02 22.39 15.86 22.23 15.86 21.98 15.86 21.74 16.02 21.57 16.27 21.57 16.51 21.57 16.67 21.74 16.67 21.98 16.67 22.23 16.51 22.39 16.27 22.39ZM 16.27 19.94C 16.02 19.94 15.86 19.78 15.86 19.53 15.86 19.29 16.02 19.12 16.27 19.12 16.51 19.12 16.67 19.29 16.67 19.53 16.67 19.78 16.51 19.94 16.27 19.94ZM 15.04 28.52C 14.8 28.52 14.63 28.35 14.63 28.11 14.63 27.86 14.8 27.7 15.04 27.7 15.29 27.7 15.45 27.86 15.45 28.11 15.45 28.35 15.29 28.52 15.04 28.52ZM 15.04 26.07C 14.8 26.07 14.63 25.9 14.63 25.66 14.63 25.41 14.8 25.25 15.04 25.25 15.29 25.25 15.45 25.41 15.45 25.66 15.45 25.9 15.29 26.07 15.04 26.07ZM 15.04 23.62C 14.8 23.62 14.63 23.45 14.63 23.21 14.63 22.96 14.8 22.8 15.04 22.8 15.29 22.8 15.45 22.96 15.45 23.21 15.45 23.45 15.29 23.62 15.04 23.62Z" fill="rgb(0,103,143)"/></svg>