<svg xmlns="http://www.w3.org/2000/svg" viewBox="0 0 20 20"><path d="M10,20A10,10,0,1,1,20,10,10.01132,10.01132,0,0,1,10,20h0ZM10,0.44444A9.55556,9.55556,0,1,0,19.55556,10,9.56634,9.56634,0,0,0,10,.44444h0Z"/><path d="M10,4c-2.16933,0-4.36564.53742-4.36564,1.55828V7.49693c0,1.02086,2.19632,1.55828,4.36564,1.55828s4.36564-.535,4.36564-1.55828V5.55828C14.36564,4.53742,12.16933,4,10,4Zm0,0.51043c2.34847,0,3.85521.6135,3.85521,1.04785S12.34847,6.60613,10,6.60613s-3.85521-.6135-3.85521-1.04785S7.65153,4.51043,10,4.51043Zm0,4.03436c-2.34847,0-3.85521-.6135-3.85521-1.04785V6.32883A7.84374,7.84374,0,0,0,10,7.11411a7.84374,7.84374,0,0,0,3.85521-.78528v1.1681C13.85522,7.93129,12.34847,8.54479,10,8.54479Z"/><path d="M10,10.07607c-2.34847,0-3.85521-.6135-3.85521-1.04785H5.63436v1.9411c0,1.02086,2.19632,1.55828,4.36564,1.55828s4.36564-.535,4.36564-1.55828V9.02822H13.85521c0,0.43681-1.50675,1.04785-3.85521,1.04785h0Zm3.85521,0.89325c0,0.43436-1.50675,1.04785-3.85521,1.04785s-3.85521-.6135-3.85521-1.04785V9.79387c1.53129,1.04785,6.17914,1.04785,7.71043,0v1.17546Z"/><path d="M10,13.54847c-2.34847,0-3.85521-.6135-3.85521-1.04785H5.63436v1.9411C5.63436,15.46258,7.83067,16,10,16s4.36564-.535,4.36564-1.55828V12.50307H13.85521c0,0.4319-1.50675,1.0454-3.85521,1.0454h0Zm3.85521,0.89325c0,0.43436-1.50675,1.04785-3.85521,1.04785s-3.85521-.6135-3.85521-1.04785V13.26626c1.53129,1.04785,6.17914,1.04785,7.71043,0v1.17546Z"/></svg>