<svg xmlns="http://www.w3.org/2000/svg" viewBox="0 0 20 20"><path d="M10,20A10,10,0,1,1,20,10,10.01132,10.01132,0,0,1,10,20h0ZM10,0.44444A9.55556,9.55556,0,1,0,19.55556,10,9.56634,9.56634,0,0,0,10,.44444h0Z"/><path d="M7.32768,6.0212a0.57827,0.57827,0,0,0,.5439.39248H9.35206A0.57827,0.57827,0,0,0,9.896,6.0212a2.72438,2.72438,0,0,1,.50863-0.88558,0.59567,0.59567,0,0,0,.202-0.56621,0.567,0.567,0,0,0-.38412-0.43472,1.56553,1.56553,0,0,0-1.53367.19266,0.19107,0.19107,0,0,1-.24306,0,1.56586,1.56586,0,0,0-1.53367-.19246,0.56691,0.56691,0,0,0-.38432.43472,0.59567,0.59567,0,0,0,.202.56621A3.13718,3.13718,0,0,1,7.32768,6.0212ZM6.91906,4.64552A0.1693,0.1693,0,0,1,7.0374,4.51323a1.65339,1.65339,0,0,1,.5178-0.09185,0.9981,0.9981,0,0,1,.64172.21736,0.58943,0.58943,0,0,0,.74074,0,1.17366,1.17366,0,0,1,1.15952-.12552,0.16925,0.16925,0,0,1,.11814.13229,0.19414,0.19414,0,0,1-.06834.18628A3.09256,3.09256,0,0,0,9.51941,5.8915a0.17945,0.17945,0,0,1-.16715.12392H7.87178A0.17926,0.17926,0,0,1,7.70462,5.8915a3.44394,3.44394,0,0,0-.717-1.05971A0.19372,0.19372,0,0,1,6.91906,4.64552Z"/><path d="M10.30537,6.81215a0.1993,0.1993,0,0,0-.19923-0.19923,0.19469,0.19469,0,0,0-.09962.03048,0.19282,0.19282,0,0,0-.09962-0.03048H7.51615a0.19923,0.19923,0,1,0,0,.39846H9.90691V7.21061H7.71538a0.19923,0.19923,0,0,0,0,.39846H10.0912A0.986,0.986,0,0,0,11.429,7.55069,0.1992,0.1992,0,1,0,11.14732,7.269a0.61137,0.61137,0,0,1-.84195.00279V6.81215Z"/><path d="M8.31307,9.20291a3.33153,3.33153,0,0,0-2.78922,2.98845,0.19923,0.19923,0,1,0,.39846,0,2.97132,2.97132,0,0,1,2.39076-2.59A0.19923,0.19923,0,0,0,8.31307,9.20291Z"/><path d="M13.89152,10.39829a6.31333,6.31333,0,0,0-.69671.04,3.943,3.943,0,0,0-1.06887-1.25595l-1.43486-.97523A1.771,1.771,0,0,0,9.64592,7.8083H8.09651a1.71975,1.71975,0,0,0-1.05592.363L5.63044,9.19873a3.9056,3.9056,0,0,0-1.10593,4.815,2.16651,2.16651,0,0,0,1.49443,1.35995c0.054,0.00359.10858,0.00558,0.16357,0.00558h3.87682a1.58948,1.58948,0,0,0,2.60454-.17313,4.26735,4.26735,0,0,0,1.22766.17313c0.9581,0,1.9923-.30462,1.9923-0.79692V13.48656H15.86808a0.3493,0.3493,0,0,0,.01574-0.09962V11.09579C15.88382,10.54512,14.63146,10.39829,13.89152,10.39829Zm1.5787,0.69551-0.01335.01295-0.02769.01952c-0.01315.00837-.02909,0.01713-0.04642,0.0259-0.01415.00717-.02889,0.01454-0.04582,0.02192-0.02092.00936-.04562,0.01873-0.07093,0.02829-0.02032.00757-.04084,0.01514-0.064,0.02291-0.02909.00956-.06256,0.01913-0.09623,0.02849-0.0263.00737-.0522,0.01494-0.08129,0.02211-0.03785.00936-.08049,0.01793-0.12293,0.0265-0.03208.00657-.06256,0.01335-0.09722,0.01952-0.04782.00837-.10121,0.01554-0.154,0.02271-0.03606.005-.06973,0.01056-0.10818,0.01494-0.06276.00717-.13189,0.01215-0.20082,0.01713-0.03506.00259-.06694,0.00618-0.1036,0.00837-0.10878.006-.22393,0.00956-0.34686,0.00956s-0.23808-.00359-0.34686-0.00956c-0.03666-.002-0.06854-0.00558-0.1036-0.00837-0.06893-.00518-0.13807-0.01016-0.20082-0.01713-0.03845-.00438-0.07212-0.01-0.10818-0.01494-0.0528-.00717-0.10619-0.01434-0.154-0.02271-0.03467-.00618-0.06515-0.01295-0.09722-0.01952-0.04244-.00877-0.08507-0.01733-0.12293-0.0265-0.02909-.00717-0.05479-0.01454-0.08129-0.02211-0.03367-.00936-0.06694-0.01893-0.09623-0.02849-0.02311-.00757-0.04363-0.01534-0.064-0.02291-0.0253-.00956-0.05-0.01893-0.07093-0.02829-0.01693-.00737-0.03168-0.01474-0.04582-0.02192-0.01733-.009-0.03327-0.01773-0.04642-0.0259a0.298,0.298,0,0,1-.02769-0.01952l-0.01235-.012,0.00677-.00618a0.32293,0.32293,0,0,1,.02829-0.01992,0.62943,0.62943,0,0,1,.06-0.03367c0.01295-.00657.0257-0.01295,0.04084-0.01952,0.01574-.007.03387-0.01395,0.052-0.02112,0.02152-.00837.045-0.01674,0.06993-0.0251,0.01793-.006.03526-0.01215,0.05519-0.01813,0.04463-.01355.09344-0.0269,0.147-0.03985,0.0247-.006.05339-0.01136,0.08029-0.01693,0.03247-.007.06575-0.01375,0.101-0.02012,0.03885-.007.08009-0.01355,0.12273-0.01992a5.4408,5.4408,0,0,1,.81386-0.05738A2.97876,2.97876,0,0,1,15.47022,11.0938Zm-3.03806,1.63907c0.01793,0.00757.03646,0.01474,0.05519,0.02211,0.03467,0.01355.07013,0.0263,0.10679,0.03885l0.058,0.01913c0.042,0.01315.08527,0.0253,0.1295,0.03706,0.01554,0.00418.03048,0.00877,0.04622,0.01255,0.06037,0.01514.12213,0.02909,0.18548,0.04144l0.04024,0.00717q0.07621,0.01434.1544,0.0261c0.02231,0.00339.04483,0.00618,0.06734,0.00916,0.04483,0.006.08985,0.01136,0.13548,0.01614l0.07172,0.007c0.047,0.00418.09424,0.00737,0.14165,0.01016l0.06336,0.00379c0.06814,0.003.13607,0.005,0.20381,0.005s0.13568-.002.20381-0.005l0.06455-.00379c0.04682-.00279.09364-0.006,0.14026-0.01l0.07332-.00717q0.06724-.00687.13348-0.01594l0.06913-.00936c0.0514-.00757.102-0.01634,0.152-0.0257l0.04264-.00757q0.09444-.01883.18449-0.04124l0.04921-.01335c0.04323-.01156.08567-0.02351,0.12671-0.03646l0.059-.01952q0.05469-.01853.10639-0.03865l0.055-.02211c0.03586-.01514.06993-0.03108,0.1028-0.04742l0.03208-.01474,0.0012,0.70209a2.12209,2.12209,0,0,1-1.37389.40643c-0.07292.00259-.14345,0.00618-0.22214,0.00618a3.72,3.72,0,0,1-1.20355-.18568l-0.00379-.006c-0.02351-.041-0.04841-0.08109-0.07531-0.11974l-0.01275-.01693c-0.0249-.03487-0.0506-0.06893-0.0783-0.10161l-0.0259-.02849c-0.02451-.02769-0.04921-0.055-0.07551-0.08089-0.01355-.01335-0.02809-0.0253-0.042-0.03825-0.02311-.02112-0.04582-0.04224-0.06993-0.062l-0.00677-.006c0-.0779.0002-0.251,0.0004-0.46879,0.01016,0.00538.02231,0.01,0.03267,0.01514C12.36342,12.70219,12.39689,12.71793,12.43216,12.73287Zm-2.632,2.24772H6.1825c-0.046,0-.09185-0.00159-0.13707-0.00458a1.76817,1.76817,0,0,1-1.1657-1.14259,3.50446,3.50446,0,0,1,.991-4.31712L7.28086,8.48887a1.32587,1.32587,0,0,1,.81545-0.28211H9.64572a1.39724,1.39724,0,0,1,.81206.32335l1.43486,0.975a3.52516,3.52516,0,0,1,.88558.99635,1.87075,1.87075,0,0,0-.66364.24764l-0.01375.00956a0.64957,0.64957,0,0,0-.06953.058c-0.009.00857-.01693,0.01733-0.0251,0.0263a0.45068,0.45068,0,0,0-.04323.05359,0.38791,0.38791,0,0,0-.0259.04821,0.3717,0.3717,0,0,0-.02032.04443,0.34131,0.34131,0,0,0-.01773.10639v1.8108a1.56359,1.56359,0,0,0-.208-0.06714l-0.02809-.00717a1.57627,1.57627,0,0,0-.21357-0.03546l-0.02451-.0012c-0.04084-.00319-0.08188-0.00618-0.12352-0.00618-0.02192,0-.043.00239-0.06475,0.00319l-0.0508.00259a1.60555,1.60555,0,0,0-.20919.02749l-0.004.0006-0.01574.00458a1.52287,1.52287,0,0,0-.18249.053c-0.02152.00757-.043,0.01514-0.06415,0.02351a1.57976,1.57976,0,0,0-.17253.08049c-0.02092.01136-.04044,0.02451-0.06077,0.03686-0.03885.02371-.0767,0.04861-0.11316,0.07551-0.02152.01574-.04323,0.03108-0.064,0.04782a1.57227,1.57227,0,0,0-.13368.12133c-0.01853.01873-.03546,0.03865-0.053,0.05837-0.02988.03347-.05837,0.06834-0.08527,0.1042-0.01454.01952-.02988,0.03805-0.04363,0.05818a1.57736,1.57736,0,0,0-.09523.16018c-0.01116.02152-.02132,0.04343-0.03168,0.06555a1.56361,1.56361,0,0,0-.06077.15c-0.00518.01494-.01156,0.02909-0.01614,0.04423a1.57843,1.57843,0,0,0-.04742.20162l-0.00618.0259c-0.00159.01076-.00159,0.02231-0.003,0.03307-0.00638.04682-.01036,0.09424-0.01255,0.14225-0.0008.01713-.00239,0.03407-0.00259,0.0514l-0.0012.02192c0,0.03168.003,0.06256,0.00478,0.09364A1.9096,1.9096,0,0,0,9.80013,14.98059Zm1.5014,0.59769A1.19619,1.19619,0,0,1,10.10694,14.397l0.001-.04642c0.0006-.02192.00159-0.04363,0.00339-0.06535,0.00139-.01833.00359-0.03646,0.00578-0.05459q0.00359-.02779.00837-0.055a1.157,1.157,0,0,1,.03626-0.15261l0.00578-.01554a1.16578,1.16578,0,0,1,.06017-0.146l0.00657-.01355a1.22887,1.22887,0,0,1,.48234-0.50624l0.00219-.00139a1.182,1.182,0,0,1,.14544-0.06873l0.039-.01434a1.117,1.117,0,0,1,.13568-0.03965l0.01873-.00478a1.22073,1.22073,0,0,1,.17293-0.02152l0.03307-.00159a1.19224,1.19224,0,0,1,.17512.00657l0.00976,0.00159a1.17187,1.17187,0,0,1,.1807.03686l0.00259,0.0006a1.26109,1.26109,0,0,1,.33491.1552l0.008,0.00558L11.99485,13.411a1.2019,1.2019,0,0,1,.09523.07571l0.02172,0.01972a1.21784,1.21784,0,0,1,.08686.08886L12.207,13.6045a1.1922,1.1922,0,0,1,.16177.24266c0.01016,0.01992.02032,0.04,0.02929,0.06057,0.01514,0.03487.02829,0.07013,0.04,0.10579l0.00279,0.00777c0.01156,0.03606.02092,0.07272,0.02889,0.10958L12.472,14.13943c0.00757,0.03666.01315,0.07371,0.01733,0.111l0.00159,0.00976a1.19676,1.19676,0,0,1,.00638.12273,1.20972,1.20972,0,0,1-.00677.12611l-0.00279.01813c-0.00438.03606-.00976,0.07192-0.01753,0.10719l-0.003.01175c-0.00857.03785-.01873,0.07531-0.03108,0.11237l-0.00179.00478q-0.01972.058-.04542,0.11436A1.1975,1.1975,0,0,1,11.30152,15.57828Zm2.59-.59769a3.90791,3.90791,0,0,1-1.06369-.14066l0.0002-.0012a1.59843,1.59843,0,0,0,.04463-0.19883L12.88,14.59149a1.60126,1.60126,0,0,0,.01534-0.20859c0-.0516-0.00279-0.1028-0.00777-0.15361-0.00179-.01833-0.005-0.03606-0.00737-0.05419-0.00339-.0257-0.00578-0.0516-0.01036-0.0769a5.73378,5.73378,0,0,0,1.02165.08547,4.49274,4.49274,0,0,0,1.59464-.25083l0.0012,0.63515A2.35535,2.35535,0,0,1,13.89152,14.98059Zm0-2.39076a2.47526,2.47526,0,0,1-1.59285-.39726c0.0002-.22712.0004-0.45763,0.0004-0.64969L12.31521,11.549c0.04762,0.02032.09742,0.03945,0.15042,0.057l0.00857,0.00279c0.05419,0.01753.11137,0.03327,0.16974,0.04782l0.05837,0.01355c0.04264,0.00976.08567,0.01913,0.1297,0.02749l0.064,0.012c0.04841,0.00857.097,0.01614,0.14624,0.02331l0.04642,0.007c0.06435,0.00857.1287,0.01614,0.19266,0.02231l0.048,0.00418c0.04921,0.00438.09782,0.00837,0.146,0.01156l0.06176,0.00379c0.04463,0.00259.08806,0.00458,0.13109,0.00618l0.054,0.002c0.05837,0.00159.11535,0.00259,0.16915,0.00259,0.05359,0,.11057-0.001.16895-0.00259l0.05479-.002c0.04264-.00159.08587-0.00359,0.1303-0.00618l0.06256-.00379q0.07232-.00478.14624-0.01175l0.04742-.00418c0.06415-.00638.1285-0.01375,0.19285-0.02251l0.047-.007q0.07352-.01046.14584-0.02331l0.06415-.012c0.044-.00857.08726-0.01773,0.1301-0.02769L15.1397,11.656c0.05957-.01494.11774-0.03088,0.17293-0.04881l0.008-.00279c0.052-.01713.10121-0.03606,0.148-0.056l0.01773-.00677,0.0012,0.63515A2.35339,2.35339,0,0,1,13.89152,12.58982Z"/></svg>