<svg xmlns="http://www.w3.org/2000/svg" viewBox="0 0 20 20"><path d="M10,0A10,10,0,1,0,20,10,10.01134,10.01134,0,0,0,10,0Zm0,19.55554A9.55554,9.55554,0,1,1,19.55554,10,9.56632,9.56632,0,0,1,10,19.55554Z"/><path d="M13.71552,4.63306H6.28442a0.20645,0.20645,0,0,0-.20642.20642v10.321a0.20643,0.20643,0,0,0,.31262.177l0.91309-.54785,0.71466,0.536a0.20644,0.20644,0,0,0,.23.01184l0.91309-.54785,0.71466,0.536a0.20645,0.20645,0,0,0,.23.01184l0.91309-.54785,0.71466,0.536a0.20645,0.20645,0,0,0,.23.01184l0.91309-.54785,0.71466,0.536a0.20642,0.20642,0,0,0,.33026-0.16516V4.83948A0.20654,0.20654,0,0,0,13.71552,4.63306ZM12.78363,14.3642l-0.91309.54785-0.71466-.536a0.20644,0.20644,0,0,0-.23-0.01184l-0.91309.54785L9.2981,14.376a0.20634,0.20634,0,0,0-.23-0.01184L8.155,14.912l-0.71466-.536a0.20634,0.20634,0,0,0-.23-0.01184l-0.71948.4317v-9.75H13.509v9.70166L13.01367,14.376A0.20634,0.20634,0,0,0,12.78363,14.3642Z"/><path d="M7.31653,6.90369h1.0321a0.20642,0.20642,0,0,0,0-.41284H7.31653A0.20642,0.20642,0,0,0,7.31653,6.90369Z"/><path d="M12.27057,7.52295h-1.0321a0.20642,0.20642,0,1,0,0,.41284h1.0321A0.20642,0.20642,0,1,0,12.27057,7.52295Z"/><path d="M12.27057,8.55505h-1.0321a0.20642,0.20642,0,1,0,0,.41284h1.0321A0.20642,0.20642,0,1,0,12.27057,8.55505Z"/><path d="M12.27057,9.58716h-1.0321a0.20639,0.20639,0,1,0,0,.41278h1.0321A0.20639,0.20639,0,1,0,12.27057,9.58716Z"/><path d="M12.27057,10.61926h-1.0321a0.20639,0.20639,0,1,0,0,.41278h1.0321A0.20639,0.20639,0,1,0,12.27057,10.61926Z"/><path d="M12.27057,11.65137h-1.0321a0.20639,0.20639,0,1,0,0,.41278h1.0321A0.20639,0.20639,0,1,0,12.27057,11.65137Z"/><path d="M10.20642,7.52295H7.31653a0.20642,0.20642,0,0,0,0,.41284h2.88989A0.20642,0.20642,0,1,0,10.20642,7.52295Z"/><path d="M10.20642,8.55505H7.31653a0.20642,0.20642,0,0,0,0,.41284h2.88989A0.20642,0.20642,0,1,0,10.20642,8.55505Z"/><path d="M10.20642,9.58716H7.31653a0.20639,0.20639,0,1,0,0,.41278h2.88989A0.20639,0.20639,0,1,0,10.20642,9.58716Z"/><path d="M10.20642,10.61926H7.31653a0.20639,0.20639,0,1,0,0,.41278h2.88989A0.20639,0.20639,0,1,0,10.20642,10.61926Z"/><path d="M10.20642,11.65137H7.31653a0.20639,0.20639,0,1,0,0,.41278h2.88989A0.20639,0.20639,0,1,0,10.20642,11.65137Z"/></svg>