<svg xmlns="http://www.w3.org/2000/svg" viewBox="0 0 20 20"><path d="M10,20A10,10,0,1,1,20,10,10.01135,10.01135,0,0,1,10,20h0ZM10,0.44444A9.55556,9.55556,0,1,0,19.55556,10,9.56632,9.56632,0,0,0,10,.44444h0Z"/><path d="M14,15.12978H6a0.66739,0.66739,0,0,1-.66667-0.66667V9.72178A0.66739,0.66739,0,0,1,6,9.05511h8a0.66742,0.66742,0,0,1,.66667.66667v4.74133A0.66742,0.66742,0,0,1,14,15.12978h0ZM6,9.49956a0.2225,0.2225,0,0,0-.22222.22222v4.74133A0.2225,0.2225,0,0,0,6,14.68533h8a0.22253,0.22253,0,0,0,.22222-0.22222V9.72178A0.22253,0.22253,0,0,0,14,9.49956H6Z"/><path d="M12.85156,9.39018A0.22208,0.22208,0,0,1,12.62933,9.168V7.94489a2.62978,2.62978,0,1,0-5.25956,0V9.168a0.22222,0.22222,0,0,1-.44444,0V7.94489a3.07422,3.07422,0,1,1,6.14844,0V9.168a0.2221,0.2221,0,0,1-.22222.22222h0Z"/><path d="M10.66578,13.57422H9.33244V12.43187a1.14814,1.14814,0,1,1,1.33333.00044v1.14191h0Zm-0.88889-.44444h0.44444V12.17924l0.11458-.06338a0.70389,0.70389,0,1,0-.674-0.00107l0.115,0.06338v0.9516h0Z"/></svg>