<svg xmlns="http://www.w3.org/2000/svg" viewBox="0 0 20 20"><path d="M10,20A10,10,0,1,1,20,10,10.01132,10.01132,0,0,1,10,20h0ZM10,0.44444A9.55556,9.55556,0,1,0,19.55556,10,9.56634,9.56634,0,0,0,10,.44444h0Z"/><path d="M15.27455,15.1869H5.03559a1.12567,1.12567,0,0,1-1.12436-1.12436V6.26212A1.12567,1.12567,0,0,1,5.03559,5.13775H8.58381l0.024-.00929,4.8187-1.52617a0.2038,0.2038,0,0,1,.25879.14293l0.36291,1.39253h1.22644A1.12567,1.12567,0,0,1,16.399,6.26212v7.80042A1.12579,1.12579,0,0,1,15.27455,15.1869ZM5.03559,5.54543a0.71748,0.71748,0,0,0-.71669.71669v7.80042a0.71748,0.71748,0,0,0,.71669.71669h10.239a0.71748,0.71748,0,0,0,.71669-0.71669v-2.4206H14.0605a0.89933,0.89933,0,0,1-.89835-0.89827V9.5809a0.89933,0.89933,0,0,1,.89835-0.89827h1.93074V6.26212a0.71748,0.71748,0,0,0-.71669-0.71669H5.03559ZM14.0605,9.09031a0.4912,0.4912,0,0,0-.49068.49059v1.16285a0.4912,0.4912,0,0,0,.49068.49059h1.93074v-2.144H14.0605ZM9.92873,5.13775h3.69809l-0.28195-1.082Zm4.7825,5.74917a0.72468,0.72468,0,1,1,.72468-0.72468A0.72554,0.72554,0,0,1,14.71123,10.88693Zm0-1.04161a0.317,0.317,0,1,0,.317.317A0.31735,0.31735,0,0,0,14.71123,9.84532Z"/><path d="M7.85072,10.61565V11.2129h3.57773v1.07922H7.85072v0.59674L6.31719,11.75251l1.53353-1.13687m0-.27206a0.27159,0.27159,0,0,0-.16207.05354L6.15512,11.534a0.2722,0.2722,0,0,0,0,.43718l1.53353,1.13635a0.27236,0.27236,0,0,0,.16207.0534,0.27237,0.27237,0,0,0,.27206-0.27206V12.56418h3.30566a0.272,0.272,0,0,0,.27206-0.27206V11.2129a0.272,0.272,0,0,0-.27206-0.27206H8.12278v-0.3252a0.2723,0.2723,0,0,0-.27206-0.27206h0Z"/><path d="M9.89437,7.4415L11.4279,8.57784,9.89437,9.71471V9.11745H6.31719V8.03824H9.89437V7.4415m0-.27206a0.2723,0.2723,0,0,0-.27206.27206V7.76617H6.31719a0.272,0.272,0,0,0-.27206.27206V9.11745a0.272,0.272,0,0,0,.27206.27206H9.62231V9.71471a0.27206,0.27206,0,0,0,.43413.21852L11.59,8.79637a0.27222,0.27222,0,0,0,0-.4372L10.05644,7.22284a0.2723,0.2723,0,0,0-.16207-0.05341h0Z"/></svg>