<svg xmlns="http://www.w3.org/2000/svg" xmlns:xlink="http://www.w3.org/1999/xlink" x="0px" y="0px"
	 width="40px" height="40px" viewBox="0 0 40 40" style="enable-background:new 0 0 40 40;" xml:space="preserve">
<path class="st0" d="M37.383,8.333H26.417V6.167c0-1.233-1-2.233-2.233-2.233l0,0H15.5c-1.207,0.036-2.167,1.025-2.167,2.233 v2.167H2.617C1.145,8.379-0.019,9.595,0,11.067v22.1c0.008,1.572,1.262,2.855,2.833,2.9H37.15c1.578-0.036,2.841-1.321,2.85-2.9 l0,0V11.05C40.01,9.584,38.848,8.379,37.383,8.333z M14.383,6.167C14.365,5.541,14.857,5.019,15.483,5c0.006,0,0.012,0,0.017,0 h8.683c0.613,0.009,1.108,0.504,1.117,1.117v2.217H14.383V6.167z M1.05,11.167c0.044-0.955,0.827-1.709,1.783-1.717H37.15 c0.994,0,1.8,0.806,1.8,1.8v10.817c-0.042,0.857-0.727,1.541-1.583,1.583h-15v-1.567c0-0.736-0.597-1.333-1.333-1.333h-2.017 c-0.727-0.009-1.324,0.573-1.333,1.3c0,0.011,0,0.022,0,0.034v1.567h-15c-0.857-0.042-1.541-0.727-1.583-1.583L1.05,11.167z M18.783,23.567V22c0-0.12,0.096-0.217,0.216-0.217c0.006,0,0.012,0,0.017,0.001h1.967c0.129,0,0.233,0.104,0.233,0.233v1.567 L18.783,23.567z M21.2,24.667v1.567c0.01,0.119-0.079,0.224-0.199,0.233c-0.012,0.001-0.023,0.001-0.035,0h-1.95 c-0.129,0-0.233-0.104-0.233-0.233v-1.567H21.2z M38.967,33c0.11,0.988-0.601,1.878-1.589,1.989 C37.308,34.997,37.237,35,37.167,35H2.834c-0.994,0-1.8-0.806-1.8-1.8c0-0.011,0-0.022,0-0.034V24.25 c0.46,0.336,1.014,0.517,1.583,0.517h15v1.567c0,0.736,0.597,1.333,1.333,1.333h1.967c0.727,0.009,1.324-0.573,1.333-1.3 c0-0.011,0-0.022,0-0.034V24.75h15c0.598,0.018,1.184-0.164,1.667-0.517v8.933L38.967,33z"/>
</svg>
