<svg xmlns="http://www.w3.org/2000/svg" viewBox="0 0 20 20"><path d="M10,20A10,10,0,1,1,20,10,10.01143,10.01143,0,0,1,10,20ZM10,0.60606A9.39394,9.39394,0,1,0,19.39394,10,9.40437,9.40437,0,0,0,10,.60606Z"/><path d="M10,20a9.92783,9.92783,0,0,1-5.78727-1.85455,0.30282,0.30282,0,0,1,.0703-0.53091c2.51273-.9303,2.91818-1.68545,2.91818-3.13273A1.04983,1.04983,0,0,0,6.96,13.74606a3.99219,3.99219,0,0,1-.68424-1.78121,0.2436,0.2436,0,0,0-.19152-0.23273c-0.36727-.177-0.70485-0.43152-0.79333-1.59273a1.4035,1.4035,0,0,1,.35455-1.03515c-0.03515-.2-0.09273-0.54485-0.14667-0.92061-0.27455-1.683-.28667-3.74424,2.08061-4.70242,2.063-.83636,3.7097-0.37939,4.22667.16545a2.71387,2.71387,0,0,1,1.96727.87151c1.01091,1.17576.68909,3.85636,0.57879,4.583a1.35951,1.35951,0,0,1,.357,1.01515c-0.08848,1.18424-.42606,1.43939-0.79394,1.61576a0.2418,0.2418,0,0,0-.19152.23273A3.994,3.994,0,0,1,13.04,13.74606a1.046,1.046,0,0,0-.24121.73576c0,1.44727.40545,2.20242,2.91818,3.13273a0.30282,0.30282,0,0,1,.0703.53091A9.92784,9.92784,0,0,1,10,20ZM5.04061,17.9703a9.35011,9.35011,0,0,0,9.91879,0c-2.10545-.86424-2.76667-1.73576-2.76667-3.48788A1.62589,1.62589,0,0,1,12.54,13.40424a3.437,3.437,0,0,0,.58849-1.54909,0.82416,0.82416,0,0,1,.52424-0.66849c0.18849-.0903.38242-0.18364,0.45091-1.09273A0.65221,0.65221,0,0,0,13.88667,9.5a0.32294,0.32294,0,0,1-.16-0.32545c0.1503-.80545.39758-3.31758-0.41273-4.26121a2.11964,2.11964,0,0,0-1.59151-.65455,0.50438,0.50438,0,0,1-.08121-0.0097,0.48375,0.48375,0,0,1-.25273-0.15879C11.22364,3.80788,9.78788,3.24,7.80667,4.04182c-1.95818.79273-1.96242,2.49212-1.70848,4.0497,0.08364,0.58.17515,1.08121,0.17576,1.08364a0.30311,0.30311,0,0,1-.17152.3297h0a0.698,0.698,0,0,0-.20545.61091c0.06788,0.88545.26242,0.97939,0.4503,1.0697a0.82459,0.82459,0,0,1,.52485.66849A3.43143,3.43143,0,0,0,7.46,13.403a1.62252,1.62252,0,0,1,.34788,1.07818C7.80788,16.23515,7.14667,17.10667,5.04061,17.9703Z"/></svg>