<svg xmlns="http://www.w3.org/2000/svg" viewBox="0 0 20 20"><path d="M10,20A10,10,0,1,1,20,10,10.0112,10.0112,0,0,1,10,20h0ZM10,0.44444A9.55556,9.55556,0,1,0,19.55556,10,9.56645,9.56645,0,0,0,10,.44444h0Z"/><path d="M14,14.12369H11.1571a0.22209,0.22209,0,0,1-.22222-0.22222V10.878H9.06509v3.02342a0.22209,0.22209,0,0,1-.22222.22222H6a0.22208,0.22208,0,0,1-.22222-0.22222V9.28516a0.22222,0.22222,0,0,1,.44444,0v4.39409H8.62065V10.65582a0.22209,0.22209,0,0,1,.22222-0.22222H11.1571a0.22208,0.22208,0,0,1,.22222.22222v3.02342h2.39845V9.28516a0.22222,0.22222,0,0,1,.44444,0v4.61631A0.2221,0.2221,0,0,1,14,14.12369h0Z"/><path d="M15.3392,10.14453A0.22134,0.22134,0,0,1,15.21,10.10307L10,6.372,4.78992,10.10307a0.22226,0.22226,0,1,1-.25867-0.36151l5.3394-3.82382a0.223,0.223,0,0,1,.25868,0l5.33943,3.82382a0.22223,0.22223,0,0,1-.12956.403h0Z"/></svg>