<svg xmlns="http://www.w3.org/2000/svg" viewBox="0 0 20 20"><path d="M10,20A10,10,0,1,1,20,10,10.01132,10.01132,0,0,1,10,20h0ZM10,0.44444A9.55556,9.55556,0,1,0,19.55556,10,9.56634,9.56634,0,0,0,10,.44444h0Z"/><path d="M15.77539,9.5463H14.868V8.64058a1.13724,1.13724,0,0,0-1.13607-1.1359H6.02272a1.12952,1.12952,0,0,0-.68237.22965V6.5965a0.68184,0.68184,0,0,1,.68237-0.67977h7.7092a0.68277,0.68277,0,0,1,.68237.68165V6.94918a0.22685,0.22685,0,0,0,.4537,0V6.59837A1.137,1.137,0,0,0,13.73192,5.463H6.02272A1.13605,1.13605,0,0,0,4.88665,6.5965v6.80582A1.13663,1.13663,0,0,0,6.02272,14.537h7.7092A1.136,1.136,0,0,0,14.868,13.40367V11.81479h0.9074a0.22687,0.22687,0,0,0,.22685-0.22685V9.77315A0.22687,0.22687,0,0,0,15.77539,9.5463Zm-1.3611,3.85737a0.68177,0.68177,0,0,1-.68237.67961H6.02272a0.68243,0.68243,0,0,1-.68237-0.681v-4.763a0.68245,0.68245,0,0,1,.68237-0.681h7.7092a0.68306,0.68306,0,0,1,.68237.68222V9.5463H12.5995a0.22687,0.22687,0,0,0-.22685.22685v1.81479a0.22687,0.22687,0,0,0,.22685.22685h1.81479v1.58888Zm1.13425-2.04258H12.82635V10h2.72219v1.3611Z"/><rect x="6.24775" y="6.37041"/></svg>