<svg id="Layer_25" data-name="Layer 25" xmlns="http://www.w3.org/2000/svg" viewBox="0 0 20 20"><defs><style>.cls-1{fill:#00628a;}</style></defs><title>info blue</title><path class="cls-1" d="M10,20A10,10,0,1,1,20,10,10,10,0,0,1,10,20h0ZM10,0.44A9.56,9.56,0,1,0,19.56,10,9.57,9.57,0,0,0,10,.44h0Z"/><path class="cls-1" d="M11.29,13.34a2.12,2.12,0,0,1-1.16.83c-0.17,0-.23-0.15-0.19-0.49,0.11-.89.78-3.75,1-4.77S11,7.59,10.8,7.59A5.39,5.39,0,0,0,8.41,9.14a1,1,0,0,0-.07.49,0.08,0.08,0,0,0,.06.06,2.24,2.24,0,0,1,1-.57c0.09,0,.13.15,0.07,0.42-0.23,1.14-.61,2.9-0.89,4.35-0.27,1.27-.1,1.78.3,1.78a4.08,4.08,0,0,0,2.39-1.72,1.9,1.9,0,0,0,.06-0.55A0.08,0.08,0,0,0,11.29,13.34Z"/><path class="cls-1" d="M11.12,4.33a1.44,1.44,0,0,0-.91.34A1.5,1.5,0,0,0,10,5.2a0.71,0.71,0,0,0,.3.65,1.67,1.67,0,0,0,.85-0.06A1.14,1.14,0,0,0,11.67,5a0.91,0.91,0,0,0-.09-0.51A0.6,0.6,0,0,0,11.12,4.33Z"/></svg>