<svg version="1.1" id="Layer_1" xmlns="http://www.w3.org/2000/svg" xmlns:xlink="http://www.w3.org/1999/xlink" x="0px" y="0px"
	 viewBox="0 0 512 512" style="enable-background:new 0 0 512 512;" xml:space="preserve">
	<path class="st0" d="M183.9,102h320c4.4,0,8-3.6,8-8c0-4.4-3.6-8-8-8h-320c-4.4,0-8,3.6-8,8C175.9,98.4,179.5,102,183.9,102z"/>
	<path class="st0" d="M503.9,250.4h-320c-4.4,0-8,3.6-8,8c0,4.4,3.6,8,8,8h320c4.4,0,8-3.6,8-8C511.9,253.9,508.3,250.4,503.9,250.4
		z"/>
	<path class="st0" d="M503.9,410h-320c-4.4,0-8,3.6-8,8c0,4.4,3.6,8,8,8h320c4.4,0,8-3.6,8-8C511.9,413.6,508.3,410,503.9,410z"/>
	<path class="st0" d="M47.9,46.3C21.5,46.3,0.1,67.7,0.1,94c0,26.3,21.4,47.7,47.7,47.7c26.3,0,47.7-21.4,47.7-47.7
		C95.6,67.7,74.2,46.3,47.9,46.3z M47.9,126.3c-17.8,0-32.3-14.5-32.3-32.3c0-17.8,14.5-32.3,32.3-32.3c17.8,0,32.3,14.5,32.3,32.3
		C80.1,111.8,65.7,126.3,47.9,126.3z"/>
	<path class="st0" d="M47.9,210.6c-26.3,0-47.7,21.4-47.7,47.7c0,26.3,21.4,47.7,47.7,47.7c26.3,0,47.7-21.4,47.7-47.7
		C95.6,232,74.2,210.6,47.9,210.6z M47.9,290.6c-17.8,0-32.3-14.5-32.3-32.3c0-17.8,14.5-32.3,32.3-32.3c17.8,0,32.3,14.5,32.3,32.3
		C80.1,276.2,65.7,290.6,47.9,290.6z"/>
	<path class="st0" d="M47.9,370.3c-26.3,0-47.7,21.4-47.7,47.7c0,26.3,21.4,47.7,47.7,47.7c26.3,0,47.7-21.4,47.7-47.7
		C95.6,391.7,74.2,370.3,47.9,370.3z M47.9,450.3c-17.8,0-32.3-14.5-32.3-32.3c0-17.8,14.5-32.3,32.3-32.3
		c17.8,0,32.3,14.5,32.3,32.3C80.1,435.8,65.7,450.3,47.9,450.3z"/>
</svg>
