<svg xmlns="http://www.w3.org/2000/svg" viewBox="0 0 20 20"><path d="M10,20A10,10,0,1,1,20,10,10.01135,10.01135,0,0,1,10,20h0ZM10,0.44444A9.55556,9.55556,0,1,0,19.55556,10,9.56632,9.56632,0,0,0,10,.44444h0Z"/><path d="M13.855,10.22222H6.145a0.22822,0.22822,0,0,1,0-.44444h7.71a0.22822,0.22822,0,0,1,0,.44444h0Z"/><path d="M13.855,12.48133H6.145a0.22822,0.22822,0,0,1,0-.44444h7.71a0.22822,0.22822,0,0,1,0,.44444h0Z"/><path d="M13.855,7.96311H6.145a0.22822,0.22822,0,0,1,0-.44444h7.71a0.22822,0.22822,0,0,1,0,.44444h0Z"/></svg>