<svg xmlns="http://www.w3.org/2000/svg"
	xmlns:xlink="http://www.w3.org/1999/xlink"
	width="40px" height="40px" viewBox="0 0 40 40">
<path fillRule="evenodd" d="M 20 39C 30.48 39 39 30.48 39 20 39 9.52 30.48 1 20 1 9.52 1 1 9.52 1 20 1 30.48 9.52 39 20 39M 20 40C 8.95 40-0 31.05-0 20-0 8.95 8.95-0 20-0 31.05-0 40 8.95 40 20 40 31.05 31.05 40 20 40 20 40 20 40 20 40Z"/><path fillRule="evenodd" d="M 30 17.69C 30 17.69 30 27 30 27 30 27 10 27 10 27 10 27 10 14.33 10 14.33 10 14.33 10 14.33 10 14.33 10 14.33 10 13 10 13 10 13 11.41 13 11.41 13 11.41 13 28.59 13 28.59 13 28.59 13 30 13 30 13 30 13 30 14.34 30 14.34 30 14.34 30 17.69 30 17.69 30 17.69 30 17.69 30 17.69ZM 27.85 25.67C 27.85 25.67 22.46 20.97 22.46 20.97 22.46 20.97 20.34 22.33 20.34 22.33 20.34 22.33 17.75 20.79 17.75 20.79 17.75 20.79 12.15 25.67 12.15 25.67 12.15 25.67 27.85 25.67 27.85 25.67ZM 11.38 17.69C 11.38 17.69 11.38 24.41 11.38 24.41 11.38 24.41 16.47 20.03 16.47 20.03 16.47 20.03 11.41 17.02 11.41 17.02 11.41 17.02 11.41 17.69 11.41 17.69 11.41 17.69 11.38 17.69 11.38 17.69ZM 28.59 14.34C 28.59 14.34 11.41 14.34 11.41 14.34 11.41 14.34 11.41 15.15 11.41 15.15 11.41 15.15 20.34 20.33 20.34 20.33 20.34 20.33 28.59 15.21 28.59 15.21 28.59 15.21 28.59 14.34 28.59 14.34ZM 28.59 17.69C 28.59 17.69 28.59 17.02 28.59 17.02 28.59 17.02 23.69 20.17 23.69 20.17 23.69 20.17 28.62 24.41 28.62 24.41 28.62 24.41 28.62 17.69 28.62 17.69 28.62 17.69 28.59 17.69 28.59 17.69Z"/></svg>