<svg xmlns="http://www.w3.org/2000/svg" viewBox="0 0 20 20"><path d="M10,20A10,10,0,1,1,20,10,10,10,0,0,1,10,20h0ZM10,0.44A9.56,9.56,0,1,0,19.56,10,9.57,9.57,0,0,0,10,.44h0Z"/><path d="M5.32,14.15l-0.1,0a0.22,0.22,0,0,1-.1-0.3l0.12-.24c0.39-.75.52-1,0.72-3.56A4,4,0,0,1,9.9,6h0.27a0.22,0.22,0,0,1,0,.44H9.9C8,6.44,6.57,7.89,6.4,10.07,6.2,12.71,6.06,13,5.64,13.79L5.51,14a0.22,0.22,0,0,1-.2.12h0Z"/><path d="M14.68,14.15a0.22,0.22,0,0,1-.2-0.12l-0.12-.24c-0.42-.81-0.56-1.08-0.77-3.73C13.43,7.89,12,6.44,10.1,6.44H9.82a0.22,0.22,0,0,1,0-.44H10.1A4,4,0,0,1,14,10c0.2,2.55.33,2.8,0.72,3.56l0.12,0.24a0.22,0.22,0,0,1-.1.3l-0.1,0h0Z"/><path d="M5.24,14.17a0.22,0.22,0,0,1,0-.44,23.54,23.54,0,0,1,9.61,0,0.22,0.22,0,0,1-.09.43,23.11,23.11,0,0,0-9.43,0h0Z"/><path d="M10,6.34a0.22,0.22,0,0,1-.22-0.22V5.22a0.22,0.22,0,1,1,.44,0v0.9a0.22,0.22,0,0,1-.22.22h0Z"/><path d="M10,15a1.11,1.11,0,0,1-1.11-1.11,0.22,0.22,0,0,1,.44,0,0.66,0.66,0,0,0,1.33,0,0.22,0.22,0,0,1,.44,0A1.11,1.11,0,0,1,10,15h0Z"/></svg>