<svg xmlns="http://www.w3.org/2000/svg" xmlns:xlink="http://www.w3.org/1999/xlink" x="0px" y="0px" viewBox="0 0 20 20" style="enable-background:new 0 0 20 20;" xml:space="preserve">
<path class="st0" d="M10,20C4.5,20,0,15.5,0,10C0,4.5,4.5,0,10,0s10,4.5,10,10C20,15.5,15.5,20,10,20L10,20z M10,0.4
c-5.3,0-9.6,4.3-9.6,9.6s4.3,9.6,9.6,9.6s9.6-4.3,9.6-9.6S15.3,0.4,10,0.4L10,0.4z"/>
<path class="st0" d="M8.2,14.2c-0.1,0-0.1,0-0.2-0.1L5.1,11c-0.1-0.1-0.1-0.2,0-0.3c0.1-0.1,0.2-0.1,0.3,0l2.8,2.9l6.3-7.7 c0.1-0.1,0.2-0.1,0.3,0c0.1,0.1,0.1,0.2,0,0.3l-6.5,7.9C8.4,14.2,8.3,14.2,8.2,14.2C8.2,14.2,8.2,14.2,8.2,14.2L8.2,14.2z"/>
</svg>
