<svg xmlns="http://www.w3.org/2000/svg"
	xmlns:xlink="http://www.w3.org/1999/xlink"
	width="36px" height="36px" viewBox="0 0 36 36">
<path fillRule="evenodd" d="M 18 36C 8.07 36 0 27.93 0 18 0 8.07 8.07-0 18-0 27.93-0 36 8.07 36 18 36 27.93 27.93 36 18 36ZM 18 0.8C 8.52 0.8 0.8 8.52 0.8 18 0.8 27.48 8.52 35.2 18 35.2 27.48 35.2 35.2 27.48 35.2 18 35.2 8.52 27.48 0.8 18 0.8ZM 18 24.17C 17.83 24.17 17.66 24.16 17.49 24.15 16.24 25.36 14.46 26.03 12.45 26.03 12.24 26.03 12.02 26.02 11.8 26 11.62 25.99 11.47 25.86 11.44 25.68 11.4 25.51 11.49 25.33 11.65 25.25 12.58 24.79 13.3 24.15 13.81 23.33 10.93 22.1 9.1 19.69 9.1 17.07 9.1 13.16 13.09 9.97 18 9.97 22.91 9.97 26.9 13.16 26.9 17.07 26.9 20.99 22.91 24.17 18 24.17ZM 18 10.77C 13.53 10.77 9.9 13.6 9.9 17.07 9.9 19.47 11.71 21.7 14.51 22.75 14.61 22.79 14.7 22.87 14.74 22.98 14.78 23.08 14.78 23.2 14.72 23.3 14.72 23.3 14.68 23.4 14.68 23.4 14.63 23.5 14.59 23.59 14.54 23.67 14.19 24.26 13.75 24.76 13.22 25.19 14.76 25.04 16.1 24.44 17.05 23.47 17.13 23.38 17.24 23.34 17.36 23.35 17.57 23.36 17.78 23.37 18 23.37 22.47 23.37 26.1 20.55 26.1 17.07 26.1 13.6 22.47 10.77 18 10.77ZM 21.58 18.52C 20.93 18.52 20.41 18 20.41 17.36 20.41 16.71 20.93 16.19 21.58 16.19 22.22 16.19 22.74 16.71 22.74 17.36 22.74 18 22.22 18.52 21.58 18.52ZM 21.58 16.99C 21.37 16.99 21.21 17.15 21.21 17.36 21.21 17.56 21.37 17.72 21.58 17.72 21.78 17.72 21.94 17.56 21.94 17.36 21.94 17.15 21.78 16.99 21.58 16.99ZM 18 18.52C 17.35 18.52 16.83 18 16.83 17.36 16.83 16.71 17.35 16.19 18 16.19 18.64 16.19 19.17 16.71 19.17 17.36 19.17 18 18.64 18.52 18 18.52ZM 18 16.99C 17.8 16.99 17.63 17.15 17.63 17.36 17.63 17.56 17.8 17.72 18 17.72 18.2 17.72 18.37 17.56 18.37 17.36 18.37 17.15 18.2 16.99 18 16.99ZM 14.42 18.52C 13.78 18.52 13.26 18 13.26 17.36 13.26 16.71 13.78 16.19 14.42 16.19 15.07 16.19 15.59 16.71 15.59 17.36 15.59 18 15.07 18.52 14.42 18.52ZM 14.42 16.99C 14.22 16.99 14.06 17.15 14.06 17.36 14.06 17.56 14.22 17.72 14.42 17.72 14.62 17.72 14.79 17.56 14.79 17.36 14.79 17.15 14.62 16.99 14.42 16.99Z"/></svg>