<svg xmlns="http://www.w3.org/2000/svg" viewBox="0 0 20 20"><path d="M10,0A10,10,0,1,0,20,10,10,10,0,0,0,10,0Zm0,19.56A9.56,9.56,0,1,1,19.56,10,9.57,9.57,0,0,1,10,19.56Z"/><path d="M5.4,7.77a6,6,0,0,1,1-.08A1.66,1.66,0,0,1,7.54,8a1.09,1.09,0,0,1,.35.84,1.19,1.19,0,0,1-.31.86,1.67,1.67,0,0,1-1.24.44,1.78,1.78,0,0,1-.42,0v1.62H5.4v-4ZM5.92,9.72a1.74,1.74,0,0,0,.43,0,0.86,0.86,0,0,0,1-.86,0.8,0.8,0,0,0-1-.79,2.22,2.22,0,0,0-.49,0V9.72Z"/><path d="M8.59,7.77A7.5,7.5,0,0,1,9.7,7.69a2.31,2.31,0,0,1,1.64.5,1.86,1.86,0,0,1,.57,1.45,2.14,2.14,0,0,1-.58,1.57,2.49,2.49,0,0,1-1.79.58,8.61,8.61,0,0,1-.95,0v-4Zm0.52,3.57a3.23,3.23,0,0,0,.53,0,1.55,1.55,0,0,0,1.72-1.71A1.44,1.44,0,0,0,9.73,8.1a2.93,2.93,0,0,0-.61.05v3.19Z"/><path d="M12.59,7.72h2.18V8.16H13.11V9.5h1.53V9.93H13.11v1.83H12.59v-4Z"/></svg>