<svg xmlns="http://www.w3.org/2000/svg" viewBox="0 0 20 20"><path d="M10,20A10,10,0,1,1,20,10,10,10,0,0,1,10,20ZM10,0.61A9.39,9.39,0,1,0,19.39,10,9.4,9.4,0,0,0,10,.61Z"/><path d="M10,20a9.93,9.93,0,0,1-5.79-1.85,0.3,0.3,0,0,1,.07-0.53c2.51-.93,2.92-1.69,2.92-3.13A1,1,0,0,0,7,13.75,4,4,0,0,1,6.28,12a0.24,0.24,0,0,0-.19-0.23c-0.37-.18-0.7-0.43-0.79-1.59a1.4,1.4,0,0,1,.35-1c0-.2-0.09-0.54-0.15-0.92C5.22,6.5,5.21,4.44,7.58,3.48c2.06-.84,3.71-0.38,4.23.17a2.71,2.71,0,0,1,2,.87c1,1.18.69,3.86,0.58,4.58a1.36,1.36,0,0,1,.36,1c-0.09,1.18-.43,1.44-0.79,1.62a0.24,0.24,0,0,0-.19.23A4,4,0,0,1,13,13.75a1,1,0,0,0-.24.74c0,1.45.41,2.2,2.92,3.13a0.3,0.3,0,0,1,.07.53A9.93,9.93,0,0,1,10,20ZM5,18A9.35,9.35,0,0,0,15,18c-2.11-.86-2.77-1.74-2.77-3.49a1.63,1.63,0,0,1,.35-1.08,3.44,3.44,0,0,0,.59-1.55,0.82,0.82,0,0,1,.52-0.67c0.19-.09.38-0.18,0.45-1.09a0.65,0.65,0,0,0-.22-0.59,0.32,0.32,0,0,1-.16-0.33c0.15-.81.4-3.32-0.41-4.26a2.12,2.12,0,0,0-1.59-.65H11.64a0.48,0.48,0,0,1-.25-0.16c-0.16-.28-1.6-0.85-3.58,0s-2,2.49-1.71,4c0.08,0.58.18,1.08,0.18,1.08a0.3,0.3,0,0,1-.17.33h0a0.7,0.7,0,0,0-.21.61c0.07,0.89.26,1,.45,1.07a0.82,0.82,0,0,1,.52.67,3.43,3.43,0,0,0,.59,1.55,1.62,1.62,0,0,1,.35,1.08C7.81,16.24,7.15,17.11,5,18Z"/></svg>