<svg xmlns="http://www.w3.org/2000/svg" viewBox="0 0 20 20"><path d="M10,20A10,10,0,1,1,20,10,10,10,0,0,1,10,20h0ZM10,0.44A9.56,9.56,0,1,0,19.56,10,9.57,9.57,0,0,0,10,.44h0Z"/><path d="M10.56,9.77a0.22,0.22,0,0,1-.14-0.39l2.08-1.79L10.42,5.8a0.22,0.22,0,0,1,.29-0.34l2.27,2a0.22,0.22,0,0,1,0,.34l-2.27,2a0.22,0.22,0,0,1-.14.05h0Z"/><path d="M5.73,12.38a0.22,0.22,0,0,1-.14,0A2.74,2.74,0,0,1,7.27,7.42h5.18a0.22,0.22,0,0,1,0,.44H7.27A2.3,2.3,0,0,0,5.87,12a0.22,0.22,0,0,1-.14.4h0Z"/><path d="M9.44,14.59a0.22,0.22,0,0,1-.14-0.05L7,12.58a0.22,0.22,0,0,1,0-.34l2.27-2a0.22,0.22,0,1,1,.29.34L7.5,12.41,9.58,14.2a0.22,0.22,0,0,1-.14.39h0Z"/><path d="M12.73,12.58H7.55a0.22,0.22,0,1,1,0-.44h5.18A2.3,2.3,0,0,0,14.13,8a0.22,0.22,0,1,1,.27-0.35,2.74,2.74,0,0,1-1.67,4.91h0Z"/></svg>