<svg xmlns="http://www.w3.org/2000/svg" viewBox="0 0 20 20"><path class="cls-1" d="M10,20A10,10,0,1,1,20,10,10,10,0,0,1,10,20h0ZM10,0.44A9.56,9.56,0,1,0,19.56,10,9.57,9.57,0,0,0,10,.44h0Z"/><path class="cls-1" d="M10.57,15H9.43a0.53,0.53,0,0,1-.53-0.53V13.73a0.24,0.24,0,0,0-.14-0.2L8.4,13.38a0.22,0.22,0,0,0-.26,0l-0.52.52a0.55,0.55,0,0,1-.75,0l-0.81-.81a0.53,0.53,0,0,1,0-.75l0.52-.52a0.25,0.25,0,0,0,0-.24l-0.14-.35a0.25,0.25,0,0,0-.21-0.16H5.53A0.53,0.53,0,0,1,5,10.57V9.43a0.53,0.53,0,0,1,.53-0.53H6.27a0.24,0.24,0,0,0,.2-0.14L6.62,8.4a0.25,0.25,0,0,0,0-.26L6.06,7.62a0.53,0.53,0,0,1,0-.75l0.81-.81a0.55,0.55,0,0,1,.75,0L8.15,6.58a0.26,0.26,0,0,0,.24,0l0.35-.14a0.25,0.25,0,0,0,.16-0.2V5.53A0.53,0.53,0,0,1,9.43,5h1.14a0.53,0.53,0,0,1,.53.53V6.27a0.24,0.24,0,0,0,.14.2L11.6,6.62a0.23,0.23,0,0,0,.26,0l0.52-.52a0.55,0.55,0,0,1,.76,0l0.81,0.81a0.53,0.53,0,0,1,0,.75l-0.52.52a0.24,0.24,0,0,0,0,.24l0.14,0.35a0.25,0.25,0,0,0,.21.16h0.74a0.53,0.53,0,0,1,.53.53v1.14a0.53,0.53,0,0,1-.53.53H13.73a0.24,0.24,0,0,0-.2.14l-0.14.35a0.25,0.25,0,0,0,0,.26l0.52,0.52a0.53,0.53,0,0,1,0,.76l-0.81.81a0.55,0.55,0,0,1-.75,0l-0.52-.52a0.26,0.26,0,0,0-.24,0l-0.35.14a0.25,0.25,0,0,0-.16.21v0.74a0.53,0.53,0,0,1-.53.53h0ZM8.31,12.92a0.63,0.63,0,0,1,.28.06l0.32,0.13a0.68,0.68,0,0,1,.43.62v0.74a0.09,0.09,0,0,0,.09.09h1.14a0.09,0.09,0,0,0,.09-0.09V13.73a0.68,0.68,0,0,1,.45-0.62L11.43,13a0.73,0.73,0,0,1,.74.13l0.52,0.52a0.08,0.08,0,0,0,.13,0l0.81-.81a0.09,0.09,0,0,0,0-.13l-0.52-.52A0.68,0.68,0,0,1,13,11.41l0.13-.32a0.67,0.67,0,0,1,.62-0.43h0.74a0.09,0.09,0,0,0,.09-0.09V9.43a0.09,0.09,0,0,0-.09-0.09H13.73a0.68,0.68,0,0,1-.62-0.45L13,8.57a0.68,0.68,0,0,1,.13-0.74l0.52-.52a0.09,0.09,0,0,0,0-.13l-0.81-.81a0.08,0.08,0,0,0-.13,0l-0.52.52a0.7,0.7,0,0,1-.76.12l-0.32-.13a0.67,0.67,0,0,1-.43-0.62V5.53a0.09,0.09,0,0,0-.09-0.09H9.43a0.09,0.09,0,0,0-.09.09V6.27a0.68,0.68,0,0,1-.45.62L8.57,7A0.73,0.73,0,0,1,7.83,6.9L7.31,6.37a0.08,0.08,0,0,0-.13,0l-0.81.81a0.09,0.09,0,0,0,0,.13L6.9,7.83A0.68,0.68,0,0,1,7,8.59l-0.13.32a0.68,0.68,0,0,1-.62.43H5.53a0.09,0.09,0,0,0-.09.09v1.14a0.09,0.09,0,0,0,.09.09H6.27a0.68,0.68,0,0,1,.62.45L7,11.43a0.68,0.68,0,0,1-.13.74l-0.52.52a0.09,0.09,0,0,0,0,.13l0.81,0.81a0.08,0.08,0,0,0,.13,0l0.52-.52a0.68,0.68,0,0,1,.47-0.19h0ZM10,11.73A1.73,1.73,0,1,1,11.73,10,1.73,1.73,0,0,1,10,11.73h0Zm0-3A1.28,1.28,0,1,0,11.28,10,1.28,1.28,0,0,0,10,8.72h0Z"/></svg>