<svg xmlns="http://www.w3.org/2000/svg" width="50" height="50" viewBox="0 0 50 50"><path d="M42.66 42.66A24.829 24.829 0 0 1 25 50c-6.92 0-13.16-2.8-17.69-7.34A24.927 24.927 0 0 1 0 25c0-6.91 2.8-13.16 7.31-17.69C11.84 2.8 18.08 0 25 0c6.89 0 13.15 2.8 17.66 7.31C47.19 11.84 50 18.09 50 25c0 6.89-2.81 13.15-7.34 17.66zM41.61 8.39C37.36 4.14 31.49 1.5 25 1.5S12.64 4.14 8.39 8.39 1.5 18.51 1.5 25s2.64 12.36 6.89 16.62A23.413 23.413 0 0 0 25 48.5c6.49 0 12.36-2.63 16.61-6.88C45.86 37.36 48.5 31.49 48.5 25s-2.64-12.36-6.89-16.61zm-9.08 8.8l-4.36.06v-2.09l7.24-.79v21.35h-2.88V17.19zM20.92 36.03c-2.1 0-3.76-.73-4.98-2.19-1.22-1.46-1.83-3.54-1.83-6.26v-5.06c0-2.72.61-4.8 1.82-6.26 1.22-1.47 2.87-2.2 4.96-2.2s3.75.73 4.97 2.2c1.21 1.46 1.82 3.54 1.82 6.26v5.06c0 2.73-.6 4.82-1.81 6.27-1.21 1.45-2.85 2.18-4.95 2.18zM24.8 21.9c0-1.84-.34-3.23-1.01-4.16-.67-.94-1.63-1.4-2.9-1.4s-2.24.46-2.9 1.4c-.66.93-.99 2.32-.99 4.16v6.26c0 1.84.33 3.24 1.01 4.18.67.94 1.64 1.41 2.91 1.41 1.27 0 2.23-.47 2.89-1.4.66-.94.99-2.34.99-4.19V21.9z"/></svg>