<svg xmlns="http://www.w3.org/2000/svg" width="50" height="50" viewBox="0 0 50 50"><path d="M42.69 42.66C38.15 47.2 31.88 50 25 50c-6.92 0-13.16-2.8-17.69-7.34A24.927 24.927 0 0 1 0 25c0-6.92 2.8-13.15 7.31-17.69C11.84 2.8 18.08 0 25 0c6.88 0 13.15 2.8 17.69 7.31C47.19 11.85 50 18.08 50 25c0 6.89-2.81 13.15-7.31 17.66zM41.61 8.39A23.38 23.38 0 0 0 25 1.5c-6.49 0-12.36 2.63-16.62 6.89C4.14 12.64 1.5 18.51 1.5 25s2.64 12.36 6.88 16.61C12.64 45.86 18.51 48.5 25 48.5s12.36-2.64 16.61-6.89S48.5 31.49 48.5 25s-2.64-12.36-6.89-16.61zm-15.8 25.33l6.98-7.75c1.24-1.4 2.09-2.51 2.54-3.33.44-.82.66-1.66.66-2.52 0-1.07-.31-1.96-.92-2.69-.62-.73-1.45-1.09-2.47-1.09-1.48 0-2.56.38-3.26 1.13-.7.76-1.05 1.82-1.05 3.19h-2.76l-.03-.09c-.05-1.83.56-3.38 1.83-4.63s3.02-1.88 5.27-1.88c1.91 0 3.44.57 4.57 1.68 1.14 1.12 1.71 2.55 1.71 4.28 0 1.16-.35 2.32-1.04 3.49-.68 1.17-1.65 2.42-2.89 3.76l-5.6 6.1.03.07h10.24v2.28H25.81v-2zm-9.25 2.3c-2.1 0-3.75-.72-4.97-2.18-1.22-1.45-1.83-3.54-1.83-6.26v-5.06c0-2.71.6-4.81 1.82-6.26 1.22-1.47 2.87-2.2 4.96-2.2s3.74.73 4.96 2.2c1.22 1.45 1.82 3.55 1.82 6.26v5.06c0 2.72-.6 4.82-1.8 6.27-1.21 1.45-2.86 2.17-4.96 2.17zm3.88-14.12c0-1.84-.33-3.23-1-4.16-.67-.94-1.64-1.4-2.9-1.4-1.28 0-2.24.46-2.9 1.4-.67.93-1 2.32-1 4.16v6.25c0 1.85.34 3.24 1.01 4.19.67.94 1.65 1.41 2.91 1.41 1.27 0 2.23-.47 2.9-1.4.65-.94.98-2.34.98-4.2V21.9z" /></svg>