<svg xmlns="http://www.w3.org/2000/svg" width="50" height="50" viewBox="0 0 50 50"><path d="M42.66 42.66A24.846 24.846 0 0 1 25 50c-6.92 0-13.16-2.8-17.69-7.34A24.91 24.91 0 0 1 0 25c0-6.91 2.8-13.15 7.31-17.69C11.84 2.8 18.08 0 25 0c6.88 0 13.15 2.8 17.66 7.31C47.19 11.85 50 18.09 50 25c0 6.89-2.81 13.16-7.34 17.66zM41.61 8.39C37.35 4.14 31.49 1.5 25 1.5c-6.5 0-12.36 2.64-16.61 6.89S1.5 18.51 1.5 25s2.64 12.36 6.89 16.62C12.64 45.86 18.5 48.5 25 48.5c6.49 0 12.35-2.64 16.61-6.88C45.86 37.36 48.5 31.49 48.5 25s-2.64-12.36-6.89-16.61zm-3.67 18.36c.54.89.81 1.9.81 3.01 0 1.95-.64 3.48-1.92 4.59-1.27 1.12-2.89 1.67-4.88 1.67-1.94 0-3.55-.52-4.82-1.57-1.27-1.05-1.89-2.47-1.84-4.28l.05-.08h2.75c0 1.11.34 2.01 1.03 2.67.69.66 1.63.99 2.83.99 1.23 0 2.18-.33 2.87-.99.69-.66 1.04-1.64 1.04-2.93 0-1.32-.31-2.29-.92-2.91-.61-.63-1.59-.94-2.91-.94h-2.52v-2.27h2.52c1.28 0 2.18-.32 2.71-.96.53-.64.8-1.53.8-2.67 0-1.23-.3-2.16-.91-2.79-.6-.64-1.5-.95-2.68-.95-1.12 0-2.02.33-2.7.98-.68.67-1.01 1.54-1.01 2.64h-2.77l-.03-.09c-.05-1.61.54-2.99 1.75-4.11 1.21-1.13 2.8-1.7 4.76-1.7 1.97 0 3.54.53 4.72 1.58 1.17 1.05 1.75 2.55 1.75 4.49 0 .88-.26 1.76-.79 2.63-.53.88-1.34 1.55-2.4 2.01 1.28.41 2.19 1.08 2.71 1.98zm-21.62 9.27c-2.1 0-3.76-.72-4.97-2.18-1.22-1.45-1.83-3.54-1.83-6.26v-5.06c0-2.71.6-4.81 1.82-6.26 1.21-1.47 2.86-2.2 4.95-2.2 2.1 0 3.76.73 4.97 2.2 1.21 1.45 1.82 3.55 1.82 6.26v5.06c0 2.72-.6 4.82-1.8 6.27-1.21 1.45-2.86 2.17-4.96 2.17zM20.2 21.9c0-1.84-.34-3.23-1-4.16-.67-.94-1.64-1.4-2.91-1.4-1.27 0-2.23.46-2.9 1.4-.66.93-.99 2.32-.99 4.16v6.26c0 1.84.33 3.23 1.01 4.18.68.94 1.64 1.41 2.91 1.41 1.27 0 2.23-.47 2.89-1.4.66-.94.99-2.34.99-4.19V21.9z"/></svg>