<svg xmlns="http://www.w3.org/2000/svg" width="25" height="25" viewBox="0 0 25 25"><path d="M12.5 25C5.63 25 0 19.37 0 12.5 0 5.62 5.63 0 12.5 0 19.38 0 25 5.62 25 12.5 25 19.37 19.38 25 12.5 25zm0-21.88c-5.15 0-9.37 4.22-9.37 9.38 0 5.16 4.22 9.37 9.37 9.37 5.16 0 9.37-4.21 9.37-9.37 0-5.16-4.21-9.38-9.37-9.38zm-.47 13.6c-.31.31-.62.47-1.09.47-.47 0-.78-.16-1.09-.47l-3.28-3.28c-.63-.63-.63-1.57 0-2.19.62-.63 1.56-.63 2.18 0l2.19 2.19 5.16-5.16a1.51 1.51 0 0 1 2.18 0c.63.63.63 1.56 0 2.19l-6.25 6.25z"/></svg>