<svg xmlns="http://www.w3.org/2000/svg" viewBox="0 0 20 20"><path d="M10,20A10,10,0,1,1,20,10,10,10,0,0,1,10,20h0ZM10,0.44A9.56,9.56,0,1,0,19.56,10,9.57,9.57,0,0,0,10,.44h0Z"/><path d="M11,14.78a0.22,0.22,0,0,1-.22-0.22V11.9A0.22,0.22,0,0,1,11,11.67h2.67a0.22,0.22,0,1,1,0,.44H11.18v2.44a0.22,0.22,0,0,1-.22.22h0Z"/><path d="M11,14.78H6.37a0.22,0.22,0,0,1-.22-0.22V5.44a0.22,0.22,0,0,1,.22-0.22h7.26a0.22,0.22,0,0,1,.22.22V11.9a0.22,0.22,0,0,1-.07.16l-2.67,2.67a0.22,0.22,0,0,1-.16.07h0Zm-4.37-.44h4.28l2.54-2.54V5.66H6.59v8.68h0Z"/><path d="M10.48,7.35H7.87a0.22,0.22,0,1,1,0-.44h2.61a0.22,0.22,0,0,1,0,.44h0Z"/><path d="M12.2,8.42H7.87a0.22,0.22,0,1,1,0-.44H12.2a0.22,0.22,0,0,1,0,.44h0Z"/><path d="M12.2,9.49H7.87a0.22,0.22,0,1,1,0-.44H12.2a0.22,0.22,0,0,1,0,.44h0Z"/><path d="M9.68,10.57H7.87a0.22,0.22,0,1,1,0-.44H9.68a0.22,0.22,0,1,1,0,.44h0Z"/></svg>